Sebastian.ufo
<glyph name="uniE0A6" format="2">
  <advance width="546"/>
  <unicode hex="E0A6"/>
  <outline>
    <contour>
      <point x="30" y="148" type="line" smooth="yes"/>
      <point x="30" y="151"/>
      <point x="27" y="155"/>
      <point x="21" y="155" type="curve" smooth="yes"/>
      <point x="9" y="155" type="line" smooth="yes"/>
      <point x="4" y="155"/>
      <point x="0" y="151"/>
      <point x="0" y="148" type="curve" smooth="yes"/>
      <point x="0" y="-149" type="line" smooth="yes"/>
      <point x="0" y="-152"/>
      <point x="4" y="-155"/>
      <point x="9" y="-155" type="curve" smooth="yes"/>
      <point x="21" y="-155" type="line" smooth="yes"/>
      <point x="27" y="-155"/>
      <point x="30" y="-152"/>
      <point x="30" y="-149" type="curve" smooth="yes"/>
    </contour>
    <contour>
      <point x="489" y="148" type="line" smooth="yes"/>
      <point x="489" y="151"/>
      <point x="485" y="155"/>
      <point x="481" y="155" type="curve" smooth="yes"/>
      <point x="467" y="155" type="line" smooth="yes"/>
      <point x="463" y="155"/>
      <point x="458" y="151"/>
      <point x="458" y="148" type="curve" smooth="yes"/>
      <point x="458" y="113" type="line"/>
      <point x="455" y="120"/>
      <point x="448" y="125"/>
      <point x="440" y="125" type="curve" smooth="yes"/>
      <point x="351" y="125" type="line" smooth="yes"/>
      <point x="346" y="125"/>
      <point x="340" y="123"/>
      <point x="336" y="120" type="curve"/>
      <point x="273" y="66" type="line"/>
      <point x="208" y="120" type="line"/>
      <point x="204" y="123"/>
      <point x="199" y="125"/>
      <point x="194" y="125" type="curve" smooth="yes"/>
      <point x="105" y="125" type="line" smooth="yes"/>
      <point x="98" y="125"/>
      <point x="90" y="120"/>
      <point x="87" y="113" type="curve"/>
      <point x="87" y="148" type="line" smooth="yes"/>
      <point x="87" y="151"/>
      <point x="82" y="155"/>
      <point x="78" y="155" type="curve" smooth="yes"/>
      <point x="65" y="155" type="line" smooth="yes"/>
      <point x="60" y="155"/>
      <point x="57" y="151"/>
      <point x="57" y="148" type="curve" smooth="yes"/>
      <point x="57" y="-149" type="line" smooth="yes"/>
      <point x="57" y="-152"/>
      <point x="60" y="-155"/>
      <point x="65" y="-155" type="curve" smooth="yes"/>
      <point x="78" y="-155" type="line" smooth="yes"/>
      <point x="82" y="-155"/>
      <point x="87" y="-152"/>
      <point x="87" y="-149" type="curve" smooth="yes"/>
      <point x="87" y="-113" type="line"/>
      <point x="90" y="-120"/>
      <point x="97" y="-125"/>
      <point x="105" y="-125" type="curve" smooth="yes"/>
      <point x="194" y="-125" type="line" smooth="yes"/>
      <point x="199" y="-125"/>
      <point x="204" y="-123"/>
      <point x="208" y="-119" type="curve"/>
      <point x="273" y="-66" type="line"/>
      <point x="337" y="-119" type="line"/>
      <point x="341" y="-123"/>
      <point x="346" y="-125"/>
      <point x="351" y="-125" type="curve" smooth="yes"/>
      <point x="439" y="-125" type="line" smooth="yes"/>
      <point x="448" y="-125"/>
      <point x="455" y="-120"/>
      <point x="458" y="-113" type="curve"/>
      <point x="458" y="-149" type="line" smooth="yes"/>
      <point x="458" y="-152"/>
      <point x="463" y="-155"/>
      <point x="467" y="-155" type="curve" smooth="yes"/>
      <point x="481" y="-155" type="line" smooth="yes"/>
      <point x="485" y="-155"/>
      <point x="489" y="-152"/>
      <point x="489" y="-149" type="curve" smooth="yes"/>
    </contour>
    <contour>
      <point x="546" y="148" type="line" smooth="yes"/>
      <point x="546" y="151"/>
      <point x="542" y="155"/>
      <point x="536" y="155" type="curve" smooth="yes"/>
      <point x="524" y="155" type="line" smooth="yes"/>
      <point x="519" y="155"/>
      <point x="514" y="151"/>
      <point x="514" y="148" type="curve" smooth="yes"/>
      <point x="514" y="-149" type="line" smooth="yes"/>
      <point x="514" y="-152"/>
      <point x="519" y="-155"/>
      <point x="524" y="-155" type="curve" smooth="yes"/>
      <point x="536" y="-155" type="line" smooth="yes"/>
      <point x="542" y="-155"/>
      <point x="546" y="-152"/>
      <point x="546" y="-149" type="curve" smooth="yes"/>
    </contour>
    <contour>
      <point x="352" y="-98" type="line"/>
      <point x="273" y="-31" type="line"/>
      <point x="192" y="-98" type="line"/>
      <point x="134" y="-98" type="line"/>
      <point x="243" y="0" type="line"/>
      <point x="134" y="98" type="line"/>
      <point x="192" y="98" type="line"/>
      <point x="273" y="31" type="line"/>
      <point x="352" y="98" type="line"/>
      <point x="411" y="98" type="line"/>
      <point x="302" y="0" type="line"/>
      <point x="411" y="-98" type="line"/>
    </contour>
    <contour>
      <point x="458" y="-92" type="line"/>
      <point x="360" y="0" type="line"/>
      <point x="458" y="92" type="line"/>
    </contour>
    <contour>
      <point x="87" y="91" type="line"/>
      <point x="185" y="0" type="line"/>
      <point x="87" y="-91" type="line"/>
    </contour>
  </outline>
</glyph>
<glyph name="uniE0A7" format="2">
  <advance width="377"/>
  <unicode hex="E0A7"/>
  <outline>
    <contour>
      <point x="117.706" y="-112" type="line"/>
      <point x="57.0588" y="-112" type="line"/>
      <point x="153.441" y="0" type="line"/>
      <point x="54.5" y="114" type="line"/>
      <point x="110.029" y="114" type="line"/>
      <point x="190.206" y="23" type="line"/>
      <point x="268.676" y="114" type="line"/>
      <point x="322.618" y="114" type="line"/>
      <point x="225.382" y="1" type="line"/>
      <point x="320.912" y="-112" type="line"/>
      <point x="271.235" y="-112" type="line"/>
      <point x="193.618" y="-21" type="line"/>
    </contour>
    <contour>
      <point x="120.265" y="136" type="line"/>
      <point x="120.265" y="136"/>
      <point x="44.3529" y="136"/>
      <point x="0" y="136" type="curve"/>
      <point x="112.588" y="0" type="line"/>
      <point x="0" y="-137" type="line"/>
      <point x="37.5294" y="-136"/>
      <point x="91.2647" y="-136"/>
      <point x="126.235" y="-136" type="curve"/>
      <point x="193.618" y="-59" type="line"/>
      <point x="262.706" y="-136" type="line"/>
      <point x="307.912" y="-136"/>
      <point x="376.147" y="-136"/>
      <point x="376.147" y="-136" type="curve"/>
      <point x="264.412" y="0" type="line"/>
      <point x="377" y="136" type="line"/>
      <point x="330.941" y="136"/>
      <point x="258.441" y="136"/>
      <point x="258.441" y="136" type="curve"/>
      <point x="190.206" y="60" type="line"/>
    </contour>
  </outline>
</glyph>
<glyph name="uniE0A8" format="2">
  <advance width="334"/>
  <unicode hex="E0A8"/>
  <outline>
    <contour>
      <point x="93" y="136" type="line"/>
      <point x="0" y="136" type="line"/>
      <point x="116" y="0" type="line"/>
      <point x="0" y="-137" type="line"/>
      <point x="105" y="-137" type="line"/>
      <point x="172" y="-55" type="line"/>
      <point x="241" y="-137" type="line"/>
      <point x="334" y="-137" type="line"/>
      <point x="218" y="0" type="line"/>
      <point x="334" y="136" type="line"/>
      <point x="229" y="136" type="line"/>
      <point x="162" y="56" type="line"/>
    </contour>
    <contour>
      <point x="97" y="-112" type="line"/>
      <point x="49" y="-112" type="line"/>
      <point x="144" y="1" type="line"/>
      <point x="47" y="114" type="line"/>
      <point x="83" y="114" type="line"/>
      <point x="162" y="23" type="line"/>
      <point x="239" y="114" type="line"/>
      <point x="286" y="114" type="line"/>
      <point x="190" y="1" type="line"/>
      <point x="284" y="-112" type="line"/>
      <point x="248" y="-112" type="line"/>
      <point x="172" y="-21" type="line"/>
    </contour>
  </outline>
</glyph>
<glyph name="uniE0AB" format="2">
  <advance width="250"/>
  <unicode hex="E0AB"/>
  <outline>
    <contour>
      <point x="49" y="-33" type="line" smooth="yes"/>
      <point x="31" y="-33"/>
      <point x="12" y="-35"/>
      <point x="6" y="-40" type="curve" smooth="yes"/>
      <point x="3" y="-43"/>
      <point x="1" y="-60"/>
      <point x="1" y="-78" type="curve" smooth="yes"/>
      <point x="1" y="-94"/>
      <point x="3" y="-110"/>
      <point x="5" y="-115" type="curve"/>
      <point x="-32" y="-85"/>
      <point x="-43" y="-43"/>
      <point x="-43" y="0" type="curve" smooth="yes"/>
      <point x="-43" y="54"/>
      <point x="-27" y="92"/>
      <point x="4" y="115" type="curve"/>
      <point x="3" y="109"/>
      <point x="1" y="96"/>
      <point x="1" y="82" type="curve" smooth="yes"/>
      <point x="1" y="64"/>
      <point x="3" y="46"/>
      <point x="6" y="43" type="curve" smooth="yes"/>
      <point x="13" y="37"/>
      <point x="31" y="33"/>
      <point x="48" y="33" type="curve" smooth="yes"/>
      <point x="52" y="33"/>
      <point x="55" y="34"/>
      <point x="58" y="34" type="curve"/>
      <point x="69" y="28"/>
      <point x="105" y="8"/>
      <point x="105" y="1" type="curve" smooth="yes"/>
      <point x="105" y="-12"/>
      <point x="73" y="-28"/>
      <point x="59" y="-33" type="curve"/>
    </contour>
    <contour>
      <point x="15" y="-121" type="curve"/>
      <point x="23" y="-124"/>
      <point x="34" y="-126"/>
      <point x="46" y="-126" type="curve" smooth="yes"/>
      <point x="61" y="-126"/>
      <point x="77" y="-123"/>
      <point x="83" y="-116" type="curve"/>
      <point x="89" y="-111"/>
      <point x="91" y="-94"/>
      <point x="91" y="-78" type="curve"/>
      <point x="91" y="-77"/>
      <point x="92" y="-75"/>
      <point x="93" y="-74" type="curve"/>
      <point x="99" y="-60"/>
      <point x="111" y="-32"/>
      <point x="124" y="-32" type="curve" smooth="yes"/>
      <point x="137" y="-32"/>
      <point x="154" y="-64"/>
      <point x="158" y="-78" type="curve"/>
      <point x="158" y="-96"/>
      <point x="159" y="-113"/>
      <point x="163" y="-116" type="curve" smooth="yes"/>
      <point x="170" y="-122"/>
      <point x="186" y="-126"/>
      <point x="203" y="-126" type="curve" smooth="yes"/>
      <point x="212" y="-126"/>
      <point x="220" y="-125"/>
      <point x="227" y="-123" type="curve"/>
      <point x="201" y="-138"/>
      <point x="166" y="-145"/>
      <point x="125" y="-145" type="curve" smooth="yes"/>
      <point x="79" y="-145"/>
      <point x="42" y="-137"/>
    </contour>
    <contour>
      <point x="232" y="123" type="curve"/>
      <point x="224" y="125"/>
      <point x="215" y="126"/>
      <point x="204" y="126" type="curve" smooth="yes"/>
      <point x="186" y="126"/>
      <point x="168" y="124"/>
      <point x="163" y="119" type="curve" smooth="yes"/>
      <point x="159" y="116"/>
      <point x="158" y="98"/>
      <point x="158" y="80" type="curve"/>
      <point x="153" y="69"/>
      <point x="137" y="33"/>
      <point x="125" y="33" type="curve" smooth="yes"/>
      <point x="111" y="33"/>
      <point x="95" y="66"/>
      <point x="91" y="80" type="curve"/>
      <point x="91" y="97"/>
      <point x="88" y="115"/>
      <point x="83" y="119" type="curve"/>
      <point x="79" y="124"/>
      <point x="63" y="126"/>
      <point x="47" y="126" type="curve" smooth="yes"/>
      <point x="36" y="126"/>
      <point x="25" y="125"/>
      <point x="17" y="123" type="curve"/>
      <point x="43" y="137"/>
      <point x="78" y="145"/>
      <point x="125" y="145" type="curve" smooth="yes"/>
      <point x="170" y="145"/>
      <point x="205" y="138"/>
    </contour>
    <contour>
      <point x="248" y="-80" type="line" smooth="yes"/>
      <point x="248" y="-63"/>
      <point x="245" y="-45"/>
      <point x="241" y="-40" type="curve" smooth="yes"/>
      <point x="236" y="-35"/>
      <point x="218" y="-33"/>
      <point x="201" y="-33" type="curve" smooth="yes"/>
      <point x="191" y="-33" type="line"/>
      <point x="180" y="-27"/>
      <point x="144" y="-7"/>
      <point x="144" y="0" type="curve" smooth="yes"/>
      <point x="144" y="14"/>
      <point x="177" y="29"/>
      <point x="191" y="34" type="curve"/>
      <point x="195" y="34"/>
      <point x="199" y="33"/>
      <point x="203" y="33" type="curve" smooth="yes"/>
      <point x="219" y="33"/>
      <point x="234" y="37"/>
      <point x="241" y="43" type="curve" smooth="yes"/>
      <point x="246" y="48"/>
      <point x="248" y="63"/>
      <point x="248" y="79" type="curve" smooth="yes"/>
      <point x="248" y="94"/>
      <point x="246" y="110"/>
      <point x="243" y="117" type="curve"/>
      <point x="276" y="93"/>
      <point x="292" y="55"/>
      <point x="292" y="0" type="curve" smooth="yes"/>
      <point x="292" y="-51"/>
      <point x="276" y="-88"/>
      <point x="244" y="-113" type="curve"/>
      <point x="248" y="-107"/>
      <point x="248" y="-98"/>
      <point x="248" y="-90" type="curve" smooth="yes"/>
    </contour>
    <contour>
      <point x="125" y="169" type="curve" smooth="yes"/>
      <point x="7" y="169"/>
      <point x="-67" y="121"/>
      <point x="-67" y="0" type="curve" smooth="yes"/>
      <point x="-67" y="-123"/>
      <point x="12" y="-169"/>
      <point x="125" y="-169" type="curve" smooth="yes"/>
      <point x="236" y="-169"/>
      <point x="316" y="-120"/>
      <point x="316" y="0" type="curve" smooth="yes"/>
      <point x="316" y="125"/>
      <point x="240" y="169"/>
    </contour>
  </outline>
</glyph>
<glyph name="uniE0AC" format="2">
  <advance width="473"/>
  <unicode hex="E0AC"/>
  <outline>
    <contour>
      <point x="214" y="-30" type="line"/>
      <point x="155" y="-13" type="line"/>
      <point x="155" y="14" type="line"/>
      <point x="214" y="31" type="line"/>
      <point x="222" y="106" type="line"/>
      <point x="250" y="106" type="line"/>
      <point x="258" y="31" type="line"/>
      <point x="318" y="14" type="line"/>
      <point x="318" y="-13" type="line"/>
      <point x="258" y="-30" type="line"/>
      <point x="250" y="-106" type="line"/>
      <point x="222" y="-106" type="line"/>
    </contour>
    <contour>
      <point x="28" y="149" type="line" smooth="yes"/>
      <point x="28" y="152"/>
      <point x="25" y="155"/>
      <point x="20" y="155" type="curve" smooth="yes"/>
      <point x="8" y="155" type="line" smooth="yes"/>
      <point x="3" y="155"/>
      <point x="0" y="152"/>
      <point x="0" y="149" type="curve" smooth="yes"/>
      <point x="0" y="-150" type="line" smooth="yes"/>
      <point x="0" y="-153"/>
      <point x="3" y="-155"/>
      <point x="8" y="-155" type="curve" smooth="yes"/>
      <point x="20" y="-155" type="line" smooth="yes"/>
      <point x="25" y="-155"/>
      <point x="28" y="-153"/>
      <point x="28" y="-150" type="curve" smooth="yes"/>
    </contour>
    <contour>
      <point x="79" y="149" type="line" smooth="yes"/>
      <point x="79" y="152"/>
      <point x="75" y="155"/>
      <point x="71" y="155" type="curve" smooth="yes"/>
      <point x="60" y="155" type="line" smooth="yes"/>
      <point x="55" y="155"/>
      <point x="52" y="152"/>
      <point x="52" y="149" type="curve" smooth="yes"/>
      <point x="52" y="-150" type="line" smooth="yes"/>
      <point x="52" y="-153"/>
      <point x="55" y="-155"/>
      <point x="60" y="-155" type="curve" smooth="yes"/>
      <point x="71" y="-155" type="line" smooth="yes"/>
      <point x="75" y="-155"/>
      <point x="79" y="-153"/>
      <point x="79" y="-150" type="curve" smooth="yes"/>
    </contour>
    <contour>
      <point x="268" y="-125" type="line" smooth="yes"/>
      <point x="274" y="-125"/>
      <point x="280" y="-120"/>
      <point x="281" y="-114" type="curve" smooth="yes"/>
      <point x="287" y="-51" type="line"/>
      <point x="369" y="-36" type="line" smooth="yes"/>
      <point x="374" y="-35"/>
      <point x="379" y="-30"/>
      <point x="379" y="-23" type="curve" smooth="yes"/>
      <point x="379" y="24" type="line" smooth="yes"/>
      <point x="379" y="30"/>
      <point x="375" y="36"/>
      <point x="369" y="37" type="curve" smooth="yes"/>
      <point x="287" y="52" type="line"/>
      <point x="281" y="113" type="line" smooth="yes"/>
      <point x="280" y="119"/>
      <point x="275" y="125"/>
      <point x="268" y="125" type="curve" smooth="yes"/>
      <point x="205" y="125" type="line" smooth="yes"/>
      <point x="199" y="125"/>
      <point x="193" y="120"/>
      <point x="192" y="113" type="curve" smooth="yes"/>
      <point x="185" y="52" type="line"/>
      <point x="105" y="37" type="line" smooth="yes"/>
      <point x="99" y="36"/>
      <point x="93" y="31"/>
      <point x="93" y="24" type="curve" smooth="yes"/>
      <point x="93" y="-23" type="line" smooth="yes"/>
      <point x="93" y="-29"/>
      <point x="98" y="-35"/>
      <point x="105" y="-36" type="curve" smooth="yes"/>
      <point x="185" y="-51" type="line"/>
      <point x="192" y="-114" type="line"/>
      <point x="192" y="-120"/>
      <point x="198" y="-125"/>
      <point x="205" y="-125" type="curve" smooth="yes"/>
    </contour>
    <contour>
      <point x="422" y="149" type="line" smooth="yes"/>
      <point x="422" y="152"/>
      <point x="418" y="155"/>
      <point x="414" y="155" type="curve" smooth="yes"/>
      <point x="402" y="155" type="line" smooth="yes"/>
      <point x="398" y="155"/>
      <point x="394" y="152"/>
      <point x="394" y="149" type="curve" smooth="yes"/>
      <point x="394" y="-150" type="line" smooth="yes"/>
      <point x="394" y="-153"/>
      <point x="398" y="-155"/>
      <point x="402" y="-155" type="curve" smooth="yes"/>
      <point x="414" y="-155" type="line" smooth="yes"/>
      <point x="418" y="-155"/>
      <point x="422" y="-153"/>
      <point x="422" y="-150" type="curve" smooth="yes"/>
    </contour>
    <contour>
      <point x="473" y="149" type="line" smooth="yes"/>
      <point x="473" y="152"/>
      <point x="469" y="155"/>
      <point x="464" y="155" type="curve" smooth="yes"/>
      <point x="453" y="155" type="line" smooth="yes"/>
      <point x="449" y="155"/>
      <point x="444" y="152"/>
      <point x="444" y="149" type="curve" smooth="yes"/>
      <point x="444" y="-150" type="line" smooth="yes"/>
      <point x="444" y="-153"/>
      <point x="449" y="-155"/>
      <point x="453" y="-155" type="curve" smooth="yes"/>
      <point x="464" y="-155" type="line" smooth="yes"/>
      <point x="469" y="-155"/>
      <point x="473" y="-153"/>
      <point x="473" y="-150" type="curve" smooth="yes"/>
    </contour>
  </outline>
</glyph>
<glyph name="uniE0AD" format="2">
  <advance width="285"/>
  <unicode hex="E0AD"/>
  <outline>
    <contour>
      <point x="121" y="-30" type="line"/>
      <point x="62" y="-13" type="line"/>
      <point x="62" y="14" type="line"/>
      <point x="121" y="30" type="line"/>
      <point x="129" y="106" type="line"/>
      <point x="157" y="106" type="line"/>
      <point x="165" y="30" type="line"/>
      <point x="225" y="14" type="line"/>
      <point x="225" y="-13" type="line"/>
      <point x="165" y="-30" type="line"/>
      <point x="157" y="-106" type="line"/>
      <point x="129" y="-106" type="line"/>
    </contour>
    <contour>
      <point x="174" y="-125" type="line" smooth="yes"/>
      <point x="180" y="-125"/>
      <point x="186" y="-120"/>
      <point x="187" y="-114" type="curve" smooth="yes"/>
      <point x="193" y="-51" type="line"/>
      <point x="275" y="-36" type="line"/>
      <point x="280" y="-36"/>
      <point x="285" y="-30"/>
      <point x="285" y="-24" type="curve" smooth="yes"/>
      <point x="285" y="24" type="line" smooth="yes"/>
      <point x="285" y="30"/>
      <point x="281" y="36"/>
      <point x="275" y="37" type="curve" smooth="yes"/>
      <point x="194" y="51" type="line"/>
      <point x="187" y="112" type="line" smooth="yes"/>
      <point x="186" y="119"/>
      <point x="180" y="125"/>
      <point x="174" y="125" type="curve" smooth="yes"/>
      <point x="111" y="125" type="line" smooth="yes"/>
      <point x="105" y="125"/>
      <point x="99" y="120"/>
      <point x="98" y="112" type="curve" smooth="yes"/>
      <point x="92" y="51" type="line"/>
      <point x="10" y="37" type="line" smooth="yes"/>
      <point x="5" y="36"/>
      <point x="0" y="31"/>
      <point x="0" y="25" type="curve" smooth="yes"/>
      <point x="0" y="-24" type="line" smooth="yes"/>
      <point x="0" y="-29"/>
      <point x="4" y="-36"/>
      <point x="10" y="-36" type="curve"/>
      <point x="91" y="-51" type="line"/>
      <point x="98" y="-114" type="line" smooth="yes"/>
      <point x="99" y="-121"/>
      <point x="105" y="-125"/>
      <point x="111" y="-125" type="curve" smooth="yes"/>
    </contour>
  </outline>
</glyph>
<glyph name="uniE0AE" format="2">
  <advance width="261"/>
  <unicode hex="E0AE"/>
  <outline>
    <contour>
      <point x="238" y="-12" type="line" smooth="yes"/>
      <point x="238" y="-16"/>
      <point x="235" y="-20"/>
      <point x="230" y="-21" type="curve" smooth="yes"/>
      <point x="166" y="-28" type="line"/>
      <point x="160" y="-28"/>
      <point x="155" y="-33"/>
      <point x="154" y="-38" type="curve" smooth="yes"/>
      <point x="146" y="-91" type="line" smooth="yes"/>
      <point x="145" y="-95"/>
      <point x="141" y="-99"/>
      <point x="136" y="-99" type="curve" smooth="yes"/>
      <point x="122" y="-99" type="line" smooth="yes"/>
      <point x="118" y="-99"/>
      <point x="113" y="-95"/>
      <point x="113" y="-91" type="curve"/>
      <point x="102" y="-38" type="line" smooth="yes"/>
      <point x="101" y="-33"/>
      <point x="97" y="-30"/>
      <point x="92" y="-29" type="curve" smooth="yes"/>
      <point x="32" y="-21" type="line" smooth="yes"/>
      <point x="27" y="-20"/>
      <point x="24" y="-16"/>
      <point x="24" y="-12" type="curve" smooth="yes"/>
      <point x="24" y="11" type="line" smooth="yes"/>
      <point x="24" y="16"/>
      <point x="27" y="20"/>
      <point x="33" y="21" type="curve" smooth="yes"/>
      <point x="92" y="27" type="line" smooth="yes"/>
      <point x="98" y="28"/>
      <point x="103" y="31"/>
      <point x="104" y="37" type="curve" smooth="yes"/>
      <point x="113" y="90" type="line"/>
      <point x="113" y="95"/>
      <point x="118" y="98"/>
      <point x="122" y="98" type="curve" smooth="yes"/>
      <point x="136" y="98" type="line" smooth="yes"/>
      <point x="141" y="98"/>
      <point x="145" y="95"/>
      <point x="146" y="90" type="curve" smooth="yes"/>
      <point x="156" y="37" type="line" smooth="yes"/>
      <point x="157" y="31"/>
      <point x="161" y="30"/>
      <point x="166" y="29" type="curve" smooth="yes"/>
      <point x="230" y="21" type="line"/>
      <point x="233" y="21"/>
      <point x="238" y="16"/>
      <point x="238" y="11" type="curve" smooth="yes"/>
    </contour>
    <contour>
      <point x="106" y="125" type="line" smooth="yes"/>
      <point x="100" y="125"/>
      <point x="93" y="120"/>
      <point x="92" y="114" type="curve"/>
      <point x="75" y="67"/>
      <point x="58" y="58"/>
      <point x="11" y="39" type="curve"/>
      <point x="6" y="38"/>
      <point x="0" y="33"/>
      <point x="0" y="26" type="curve" smooth="yes"/>
      <point x="0" y="-27" type="line" smooth="yes"/>
      <point x="0" y="-33"/>
      <point x="5" y="-40"/>
      <point x="11" y="-41" type="curve"/>
      <point x="18" y="-41" type="line" smooth="yes"/>
      <point x="64" y="-41"/>
      <point x="89" y="-61"/>
      <point x="89" y="-108" type="curve" smooth="yes"/>
      <point x="89" y="-115" type="line" smooth="yes"/>
      <point x="89" y="-120"/>
      <point x="95" y="-125"/>
      <point x="102" y="-125" type="curve" smooth="yes"/>
      <point x="156" y="-125" type="line" smooth="yes"/>
      <point x="161" y="-125"/>
      <point x="168" y="-121"/>
      <point x="169" y="-115" type="curve"/>
      <point x="187" y="-66"/>
      <point x="202" y="-55"/>
      <point x="251" y="-37" type="curve"/>
      <point x="256" y="-36"/>
      <point x="261" y="-30"/>
      <point x="261" y="-23" type="curve" smooth="yes"/>
      <point x="261" y="23" type="line" smooth="yes"/>
      <point x="261" y="28"/>
      <point x="257" y="35"/>
      <point x="251" y="36" type="curve"/>
      <point x="243" y="36" type="line" smooth="yes"/>
      <point x="191" y="36"/>
      <point x="165" y="58"/>
      <point x="165" y="114" type="curve" smooth="yes"/>
      <point x="165" y="119"/>
      <point x="159" y="125"/>
      <point x="152" y="125" type="curve" smooth="yes"/>
    </contour>
  </outline>
</glyph>
<glyph name="uniE0B0" format="2">
  <advance width="422"/>
  <unicode hex="E0B0"/>
  <outline>
    <contour>
      <point x="134" y="-57" type="line"/>
      <point x="138" y="-41"/>
      <point x="150" y="-21"/>
      <point x="150" y="0" type="curve" smooth="yes"/>
      <point x="150" y="23"/>
      <point x="141" y="35"/>
      <point x="135" y="59" type="curve"/>
      <point x="193" y="1" type="line"/>
    </contour>
    <contour>
      <point x="270" y="-76" type="line"/>
      <point x="253" y="-89"/>
      <point x="233" y="-96"/>
      <point x="211" y="-96" type="curve" smooth="yes"/>
      <point x="190" y="-96"/>
      <point x="171" y="-89"/>
      <point x="154" y="-76" type="curve"/>
      <point x="212" y="-19" type="line"/>
    </contour>
    <contour>
      <point x="156" y="78" type="line"/>
      <point x="172" y="90"/>
      <point x="191" y="97"/>
      <point x="211" y="97" type="curve" smooth="yes"/>
      <point x="233" y="97"/>
      <point x="253" y="90"/>
      <point x="269" y="78" type="curve"/>
      <point x="212" y="22" type="line"/>
    </contour>
    <contour>
      <point x="290" y="58" type="line"/>
      <point x="279" y="35"/>
      <point x="270" y="16"/>
      <point x="270" y="0" type="curve" smooth="yes"/>
      <point x="270" y="-21"/>
      <point x="284" y="-42"/>
      <point x="290" y="-56" type="curve"/>
      <point x="232" y="1" type="line"/>
    </contour>
    <contour>
      <point x="9" y="155" type="line" smooth="yes"/>
      <point x="4" y="155"/>
      <point x="0" y="152"/>
      <point x="0" y="148" type="curve" smooth="yes"/>
      <point x="0" y="-149" type="line" smooth="yes"/>
      <point x="0" y="-152"/>
      <point x="4" y="-155"/>
      <point x="9" y="-155" type="curve" smooth="yes"/>
      <point x="21" y="-155" type="line" smooth="yes"/>
      <point x="26" y="-155"/>
      <point x="31" y="-152"/>
      <point x="31" y="-149" type="curve" smooth="yes"/>
      <point x="31" y="148" type="line" smooth="yes"/>
      <point x="31" y="152"/>
      <point x="26" y="155"/>
      <point x="21" y="155" type="curve" smooth="yes"/>
    </contour>
    <contour>
      <point x="65" y="155" type="line" smooth="yes"/>
      <point x="60" y="155"/>
      <point x="56" y="152"/>
      <point x="56" y="148" type="curve" smooth="yes"/>
      <point x="56" y="-149" type="line" smooth="yes"/>
      <point x="56" y="-152"/>
      <point x="60" y="-155"/>
      <point x="65" y="-155" type="curve" smooth="yes"/>
      <point x="77" y="-155" type="line" smooth="yes"/>
      <point x="82" y="-155"/>
      <point x="86" y="-152"/>
      <point x="86" y="-149" type="curve" smooth="yes"/>
      <point x="86" y="148" type="line" smooth="yes"/>
      <point x="86" y="152"/>
      <point x="82" y="155"/>
      <point x="77" y="155" type="curve" smooth="yes"/>
    </contour>
    <contour>
      <point x="211" y="125" type="curve" smooth="yes"/>
      <point x="143" y="125"/>
      <point x="88" y="70"/>
      <point x="88" y="0" type="curve" smooth="yes"/>
      <point x="88" y="-69"/>
      <point x="143" y="-125"/>
      <point x="211" y="-125" type="curve" smooth="yes"/>
      <point x="281" y="-125"/>
      <point x="335" y="-69"/>
      <point x="335" y="0" type="curve" smooth="yes"/>
      <point x="335" y="70"/>
      <point x="281" y="125"/>
    </contour>
    <contour>
      <point x="345" y="155" type="line" smooth="yes"/>
      <point x="341" y="155"/>
      <point x="336" y="152"/>
      <point x="336" y="148" type="curve" smooth="yes"/>
      <point x="336" y="-149" type="line" smooth="yes"/>
      <point x="336" y="-152"/>
      <point x="341" y="-155"/>
      <point x="345" y="-155" type="curve" smooth="yes"/>
      <point x="358" y="-155" type="line" smooth="yes"/>
      <point x="363" y="-155"/>
      <point x="367" y="-152"/>
      <point x="367" y="-149" type="curve" smooth="yes"/>
      <point x="367" y="148" type="line" smooth="yes"/>
      <point x="367" y="152"/>
      <point x="363" y="155"/>
      <point x="358" y="155" type="curve" smooth="yes"/>
    </contour>
    <contour>
      <point x="400" y="155" type="line" smooth="yes"/>
      <point x="396" y="155"/>
      <point x="391" y="152"/>
      <point x="391" y="148" type="curve" smooth="yes"/>
      <point x="391" y="-149" type="line" smooth="yes"/>
      <point x="391" y="-152"/>
      <point x="396" y="-155"/>
      <point x="400" y="-155" type="curve" smooth="yes"/>
      <point x="413" y="-155" type="line" smooth="yes"/>
      <point x="418" y="-155"/>
      <point x="422" y="-152"/>
      <point x="422" y="-149" type="curve" smooth="yes"/>
      <point x="422" y="148" type="line" smooth="yes"/>
      <point x="422" y="152"/>
      <point x="418" y="155"/>
      <point x="413" y="155" type="curve" smooth="yes"/>
    </contour>
  </outline>
</glyph>
<glyph name="uniE0B4" format="2">
  <advance width="597"/>
  <unicode hex="E0B4"/>
  <outline>
    <contour>
      <point x="199" y="62" type="curve" smooth="yes"/>
      <point x="203" y="72"/>
      <point x="208" y="80"/>
      <point x="215" y="85" type="curve"/>
      <point x="286" y="4" type="line"/>
      <point x="224" y="-43" type="line"/>
      <point x="208" y="-20"/>
      <point x="195" y="9"/>
      <point x="195" y="37" type="curve" smooth="yes"/>
      <point x="195" y="45"/>
      <point x="196" y="53"/>
    </contour>
    <contour>
      <point x="243" y="98" type="line"/>
      <point x="253" y="100"/>
      <point x="266" y="101"/>
      <point x="277" y="101" type="curve" smooth="yes"/>
      <point x="309" y="101"/>
      <point x="338" y="85"/>
      <point x="360" y="62" type="curve"/>
      <point x="308" y="22" type="line"/>
    </contour>
    <contour>
      <point x="305" y="-18" type="line"/>
      <point x="369" y="-93" type="line"/>
      <point x="355" y="-99" type="line"/>
      <point x="345" y="-101"/>
      <point x="335" y="-102"/>
      <point x="325" y="-102" type="curve" smooth="yes"/>
      <point x="316" y="-102"/>
      <point x="307" y="-101"/>
      <point x="298" y="-99" type="curve"/>
      <point x="281" y="-93"/>
      <point x="265" y="-84"/>
      <point x="252" y="-72" type="curve"/>
      <point x="243" y="-65" type="line"/>
    </contour>
    <contour>
      <point x="377" y="38" type="line"/>
      <point x="391" y="15"/>
      <point x="399" y="-10"/>
      <point x="399" y="-33" type="curve" smooth="yes"/>
      <point x="399" y="-39"/>
      <point x="398" y="-44"/>
      <point x="397" y="-50" type="curve" smooth="yes"/>
      <point x="395" y="-59"/>
      <point x="393" y="-66"/>
      <point x="389" y="-72" type="curve"/>
      <point x="328" y="0" type="line"/>
    </contour>
    <contour>
      <point x="31" y="147" type="line" smooth="yes"/>
      <point x="31" y="150"/>
      <point x="27" y="154"/>
      <point x="22" y="154" type="curve" smooth="yes"/>
      <point x="9" y="154" type="line" smooth="yes"/>
      <point x="4" y="154"/>
      <point x="0" y="150"/>
      <point x="0" y="147" type="curve" smooth="yes"/>
      <point x="0" y="-148" type="line" smooth="yes"/>
      <point x="0" y="-151"/>
      <point x="4" y="-154"/>
      <point x="9" y="-154" type="curve" smooth="yes"/>
      <point x="22" y="-154" type="line" smooth="yes"/>
      <point x="27" y="-154"/>
      <point x="31" y="-151"/>
      <point x="31" y="-148" type="curve" smooth="yes"/>
    </contour>
    <contour>
      <point x="88" y="147" type="line" smooth="yes"/>
      <point x="88" y="150"/>
      <point x="83" y="154"/>
      <point x="79" y="154" type="curve" smooth="yes"/>
      <point x="66" y="154" type="line" smooth="yes"/>
      <point x="61" y="154"/>
      <point x="57" y="150"/>
      <point x="57" y="147" type="curve" smooth="yes"/>
      <point x="57" y="-148" type="line" smooth="yes"/>
      <point x="57" y="-151"/>
      <point x="61" y="-154"/>
      <point x="66" y="-154" type="curve" smooth="yes"/>
      <point x="79" y="-154" type="line" smooth="yes"/>
      <point x="83" y="-154"/>
      <point x="88" y="-151"/>
      <point x="88" y="-148" type="curve" smooth="yes"/>
    </contour>
    <contour>
      <point x="302" y="125" type="curve" smooth="yes"/>
      <point x="171" y="125"/>
      <point x="89" y="68"/>
      <point x="89" y="0" type="curve" smooth="yes"/>
      <point x="89" y="-65"/>
      <point x="146" y="-125"/>
      <point x="292" y="-125" type="curve" smooth="yes"/>
      <point x="455" y="-125"/>
      <point x="507" y="-69"/>
      <point x="507" y="0" type="curve" smooth="yes"/>
      <point x="507" y="71"/>
      <point x="395" y="125"/>
    </contour>
    <contour>
      <point x="539" y="147" type="line" smooth="yes"/>
      <point x="539" y="150"/>
      <point x="535" y="154"/>
      <point x="530" y="154" type="curve" smooth="yes"/>
      <point x="517" y="154" type="line" smooth="yes"/>
      <point x="512" y="154"/>
      <point x="508" y="150"/>
      <point x="508" y="147" type="curve" smooth="yes"/>
      <point x="508" y="-148" type="line" smooth="yes"/>
      <point x="508" y="-151"/>
      <point x="512" y="-154"/>
      <point x="517" y="-154" type="curve" smooth="yes"/>
      <point x="530" y="-154" type="line" smooth="yes"/>
      <point x="535" y="-154"/>
      <point x="539" y="-151"/>
      <point x="539" y="-148" type="curve" smooth="yes"/>
    </contour>
    <contour>
      <point x="597" y="147" type="line" smooth="yes"/>
      <point x="597" y="150"/>
      <point x="593" y="154"/>
      <point x="587" y="154" type="curve" smooth="yes"/>
      <point x="575" y="154" type="line" smooth="yes"/>
      <point x="570" y="154"/>
      <point x="564" y="150"/>
      <point x="564" y="147" type="curve" smooth="yes"/>
      <point x="564" y="-148" type="line" smooth="yes"/>
      <point x="564" y="-151"/>
      <point x="570" y="-154"/>
      <point x="575" y="-154" type="curve" smooth="yes"/>
      <point x="587" y="-154" type="line" smooth="yes"/>
      <point x="593" y="-154"/>
      <point x="597" y="-151"/>
      <point x="597" y="-148" type="curve" smooth="yes"/>
    </contour>
  </outline>
</glyph>
<glyph name="uniE0BA" format="2">
  <advance width="483"/>
  <unicode hex="E0BA"/>
  <outline>
    <contour>
      <point x="297" y="-68" type="curve" smooth="yes"/>
      <point x="297" y="-77"/>
      <point x="291" y="-95"/>
      <point x="282" y="-95" type="curve" smooth="yes"/>
      <point x="201" y="-95" type="line" smooth="yes"/>
      <point x="191" y="-95"/>
      <point x="184" y="-76"/>
      <point x="184" y="-67" type="curve" smooth="yes"/>
      <point x="184" y="-12"/>
      <point x="219" y="38"/>
      <point x="240" y="74" type="curve"/>
      <point x="262" y="37"/>
      <point x="297" y="-12"/>
    </contour>
    <contour>
      <point x="10" y="155" type="line" smooth="yes"/>
      <point x="5" y="155"/>
      <point x="0" y="151"/>
      <point x="0" y="148" type="curve" smooth="yes"/>
      <point x="0" y="-148" type="line" smooth="yes"/>
      <point x="0" y="-152"/>
      <point x="5" y="-155"/>
      <point x="10" y="-155" type="curve" smooth="yes"/>
      <point x="22" y="-155" type="line" smooth="yes"/>
      <point x="28" y="-155"/>
      <point x="32" y="-152"/>
      <point x="32" y="-148" type="curve" smooth="yes"/>
      <point x="32" y="148" type="line" smooth="yes"/>
      <point x="32" y="151"/>
      <point x="28" y="155"/>
      <point x="22" y="155" type="curve" smooth="yes"/>
    </contour>
    <contour>
      <point x="430" y="148" type="line" smooth="yes"/>
      <point x="430" y="151"/>
      <point x="426" y="155"/>
      <point x="420" y="155" type="curve" smooth="yes"/>
      <point x="408" y="155" type="line" smooth="yes"/>
      <point x="403" y="155"/>
      <point x="398" y="151"/>
      <point x="398" y="148" type="curve" smooth="yes"/>
      <point x="398" y="-107" type="line"/>
      <point x="248" y="120" type="line" smooth="yes"/>
      <point x="246" y="123"/>
      <point x="244" y="125"/>
      <point x="240" y="125" type="curve" smooth="yes"/>
      <point x="237" y="125"/>
      <point x="234" y="123"/>
      <point x="232" y="120" type="curve" smooth="yes"/>
      <point x="85" y="-107" type="line"/>
      <point x="85" y="148" type="line" smooth="yes"/>
      <point x="85" y="151"/>
      <point x="81" y="155"/>
      <point x="75" y="155" type="curve" smooth="yes"/>
      <point x="63" y="155" type="line" smooth="yes"/>
      <point x="58" y="155"/>
      <point x="53" y="151"/>
      <point x="53" y="148" type="curve" smooth="yes"/>
      <point x="53" y="-148" type="line" smooth="yes"/>
      <point x="53" y="-152"/>
      <point x="58" y="-155"/>
      <point x="63" y="-155" type="curve" smooth="yes"/>
      <point x="75" y="-155" type="line" smooth="yes"/>
      <point x="81" y="-155"/>
      <point x="85" y="-152"/>
      <point x="85" y="-148" type="curve" smooth="yes"/>
      <point x="85" y="-121" type="line"/>
      <point x="87" y="-123"/>
      <point x="90" y="-125"/>
      <point x="93" y="-125" type="curve" smooth="yes"/>
      <point x="390" y="-125" type="line" smooth="yes"/>
      <point x="393" y="-125"/>
      <point x="396" y="-123"/>
      <point x="398" y="-121" type="curve"/>
      <point x="398" y="-148" type="line" smooth="yes"/>
      <point x="398" y="-152"/>
      <point x="403" y="-155"/>
      <point x="408" y="-155" type="curve" smooth="yes"/>
      <point x="420" y="-155" type="line" smooth="yes"/>
      <point x="426" y="-155"/>
      <point x="430" y="-152"/>
      <point x="430" y="-148" type="curve" smooth="yes"/>
    </contour>
    <contour>
      <point x="483" y="148" type="line" smooth="yes"/>
      <point x="483" y="151"/>
      <point x="479" y="155"/>
      <point x="473" y="155" type="curve" smooth="yes"/>
      <point x="460" y="155" type="line" smooth="yes"/>
      <point x="455" y="155"/>
      <point x="450" y="151"/>
      <point x="450" y="148" type="curve" smooth="yes"/>
      <point x="450" y="-148" type="line" smooth="yes"/>
      <point x="450" y="-152"/>
      <point x="455" y="-155"/>
      <point x="460" y="-155" type="curve" smooth="yes"/>
      <point x="473" y="-155" type="line" smooth="yes"/>
      <point x="479" y="-155"/>
      <point x="483" y="-152"/>
      <point x="483" y="-148" type="curve" smooth="yes"/>
    </contour>
  </outline>
</glyph>
<glyph name="uniE0BB" format="2">
  <advance width="319"/>
  <unicode hex="E0BB"/>
  <outline>
    <contour>
      <point x="118" y="-95" type="line" smooth="yes"/>
      <point x="109" y="-95"/>
      <point x="101" y="-76"/>
      <point x="101" y="-67" type="curve" smooth="yes"/>
      <point x="101" y="-12"/>
      <point x="137" y="39"/>
      <point x="158" y="75" type="curve"/>
      <point x="180" y="38"/>
      <point x="215" y="-12"/>
      <point x="215" y="-68" type="curve" smooth="yes"/>
      <point x="215" y="-77"/>
      <point x="209" y="-95"/>
      <point x="200" y="-95" type="curve" smooth="yes"/>
    </contour>
    <contour>
      <point x="309" y="-125" type="line" smooth="yes"/>
      <point x="315" y="-125"/>
      <point x="319" y="-120"/>
      <point x="319" y="-115" type="curve" smooth="yes"/>
      <point x="319" y="-113"/>
      <point x="318" y="-111"/>
      <point x="318" y="-110" type="curve"/>
      <point x="166" y="120" type="line"/>
      <point x="165" y="123"/>
      <point x="162" y="125"/>
      <point x="158" y="125" type="curve" smooth="yes"/>
      <point x="156" y="125"/>
      <point x="152" y="123"/>
      <point x="150" y="120" type="curve" smooth="yes"/>
      <point x="1" y="-110" type="line"/>
      <point x="1" y="-111"/>
      <point x="0" y="-113"/>
      <point x="0" y="-115" type="curve" smooth="yes"/>
      <point x="0" y="-120"/>
      <point x="4" y="-125"/>
      <point x="10" y="-125" type="curve" smooth="yes"/>
    </contour>
  </outline>
</glyph>
<glyph name="uniE0C3" format="2">
  <advance width="483"/>
  <unicode hex="E0C3"/>
  <outline>
    <contour>
      <point x="297" y="68" type="curve" smooth="yes"/>
      <point x="297" y="12"/>
      <point x="262" y="-37"/>
      <point x="240" y="-74" type="curve"/>
      <point x="219" y="-38"/>
      <point x="184" y="12"/>
      <point x="184" y="67" type="curve" smooth="yes"/>
      <point x="184" y="76"/>
      <point x="191" y="95"/>
      <point x="201" y="95" type="curve" smooth="yes"/>
      <point x="282" y="95" type="line" smooth="yes"/>
      <point x="291" y="95"/>
      <point x="297" y="77"/>
    </contour>
    <contour>
      <point x="22" y="-155" type="line" smooth="yes"/>
      <point x="28" y="-155"/>
      <point x="32" y="-151"/>
      <point x="32" y="-148" type="curve" smooth="yes"/>
      <point x="32" y="148" type="line" smooth="yes"/>
      <point x="32" y="152"/>
      <point x="28" y="155"/>
      <point x="22" y="155" type="curve" smooth="yes"/>
      <point x="10" y="155" type="line" smooth="yes"/>
      <point x="5" y="155"/>
      <point x="0" y="152"/>
      <point x="0" y="148" type="curve" smooth="yes"/>
      <point x="0" y="-148" type="line" smooth="yes"/>
      <point x="0" y="-151"/>
      <point x="5" y="-155"/>
      <point x="10" y="-155" type="curve" smooth="yes"/>
    </contour>
    <contour>
      <point x="430" y="148" type="line" smooth="yes"/>
      <point x="430" y="152"/>
      <point x="426" y="155"/>
      <point x="420" y="155" type="curve" smooth="yes"/>
      <point x="408" y="155" type="line" smooth="yes"/>
      <point x="403" y="155"/>
      <point x="398" y="152"/>
      <point x="398" y="148" type="curve" smooth="yes"/>
      <point x="398" y="121" type="line"/>
      <point x="396" y="123"/>
      <point x="393" y="125"/>
      <point x="390" y="125" type="curve" smooth="yes"/>
      <point x="93" y="125" type="line" smooth="yes"/>
      <point x="90" y="125"/>
      <point x="87" y="123"/>
      <point x="85" y="121" type="curve"/>
      <point x="85" y="148" type="line" smooth="yes"/>
      <point x="85" y="152"/>
      <point x="81" y="155"/>
      <point x="75" y="155" type="curve" smooth="yes"/>
      <point x="63" y="155" type="line" smooth="yes"/>
      <point x="58" y="155"/>
      <point x="53" y="152"/>
      <point x="53" y="148" type="curve" smooth="yes"/>
      <point x="53" y="-148" type="line" smooth="yes"/>
      <point x="53" y="-151"/>
      <point x="58" y="-155"/>
      <point x="63" y="-155" type="curve" smooth="yes"/>
      <point x="75" y="-155" type="line" smooth="yes"/>
      <point x="81" y="-155"/>
      <point x="85" y="-151"/>
      <point x="85" y="-148" type="curve" smooth="yes"/>
      <point x="85" y="107" type="line"/>
      <point x="232" y="-120" type="line" smooth="yes"/>
      <point x="234" y="-123"/>
      <point x="237" y="-125"/>
      <point x="240" y="-125" type="curve" smooth="yes"/>
      <point x="244" y="-125"/>
      <point x="246" y="-123"/>
      <point x="248" y="-120" type="curve" smooth="yes"/>
      <point x="398" y="107" type="line"/>
      <point x="398" y="-148" type="line" smooth="yes"/>
      <point x="398" y="-151"/>
      <point x="403" y="-155"/>
      <point x="408" y="-155" type="curve" smooth="yes"/>
      <point x="420" y="-155" type="line" smooth="yes"/>
      <point x="426" y="-155"/>
      <point x="430" y="-151"/>
      <point x="430" y="-148" type="curve" smooth="yes"/>
    </contour>
    <contour>
      <point x="483" y="148" type="line" smooth="yes"/>
      <point x="483" y="152"/>
      <point x="479" y="155"/>
      <point x="473" y="155" type="curve" smooth="yes"/>
      <point x="460" y="155" type="line" smooth="yes"/>
      <point x="455" y="155"/>
      <point x="450" y="152"/>
      <point x="450" y="148" type="curve" smooth="yes"/>
      <point x="450" y="-148" type="line" smooth="yes"/>
      <point x="450" y="-151"/>
      <point x="455" y="-155"/>
      <point x="460" y="-155" type="curve" smooth="yes"/>
      <point x="473" y="-155" type="line" smooth="yes"/>
      <point x="479" y="-155"/>
      <point x="483" y="-151"/>
      <point x="483" y="-148" type="curve" smooth="yes"/>
    </contour>
  </outline>
</glyph>
<glyph name="uniE0C4" format="2">
  <advance width="319"/>
  <unicode hex="E0C4"/>
  <outline>
    <contour>
      <point x="200" y="95" type="line" smooth="yes"/>
      <point x="209" y="95"/>
      <point x="215" y="77"/>
      <point x="215" y="68" type="curve" smooth="yes"/>
      <point x="215" y="12"/>
      <point x="180" y="-38"/>
      <point x="158" y="-75" type="curve"/>
      <point x="137" y="-39"/>
      <point x="101" y="12"/>
      <point x="101" y="67" type="curve" smooth="yes"/>
      <point x="101" y="76"/>
      <point x="109" y="95"/>
      <point x="118" y="95" type="curve" smooth="yes"/>
    </contour>
    <contour>
      <point x="10" y="125" type="line" smooth="yes"/>
      <point x="4" y="125"/>
      <point x="0" y="120"/>
      <point x="0" y="115" type="curve" smooth="yes"/>
      <point x="0" y="113"/>
      <point x="1" y="111"/>
      <point x="1" y="110" type="curve"/>
      <point x="150" y="-120" type="line" smooth="yes"/>
      <point x="152" y="-123"/>
      <point x="156" y="-125"/>
      <point x="158" y="-125" type="curve" smooth="yes"/>
      <point x="162" y="-125"/>
      <point x="165" y="-123"/>
      <point x="166" y="-120" type="curve"/>
      <point x="318" y="110" type="line"/>
      <point x="318" y="111"/>
      <point x="319" y="113"/>
      <point x="319" y="115" type="curve" smooth="yes"/>
      <point x="319" y="120"/>
      <point x="315" y="125"/>
      <point x="309" y="125" type="curve" smooth="yes"/>
    </contour>
  </outline>
</glyph>
<glyph name="uniE0CC" format="2">
  <advance width="278"/>
  <unicode hex="E0CC"/>
  <outline>
    <contour>
      <point x="39" y="70" type="line"/>
      <point x="70" y="88"/>
      <point x="104" y="97"/>
      <point x="138" y="97" type="curve" smooth="yes"/>
      <point x="172" y="97"/>
      <point x="207" y="88"/>
      <point x="239" y="70" type="curve"/>
      <point x="139" y="-76" type="line"/>
    </contour>
    <contour>
      <point x="278" y="78" type="line"/>
      <point x="266" y="86" type="line" smooth="yes"/>
      <point x="227" y="112"/>
      <point x="183" y="125"/>
      <point x="138" y="125" type="curve" smooth="yes"/>
      <point x="94" y="125"/>
      <point x="51" y="112"/>
      <point x="11" y="86" type="curve"/>
      <point x="0" y="78" type="line"/>
      <point x="139" y="-125" type="line"/>
    </contour>
  </outline>
</glyph>
<glyph name="uniE0CD" format="2">
  <advance width="278"/>
  <unicode hex="E0CD"/>
  <outline>
    <contour>
      <point x="139" y="-125" type="line"/>
      <point x="278" y="78" type="line"/>
      <point x="266" y="86" type="line" smooth="yes"/>
      <point x="227" y="112"/>
      <point x="183" y="125"/>
      <point x="138" y="125" type="curve" smooth="yes"/>
      <point x="94" y="125"/>
      <point x="51" y="112"/>
      <point x="11" y="86" type="curve"/>
      <point x="0" y="78" type="line"/>
    </contour>
  </outline>
</glyph>
<glyph name="uniE0CE" format="2">
  <advance width="295"/>
  <unicode hex="E0CE"/>
  <outline>
    <contour>
      <point x="36" y="-173" type="line"/>
      <point x="2" y="-147"/>
      <point x="-10" y="-132"/>
      <point x="-21" y="-100" type="curve" smooth="yes"/>
      <point x="-31" y="-71"/>
      <point x="-36" y="-39"/>
      <point x="-36" y="3" type="curve" smooth="yes"/>
      <point x="-36" y="82"/>
      <point x="-25" y="124"/>
      <point x="36" y="175" type="curve"/>
      <point x="32" y="182" type="line"/>
      <point x="-34" y="137"/>
      <point x="-73" y="86"/>
      <point x="-73" y="2" type="curve" smooth="yes"/>
      <point x="-73" y="-76"/>
      <point x="-33" y="-139"/>
      <point x="31" y="-180" type="curve"/>
    </contour>
    <contour>
      <point x="265" y="-180" type="line"/>
      <point x="329" y="-140"/>
      <point x="368" y="-75"/>
      <point x="368" y="2" type="curve" smooth="yes"/>
      <point x="368" y="85"/>
      <point x="329" y="139"/>
      <point x="263" y="182" type="curve"/>
      <point x="259" y="175" type="line"/>
      <point x="321" y="125"/>
      <point x="332" y="82"/>
      <point x="332" y="3" type="curve" smooth="yes"/>
      <point x="332" y="-39"/>
      <point x="327" y="-71"/>
      <point x="317" y="-100" type="curve" smooth="yes"/>
      <point x="305" y="-132"/>
      <point x="293" y="-147"/>
      <point x="259" y="-173" type="curve"/>
    </contour>
  </outline>
</glyph>
<glyph name="uniE0D4" format="2">
  <advance width="418"/>
  <unicode hex="E0D4"/>
  <outline>
    <contour>
      <point x="298" y="-76" type="line"/>
      <point x="291" y="-87"/>
      <point x="279" y="-94"/>
      <point x="265" y="-98" type="curve" smooth="yes"/>
      <point x="255" y="-100"/>
      <point x="244" y="-102"/>
      <point x="234" y="-102" type="curve" smooth="yes"/>
      <point x="227" y="-102"/>
      <point x="218" y="-100"/>
      <point x="209" y="-98" type="curve" smooth="yes"/>
      <point x="192" y="-93"/>
      <point x="176" y="-83"/>
      <point x="163" y="-72" type="curve" smooth="yes"/>
      <point x="155" y="-65"/>
      <point x="148" y="-57"/>
      <point x="141" y="-50" type="curve"/>
      <point x="123" y="-27"/>
      <point x="107" y="8"/>
      <point x="107" y="40" type="curve" smooth="yes"/>
      <point x="107" y="48" type="line"/>
    </contour>
    <contour>
      <point x="117" y="75" type="line"/>
      <point x="132" y="98"/>
      <point x="162" y="102"/>
      <point x="188" y="102" type="curve" smooth="yes"/>
      <point x="256" y="102"/>
      <point x="310" y="28"/>
      <point x="310" y="-33" type="curve" smooth="yes"/>
      <point x="310" y="-39"/>
      <point x="310" y="-44"/>
      <point x="309" y="-50" type="curve"/>
    </contour>
    <contour>
      <point x="369" y="-89" type="line"/>
      <point x="404" y="-67"/>
      <point x="418" y="-34"/>
      <point x="418" y="1" type="curve" smooth="yes"/>
      <point x="418" y="72"/>
      <point x="306" y="125"/>
      <point x="214" y="125" type="curve" smooth="yes"/>
      <point x="160" y="125"/>
      <point x="114" y="115"/>
      <point x="79" y="100" type="curve"/>
      <point x="3" y="149" type="line" smooth="yes"/>
      <point x="1" y="151"/>
      <point x="-2" y="151"/>
      <point x="-4" y="151" type="curve" smooth="yes"/>
      <point x="-9" y="151"/>
      <point x="-13" y="149"/>
      <point x="-15" y="145" type="curve" smooth="yes"/>
      <point x="-17" y="142"/>
      <point x="-18" y="139"/>
      <point x="-18" y="137" type="curve" smooth="yes"/>
      <point x="-18" y="133"/>
      <point x="-15" y="128"/>
      <point x="-11" y="126" type="curve" smooth="yes"/>
      <point x="52" y="84" type="line"/>
      <point x="19" y="63"/>
      <point x="0" y="34"/>
      <point x="0" y="1" type="curve" smooth="yes"/>
      <point x="0" y="-65"/>
      <point x="57" y="-125"/>
      <point x="204" y="-125" type="curve" smooth="yes"/>
      <point x="263" y="-125"/>
      <point x="308" y="-117"/>
      <point x="341" y="-104" type="curve"/>
      <point x="415" y="-152" type="line" smooth="yes"/>
      <point x="417" y="-154"/>
      <point x="420" y="-154"/>
      <point x="422" y="-154" type="curve" smooth="yes"/>
      <point x="427" y="-154"/>
      <point x="431" y="-152"/>
      <point x="433" y="-148" type="curve" smooth="yes"/>
      <point x="435" y="-145"/>
      <point x="436" y="-143"/>
      <point x="436" y="-140" type="curve" smooth="yes"/>
      <point x="436" y="-136"/>
      <point x="433" y="-131"/>
      <point x="429" y="-129" type="curve" smooth="yes"/>
    </contour>
  </outline>
</glyph>
<glyph name="uniE0D5" format="2">
  <advance width="596"/>
  <unicode hex="E0D5"/>
  <outline>
    <contour>
      <point x="196" y="39" type="curve" smooth="yes"/>
      <point x="196" y="47"/>
      <point x="197" y="55"/>
      <point x="198" y="62" type="curve"/>
      <point x="209" y="95"/>
      <point x="246" y="100"/>
      <point x="277" y="100" type="curve" smooth="yes"/>
      <point x="306" y="100"/>
      <point x="333" y="86"/>
      <point x="354" y="66" type="curve"/>
      <point x="227" y="-47" type="line"/>
      <point x="209" y="-24"/>
      <point x="196" y="9"/>
    </contour>
    <contour>
      <point x="397" y="-50" type="curve" smooth="yes"/>
      <point x="392" y="-75"/>
      <point x="378" y="-92"/>
      <point x="353" y="-98" type="curve"/>
      <point x="344" y="-101"/>
      <point x="334" y="-102"/>
      <point x="324" y="-102" type="curve" smooth="yes"/>
      <point x="297" y="-102"/>
      <point x="270" y="-89"/>
      <point x="250" y="-72" type="curve"/>
      <point x="247" y="-68" type="line"/>
      <point x="373" y="44" type="line"/>
      <point x="389" y="21"/>
      <point x="399" y="-6"/>
      <point x="399" y="-32" type="curve" smooth="yes"/>
      <point x="399" y="-38"/>
      <point x="398" y="-45"/>
    </contour>
    <contour>
      <point x="9" y="155" type="line" smooth="yes"/>
      <point x="4" y="155"/>
      <point x="0" y="151"/>
      <point x="0" y="147" type="curve" smooth="yes"/>
      <point x="0" y="-149" type="line" smooth="yes"/>
      <point x="0" y="-152"/>
      <point x="4" y="-155"/>
      <point x="9" y="-155" type="curve" smooth="yes"/>
      <point x="22" y="-155" type="line" smooth="yes"/>
      <point x="27" y="-155"/>
      <point x="31" y="-152"/>
      <point x="31" y="-149" type="curve" smooth="yes"/>
      <point x="31" y="147" type="line" smooth="yes"/>
      <point x="31" y="151"/>
      <point x="27" y="155"/>
      <point x="22" y="155" type="curve" smooth="yes"/>
    </contour>
    <contour>
      <point x="66" y="155" type="line" smooth="yes"/>
      <point x="61" y="155"/>
      <point x="57" y="151"/>
      <point x="57" y="147" type="curve" smooth="yes"/>
      <point x="57" y="-149" type="line" smooth="yes"/>
      <point x="57" y="-152"/>
      <point x="61" y="-155"/>
      <point x="66" y="-155" type="curve" smooth="yes"/>
      <point x="79" y="-155" type="line" smooth="yes"/>
      <point x="84" y="-155"/>
      <point x="88" y="-152"/>
      <point x="88" y="-149" type="curve" smooth="yes"/>
      <point x="88" y="147" type="line" smooth="yes"/>
      <point x="88" y="151"/>
      <point x="84" y="155"/>
      <point x="79" y="155" type="curve" smooth="yes"/>
    </contour>
    <contour>
      <point x="484" y="143" type="line" smooth="yes"/>
      <point x="488" y="146"/>
      <point x="489" y="150"/>
      <point x="489" y="154" type="curve" smooth="yes"/>
      <point x="489" y="157"/>
      <point x="488" y="161"/>
      <point x="485" y="164" type="curve" smooth="yes"/>
      <point x="482" y="166"/>
      <point x="478" y="168"/>
      <point x="474" y="168" type="curve" smooth="yes"/>
      <point x="470" y="168"/>
      <point x="468" y="167"/>
      <point x="465" y="165" type="curve" smooth="yes"/>
      <point x="399" y="106" type="line"/>
      <point x="369" y="117"/>
      <point x="334" y="125"/>
      <point x="302" y="125" type="curve" smooth="yes"/>
      <point x="171" y="125"/>
      <point x="89" y="68"/>
      <point x="89" y="0" type="curve" smooth="yes"/>
      <point x="89" y="-40"/>
      <point x="111" y="-79"/>
      <point x="164" y="-103" type="curve"/>
      <point x="106" y="-154" type="line" smooth="yes"/>
      <point x="103" y="-157"/>
      <point x="101" y="-161"/>
      <point x="101" y="-165" type="curve" smooth="yes"/>
      <point x="101" y="-168"/>
      <point x="103" y="-172"/>
      <point x="105" y="-175" type="curve" smooth="yes"/>
      <point x="108" y="-178"/>
      <point x="112" y="-179"/>
      <point x="116" y="-179" type="curve" smooth="yes"/>
      <point x="119" y="-179"/>
      <point x="123" y="-178"/>
      <point x="126" y="-176" type="curve" smooth="yes"/>
      <point x="196" y="-114" type="line"/>
      <point x="222" y="-120"/>
      <point x="254" y="-125"/>
      <point x="292" y="-125" type="curve" smooth="yes"/>
      <point x="454" y="-125"/>
      <point x="506" y="-68"/>
      <point x="506" y="0" type="curve" smooth="yes"/>
      <point x="506" y="38"/>
      <point x="473" y="72"/>
      <point x="429" y="94" type="curve"/>
    </contour>
    <contour>
      <point x="516" y="155" type="line" smooth="yes"/>
      <point x="511" y="155"/>
      <point x="507" y="151"/>
      <point x="507" y="147" type="curve" smooth="yes"/>
      <point x="507" y="-149" type="line" smooth="yes"/>
      <point x="507" y="-152"/>
      <point x="511" y="-155"/>
      <point x="516" y="-155" type="curve" smooth="yes"/>
      <point x="530" y="-155" type="line" smooth="yes"/>
      <point x="534" y="-155"/>
      <point x="539" y="-152"/>
      <point x="539" y="-149" type="curve" smooth="yes"/>
      <point x="539" y="147" type="line" smooth="yes"/>
      <point x="539" y="151"/>
      <point x="534" y="155"/>
      <point x="530" y="155" type="curve" smooth="yes"/>
    </contour>
    <contour>
      <point x="573" y="155" type="line" smooth="yes"/>
      <point x="569" y="155"/>
      <point x="563" y="151"/>
      <point x="563" y="147" type="curve" smooth="yes"/>
      <point x="563" y="-149" type="line" smooth="yes"/>
      <point x="563" y="-152"/>
      <point x="569" y="-155"/>
      <point x="573" y="-155" type="curve" smooth="yes"/>
      <point x="586" y="-155" type="line" smooth="yes"/>
      <point x="591" y="-155"/>
      <point x="596" y="-152"/>
      <point x="596" y="-149" type="curve" smooth="yes"/>
      <point x="596" y="147" type="line" smooth="yes"/>
      <point x="596" y="151"/>
      <point x="591" y="155"/>
      <point x="586" y="155" type="curve" smooth="yes"/>
    </contour>
  </outline>
</glyph>
<glyph name="uniE0D6" format="2">
  <advance width="596"/>
  <unicode hex="E0D6"/>
  <outline>
    <contour>
      <point x="353" y="-98" type="line"/>
      <point x="344" y="-101"/>
      <point x="334" y="-102"/>
      <point x="324" y="-102" type="curve" smooth="yes"/>
      <point x="297" y="-102"/>
      <point x="270" y="-89"/>
      <point x="250" y="-72" type="curve" smooth="yes"/>
      <point x="243" y="-66"/>
      <point x="236" y="-57"/>
      <point x="229" y="-50" type="curve"/>
      <point x="211" y="-26"/>
      <point x="196" y="7"/>
      <point x="196" y="39" type="curve" smooth="yes"/>
      <point x="196" y="47"/>
      <point x="197" y="55"/>
      <point x="198" y="62" type="curve"/>
      <point x="199" y="62"/>
      <point x="211" y="52"/>
      <point x="372" y="-90" type="curve"/>
    </contour>
    <contour>
      <point x="217" y="86" type="line"/>
      <point x="233" y="98"/>
      <point x="256" y="100"/>
      <point x="277" y="100" type="curve" smooth="yes"/>
      <point x="344" y="100"/>
      <point x="399" y="28"/>
      <point x="399" y="-32" type="curve" smooth="yes"/>
      <point x="399" y="-45"/>
      <point x="396" y="-56"/>
      <point x="391" y="-68" type="curve"/>
    </contour>
    <contour>
      <point x="9" y="155" type="line" smooth="yes"/>
      <point x="4" y="155"/>
      <point x="0" y="151"/>
      <point x="0" y="148" type="curve" smooth="yes"/>
      <point x="0" y="-148" type="line" smooth="yes"/>
      <point x="0" y="-152"/>
      <point x="4" y="-155"/>
      <point x="9" y="-155" type="curve" smooth="yes"/>
      <point x="22" y="-155" type="line" smooth="yes"/>
      <point x="27" y="-155"/>
      <point x="31" y="-152"/>
      <point x="31" y="-148" type="curve" smooth="yes"/>
      <point x="31" y="148" type="line" smooth="yes"/>
      <point x="31" y="151"/>
      <point x="27" y="155"/>
      <point x="22" y="155" type="curve" smooth="yes"/>
    </contour>
    <contour>
      <point x="66" y="155" type="line" smooth="yes"/>
      <point x="61" y="155"/>
      <point x="57" y="151"/>
      <point x="57" y="148" type="curve" smooth="yes"/>
      <point x="57" y="-148" type="line" smooth="yes"/>
      <point x="57" y="-152"/>
      <point x="61" y="-155"/>
      <point x="66" y="-155" type="curve" smooth="yes"/>
      <point x="79" y="-155" type="line" smooth="yes"/>
      <point x="84" y="-155"/>
      <point x="88" y="-152"/>
      <point x="88" y="-148" type="curve" smooth="yes"/>
      <point x="88" y="148" type="line" smooth="yes"/>
      <point x="88" y="151"/>
      <point x="84" y="155"/>
      <point x="79" y="155" type="curve" smooth="yes"/>
    </contour>
    <contour>
      <point x="506" y="0" type="curve" smooth="yes"/>
      <point x="506" y="71"/>
      <point x="395" y="125"/>
      <point x="302" y="125" type="curve" smooth="yes"/>
      <point x="260" y="125"/>
      <point x="223" y="118"/>
      <point x="193" y="108" type="curve"/>
      <point x="128" y="166" type="line" smooth="yes"/>
      <point x="126" y="168"/>
      <point x="122" y="169"/>
      <point x="118" y="169" type="curve" smooth="yes"/>
      <point x="115" y="169"/>
      <point x="110" y="167"/>
      <point x="107" y="165" type="curve"/>
      <point x="105" y="162"/>
      <point x="104" y="158"/>
      <point x="104" y="155" type="curve" smooth="yes"/>
      <point x="104" y="151"/>
      <point x="106" y="147"/>
      <point x="108" y="144" type="curve"/>
      <point x="162" y="96" type="line"/>
      <point x="116" y="74"/>
      <point x="89" y="39"/>
      <point x="89" y="0" type="curve" smooth="yes"/>
      <point x="89" y="-65"/>
      <point x="146" y="-125"/>
      <point x="292" y="-125" type="curve" smooth="yes"/>
      <point x="335" y="-125"/>
      <point x="370" y="-121"/>
      <point x="399" y="-114" type="curve"/>
      <point x="467" y="-175" type="line" smooth="yes"/>
      <point x="470" y="-177"/>
      <point x="473" y="-178"/>
      <point x="477" y="-178" type="curve" smooth="yes"/>
      <point x="480" y="-178"/>
      <point x="485" y="-177"/>
      <point x="488" y="-174" type="curve" smooth="yes"/>
      <point x="490" y="-171"/>
      <point x="491" y="-167"/>
      <point x="491" y="-164" type="curve" smooth="yes"/>
      <point x="491" y="-160"/>
      <point x="490" y="-156"/>
      <point x="487" y="-153" type="curve" smooth="yes"/>
      <point x="430" y="-104" type="line"/>
      <point x="486" y="-81"/>
      <point x="506" y="-43"/>
    </contour>
    <contour>
      <point x="516" y="155" type="line" smooth="yes"/>
      <point x="511" y="155"/>
      <point x="507" y="151"/>
      <point x="507" y="148" type="curve" smooth="yes"/>
      <point x="507" y="-148" type="line" smooth="yes"/>
      <point x="507" y="-152"/>
      <point x="511" y="-155"/>
      <point x="516" y="-155" type="curve" smooth="yes"/>
      <point x="530" y="-155" type="line" smooth="yes"/>
      <point x="534" y="-155"/>
      <point x="539" y="-152"/>
      <point x="539" y="-148" type="curve" smooth="yes"/>
      <point x="539" y="148" type="line" smooth="yes"/>
      <point x="539" y="151"/>
      <point x="534" y="155"/>
      <point x="530" y="155" type="curve" smooth="yes"/>
    </contour>
    <contour>
      <point x="573" y="155" type="line" smooth="yes"/>
      <point x="569" y="155"/>
      <point x="563" y="151"/>
      <point x="563" y="148" type="curve" smooth="yes"/>
      <point x="563" y="-148" type="line" smooth="yes"/>
      <point x="563" y="-152"/>
      <point x="569" y="-155"/>
      <point x="573" y="-155" type="curve" smooth="yes"/>
      <point x="586" y="-155" type="line" smooth="yes"/>
      <point x="591" y="-155"/>
      <point x="596" y="-152"/>
      <point x="596" y="-148" type="curve" smooth="yes"/>
      <point x="596" y="148" type="line" smooth="yes"/>
      <point x="596" y="151"/>
      <point x="591" y="155"/>
      <point x="586" y="155" type="curve" smooth="yes"/>
    </contour>
  </outline>
</glyph>
<glyph name="uniE0D7" format="2">
  <advance width="428"/>
  <unicode hex="E0D7"/>
  <outline>
    <contour>
      <point x="242.45" y="-95.72" type="curve" smooth="yes"/>
      <point x="287.5" y="-43.36" type="line" smooth="yes"/>
      <point x="290.59" y="-39.7686"/>
      <point x="291.697" y="-32.8998"/>
      <point x="291.697" y="-26.1156" type="curve" smooth="yes"/>
      <point x="291.697" y="-17.6354"/>
      <point x="289.861" y="-9.11445"/>
      <point x="287.5" y="-6.46995" type="curve"/>
      <point x="276.45" y="4.24004"/>
      <point x="262.092" y="19.8608"/>
      <point x="243.3" y="42.32" type="curve" smooth="yes"/>
      <point x="227.242" y="61.5116"/>
      <point x="211.85" y="81.59"/>
      <point x="203.35" y="93.49" type="curve" smooth="yes"/>
      <point x="200.8" y="97.06"/>
      <point x="190.6" y="98.25"/>
      <point x="187.2" y="93.49" type="curve"/>
      <point x="139.6" y="38.7501" type="line"/>
      <point x="133.65" y="32.8"/>
      <point x="134.5" y="11.38"/>
      <point x="138.75" y="7.81006" type="curve"/>
      <point x="148.95" y="-2.9"/>
      <point x="165.1" y="-19.56"/>
      <point x="185.5" y="-44.5499" type="curve"/>
      <point x="199.95" y="-61.2099"/>
      <point x="213.55" y="-79.06"/>
      <point x="222.9" y="-90.96" type="curve"/>
      <point x="227.15" y="-98.1"/>
      <point x="238.262" y="-100.587"/>
    </contour>
    <contour>
      <point x="63.9499" y="4.24" type="curve"/>
      <point x="216.95" y="185.12" type="line"/>
      <point x="216.95" y="185.12"/>
      <point x="259.444" y="123.23"/>
      <point x="285.8" y="92.3" type="curve" smooth="yes"/>
      <point x="317.244" y="55.3997"/>
      <point x="353.8" y="20.9"/>
      <point x="367.4" y="7.80993" type="curve"/>
      <point x="371.65" y="3.04999"/>
      <point x="370.8" y="1.85999"/>
      <point x="369.1" y="-1.71001" type="curve"/>
      <point x="211.85" y="-186.16" type="line"/>
      <point x="211.85" y="-186.16"/>
      <point x="169.42" y="-124.163"/>
      <point x="143" y="-93.34" type="curve" smooth="yes"/>
      <point x="113.32" y="-58.7128"/>
      <point x="78.4" y="-23.13"/>
      <point x="63.1" y="-11.23" type="curve"/>
      <point x="58" y="-5.28001"/>
      <point x="58" y="-1.71"/>
    </contour>
    <contour>
      <point x="0" y="-120" type="line" smooth="yes"/>
      <point x="0" y="-138"/>
      <point x="-2" y="-146"/>
      <point x="-15" y="-146" type="curve" smooth="yes"/>
      <point x="-29" y="-146"/>
      <point x="-31" y="-138"/>
      <point x="-31" y="-122" type="curve" smooth="yes"/>
      <point x="-31" y="119" type="line" smooth="yes"/>
      <point x="-31" y="137"/>
      <point x="-28" y="144"/>
      <point x="-14" y="144" type="curve" smooth="yes"/>
      <point x="-1" y="144"/>
      <point x="0" y="136"/>
      <point x="0" y="121" type="curve" smooth="yes"/>
    </contour>
    <contour>
      <point x="60" y="-120" type="line" smooth="yes"/>
      <point x="60" y="-138"/>
      <point x="58" y="-146"/>
      <point x="45" y="-146" type="curve" smooth="yes"/>
      <point x="31" y="-146"/>
      <point x="29" y="-138"/>
      <point x="29" y="-122" type="curve" smooth="yes"/>
      <point x="29" y="119" type="line" smooth="yes"/>
      <point x="29" y="137"/>
      <point x="32" y="144"/>
      <point x="46" y="144" type="curve" smooth="yes"/>
      <point x="59" y="144"/>
      <point x="60" y="136"/>
      <point x="60" y="121" type="curve" smooth="yes"/>
    </contour>
    <contour>
      <point x="400" y="-120" type="line" smooth="yes"/>
      <point x="400" y="-138"/>
      <point x="398" y="-146"/>
      <point x="385" y="-146" type="curve" smooth="yes"/>
      <point x="371" y="-146"/>
      <point x="369" y="-138"/>
      <point x="369" y="-122" type="curve" smooth="yes"/>
      <point x="369" y="119" type="line" smooth="yes"/>
      <point x="369" y="137"/>
      <point x="372" y="144"/>
      <point x="386" y="144" type="curve" smooth="yes"/>
      <point x="399" y="144"/>
      <point x="400" y="136"/>
      <point x="400" y="121" type="curve" smooth="yes"/>
    </contour>
    <contour>
      <point x="460" y="-120" type="line" smooth="yes"/>
      <point x="460" y="-138"/>
      <point x="458" y="-146"/>
      <point x="445" y="-146" type="curve" smooth="yes"/>
      <point x="431" y="-146"/>
      <point x="429" y="-138"/>
      <point x="429" y="-122" type="curve" smooth="yes"/>
      <point x="429" y="119" type="line" smooth="yes"/>
      <point x="429" y="137"/>
      <point x="432" y="144"/>
      <point x="446" y="144" type="curve" smooth="yes"/>
      <point x="459" y="144"/>
      <point x="460" y="136"/>
      <point x="460" y="121" type="curve" smooth="yes"/>
    </contour>
  </outline>
</glyph>
<glyph name="uniE0DF" format="2">
  <advance width="428"/>
  <unicode hex="E0DF"/>
  <outline>
    <contour>
      <point x="242" y="-96" type="curve"/>
      <point x="287" y="-43" type="line"/>
      <point x="290" y="-39"/>
      <point x="292" y="-33"/>
      <point x="292" y="-26" type="curve" smooth="yes"/>
      <point x="292" y="-18"/>
      <point x="289" y="-9"/>
      <point x="287" y="-6" type="curve"/>
      <point x="276" y="5"/>
      <point x="262" y="20"/>
      <point x="243" y="42" type="curve" smooth="yes"/>
      <point x="227" y="61"/>
      <point x="212" y="81"/>
      <point x="203" y="93" type="curve" smooth="yes"/>
      <point x="200" y="97"/>
      <point x="190" y="98"/>
      <point x="187" y="93" type="curve"/>
      <point x="140" y="39" type="line"/>
      <point x="134" y="33"/>
      <point x="135" y="12"/>
      <point x="139" y="8" type="curve"/>
      <point x="149" y="-3"/>
      <point x="165" y="-20"/>
      <point x="185" y="-45" type="curve"/>
      <point x="199" y="-62"/>
      <point x="214" y="-79"/>
      <point x="223" y="-91" type="curve"/>
      <point x="227" y="-98"/>
      <point x="238" y="-101"/>
    </contour>
    <contour>
      <point x="64" y="4" type="curve"/>
      <point x="217" y="185" type="line"/>
      <point x="217" y="185"/>
      <point x="260" y="123"/>
      <point x="286" y="92" type="curve" smooth="yes"/>
      <point x="317" y="55"/>
      <point x="353" y="21"/>
      <point x="367" y="8" type="curve"/>
      <point x="371" y="3"/>
      <point x="371" y="2"/>
      <point x="369" y="-2" type="curve"/>
      <point x="212" y="-186" type="line"/>
      <point x="212" y="-186"/>
      <point x="169" y="-124"/>
      <point x="143" y="-93" type="curve" smooth="yes"/>
      <point x="113" y="-58"/>
      <point x="78" y="-23"/>
      <point x="63" y="-11" type="curve"/>
      <point x="58" y="-5"/>
      <point x="58" y="-2"/>
    </contour>
    <contour>
      <point x="0" y="-120" type="line" smooth="yes"/>
      <point x="0" y="-138"/>
      <point x="-2" y="-146"/>
      <point x="-15" y="-146" type="curve" smooth="yes"/>
      <point x="-29" y="-146"/>
      <point x="-31" y="-138"/>
      <point x="-31" y="-122" type="curve" smooth="yes"/>
      <point x="-31" y="119" type="line" smooth="yes"/>
      <point x="-31" y="137"/>
      <point x="-28" y="144"/>
      <point x="-14" y="144" type="curve" smooth="yes"/>
      <point x="-1" y="144"/>
      <point x="0" y="136"/>
      <point x="0" y="121" type="curve" smooth="yes"/>
    </contour>
    <contour>
      <point x="60" y="-120" type="line" smooth="yes"/>
      <point x="60" y="-138"/>
      <point x="58" y="-146"/>
      <point x="45" y="-146" type="curve" smooth="yes"/>
      <point x="31" y="-146"/>
      <point x="29" y="-138"/>
      <point x="29" y="-122" type="curve" smooth="yes"/>
      <point x="29" y="119" type="line" smooth="yes"/>
      <point x="29" y="137"/>
      <point x="32" y="144"/>
      <point x="46" y="144" type="curve" smooth="yes"/>
      <point x="59" y="144"/>
      <point x="60" y="136"/>
      <point x="60" y="121" type="curve" smooth="yes"/>
    </contour>
    <contour>
      <point x="400" y="-120" type="line" smooth="yes"/>
      <point x="400" y="-138"/>
      <point x="398" y="-146"/>
      <point x="385" y="-146" type="curve" smooth="yes"/>
      <point x="371" y="-146"/>
      <point x="369" y="-138"/>
      <point x="369" y="-122" type="curve" smooth="yes"/>
      <point x="369" y="119" type="line" smooth="yes"/>
      <point x="369" y="137"/>
      <point x="372" y="144"/>
      <point x="386" y="144" type="curve" smooth="yes"/>
      <point x="399" y="144"/>
      <point x="400" y="136"/>
      <point x="400" y="121" type="curve" smooth="yes"/>
    </contour>
    <contour>
      <point x="460" y="-120" type="line" smooth="yes"/>
      <point x="460" y="-138"/>
      <point x="458" y="-146"/>
      <point x="445" y="-146" type="curve" smooth="yes"/>
      <point x="431" y="-146"/>
      <point x="429" y="-138"/>
      <point x="429" y="-122" type="curve" smooth="yes"/>
      <point x="429" y="119" type="line" smooth="yes"/>
      <point x="429" y="137"/>
      <point x="432" y="144"/>
      <point x="446" y="144" type="curve" smooth="yes"/>
      <point x="459" y="144"/>
      <point x="460" y="136"/>
      <point x="460" y="121" type="curve" smooth="yes"/>
    </contour>
  </outline>
</glyph>
<glyph name="uniE0E3" format="2">
  <advance width="289"/>
  <unicode hex="E0E3"/>
  <outline>
    <contour>
      <point x="144" y="62" type="line"/>
      <point x="165" y="54"/>
      <point x="216" y="14"/>
      <point x="216" y="-10" type="curve" smooth="yes"/>
      <point x="216" y="-30"/>
      <point x="183" y="-57"/>
      <point x="164" y="-57" type="curve" smooth="yes"/>
      <point x="158" y="-57"/>
      <point x="151" y="-55"/>
      <point x="144" y="-51" type="curve"/>
    </contour>
    <contour>
      <point x="129" y="107" type="curve" smooth="yes"/>
      <point x="116" y="84"/>
      <point x="96" y="65"/>
      <point x="73" y="48" type="curve" smooth="yes"/>
      <point x="63" y="40"/>
      <point x="51" y="33"/>
      <point x="41" y="26" type="curve" smooth="yes"/>
      <point x="32" y="20"/>
      <point x="22" y="16"/>
      <point x="13" y="11" type="curve" smooth="yes"/>
      <point x="5" y="7"/>
      <point x="0" y="4"/>
      <point x="0" y="-1" type="curve" smooth="yes"/>
      <point x="0" y="-4"/>
      <point x="5" y="-9"/>
      <point x="12" y="-12" type="curve" smooth="yes"/>
      <point x="57" y="-34"/>
      <point x="103" y="-75"/>
      <point x="129" y="-114" type="curve" smooth="yes"/>
      <point x="134" y="-121"/>
      <point x="139" y="-125"/>
      <point x="144" y="-125" type="curve" smooth="yes"/>
      <point x="149" y="-125"/>
      <point x="152" y="-121"/>
      <point x="157" y="-114" type="curve" smooth="yes"/>
      <point x="162" y="-105"/>
      <point x="210" y="-62"/>
      <point x="219" y="-52" type="curve" smooth="yes"/>
      <point x="229" y="-42"/>
      <point x="260" y="-24"/>
      <point x="275" y="-16" type="curve" smooth="yes"/>
      <point x="284" y="-11"/>
      <point x="289" y="-8"/>
      <point x="289" y="-4" type="curve" smooth="yes"/>
      <point x="289" y="1"/>
      <point x="284" y="5"/>
      <point x="275" y="11" type="curve" smooth="yes"/>
      <point x="225" y="41" type="line"/>
      <point x="200" y="59"/>
      <point x="179" y="83"/>
      <point x="162" y="107" type="curve"/>
      <point x="156" y="119"/>
      <point x="151" y="125"/>
      <point x="145" y="125" type="curve" smooth="yes"/>
      <point x="141" y="125"/>
      <point x="136" y="119"/>
    </contour>
  </outline>
</glyph>
<glyph name="uniE0E7" format="2">
  <advance width="603"/>
  <unicode hex="E0E7"/>
  <outline>
    <contour>
      <point x="403" y="-32" type="curve" smooth="yes"/>
      <point x="403" y="-63"/>
      <point x="390" y="-91"/>
      <point x="357" y="-99" type="curve"/>
      <point x="348" y="-102"/>
      <point x="338" y="-103"/>
      <point x="328" y="-103" type="curve" smooth="yes"/>
      <point x="301" y="-103"/>
      <point x="274" y="-91"/>
      <point x="253" y="-73" type="curve"/>
      <point x="232" y="-51" type="line"/>
      <point x="213" y="-27"/>
      <point x="198" y="7"/>
      <point x="198" y="40" type="curve" smooth="yes"/>
      <point x="198" y="48"/>
      <point x="199" y="55"/>
      <point x="201" y="63" type="curve" smooth="yes"/>
      <point x="212" y="97"/>
      <point x="248" y="101"/>
      <point x="280" y="101" type="curve" smooth="yes"/>
      <point x="348" y="101"/>
      <point x="403" y="29"/>
    </contour>
    <contour>
      <point x="302" y="190" type="curve" smooth="yes"/>
      <point x="386" y="190"/>
      <point x="459" y="135"/>
      <point x="485" y="59" type="curve"/>
      <point x="445" y="99"/>
      <point x="371" y="125"/>
      <point x="305" y="125" type="curve" smooth="yes"/>
      <point x="222" y="125"/>
      <point x="158" y="103"/>
      <point x="122" y="69" type="curve"/>
      <point x="151" y="141"/>
      <point x="221" y="190"/>
    </contour>
    <contour>
      <point x="302" y="-196" type="curve" smooth="yes"/>
      <point x="221" y="-196"/>
      <point x="151" y="-145"/>
      <point x="122" y="-75" type="curve"/>
      <point x="154" y="-105"/>
      <point x="209" y="-125"/>
      <point x="295" y="-125" type="curve" smooth="yes"/>
      <point x="391" y="-125"/>
      <point x="449" y="-106"/>
      <point x="480" y="-76" type="curve"/>
      <point x="452" y="-146"/>
      <point x="382" y="-196"/>
    </contour>
    <contour>
      <point x="9" y="155" type="line" smooth="yes"/>
      <point x="4" y="155"/>
      <point x="0" y="152"/>
      <point x="0" y="148" type="curve" smooth="yes"/>
      <point x="0" y="-149" type="line" smooth="yes"/>
      <point x="0" y="-153"/>
      <point x="4" y="-155"/>
      <point x="9" y="-155" type="curve" smooth="yes"/>
      <point x="22" y="-155" type="line" smooth="yes"/>
      <point x="28" y="-155"/>
      <point x="31" y="-153"/>
      <point x="31" y="-149" type="curve" smooth="yes"/>
      <point x="31" y="148" type="line" smooth="yes"/>
      <point x="31" y="152"/>
      <point x="28" y="155"/>
      <point x="22" y="155" type="curve" smooth="yes"/>
    </contour>
    <contour>
      <point x="522" y="155" type="line" smooth="yes"/>
      <point x="517" y="155"/>
      <point x="512" y="152"/>
      <point x="512" y="148" type="curve" smooth="yes"/>
      <point x="512" y="41" type="line"/>
      <point x="493" y="141"/>
      <point x="404" y="213"/>
      <point x="302" y="213" type="curve" smooth="yes"/>
      <point x="195" y="213"/>
      <point x="108" y="137"/>
      <point x="89" y="33" type="curve"/>
      <point x="89" y="148" type="line" smooth="yes"/>
      <point x="89" y="152"/>
      <point x="85" y="155"/>
      <point x="80" y="155" type="curve" smooth="yes"/>
      <point x="67" y="155" type="line" smooth="yes"/>
      <point x="62" y="155"/>
      <point x="58" y="152"/>
      <point x="58" y="148" type="curve" smooth="yes"/>
      <point x="58" y="-149" type="line" smooth="yes"/>
      <point x="58" y="-153"/>
      <point x="62" y="-155"/>
      <point x="67" y="-155" type="curve" smooth="yes"/>
      <point x="80" y="-155" type="line" smooth="yes"/>
      <point x="85" y="-155"/>
      <point x="89" y="-153"/>
      <point x="89" y="-149" type="curve" smooth="yes"/>
      <point x="89" y="-39" type="line"/>
      <point x="108" y="-143"/>
      <point x="196" y="-218"/>
      <point x="302" y="-218" type="curve" smooth="yes"/>
      <point x="359" y="-218"/>
      <point x="413" y="-196"/>
      <point x="454" y="-155" type="curve" smooth="yes"/>
      <point x="484" y="-125"/>
      <point x="504" y="-87"/>
      <point x="512" y="-46" type="curve"/>
      <point x="512" y="-149" type="line" smooth="yes"/>
      <point x="512" y="-153"/>
      <point x="517" y="-155"/>
      <point x="522" y="-155" type="curve" smooth="yes"/>
      <point x="535" y="-155" type="line" smooth="yes"/>
      <point x="540" y="-155"/>
      <point x="545" y="-153"/>
      <point x="545" y="-149" type="curve" smooth="yes"/>
      <point x="545" y="148" type="line" smooth="yes"/>
      <point x="545" y="152"/>
      <point x="540" y="155"/>
      <point x="535" y="155" type="curve" smooth="yes"/>
    </contour>
    <contour>
      <point x="580" y="155" type="line" smooth="yes"/>
      <point x="575" y="155"/>
      <point x="569" y="152"/>
      <point x="569" y="148" type="curve" smooth="yes"/>
      <point x="569" y="-149" type="line" smooth="yes"/>
      <point x="569" y="-153"/>
      <point x="575" y="-155"/>
      <point x="580" y="-155" type="curve" smooth="yes"/>
      <point x="592" y="-155" type="line" smooth="yes"/>
      <point x="598" y="-155"/>
      <point x="603" y="-153"/>
      <point x="603" y="-149" type="curve" smooth="yes"/>
      <point x="603" y="148" type="line" smooth="yes"/>
      <point x="603" y="152"/>
      <point x="598" y="155"/>
      <point x="592" y="155" type="curve" smooth="yes"/>
    </contour>
  </outline>
</glyph>
<glyph name="uniE0EB" format="2">
  <advance width="554"/>
  <unicode hex="E0EB"/>
  <outline>
    <contour>
      <point x="76" y="-126" type="line"/>
      <point x="62" y="-114"/>
      <point x="53" y="-102"/>
      <point x="44" y="-87" type="curve"/>
      <point x="32" y="-64"/>
      <point x="25" y="-34"/>
      <point x="25" y="-1" type="curve" smooth="yes"/>
      <point x="25" y="53"/>
      <point x="42" y="96"/>
      <point x="76" y="128" type="curve"/>
    </contour>
    <contour>
      <point x="125" y="125" type="line" smooth="yes"/>
      <point x="117" y="125"/>
      <point x="105" y="133"/>
      <point x="104" y="150" type="curve"/>
      <point x="147" y="177"/>
      <point x="206" y="191"/>
      <point x="277" y="191" type="curve" smooth="yes"/>
      <point x="348" y="191"/>
      <point x="407" y="177"/>
      <point x="449" y="150" type="curve"/>
      <point x="448" y="133"/>
      <point x="434" y="125"/>
      <point x="424" y="125" type="curve" smooth="yes"/>
    </contour>
    <contour>
      <point x="105" y="-147" type="curve"/>
      <point x="109" y="-137"/>
      <point x="120" y="-124"/>
      <point x="128" y="-124" type="curve" smooth="yes"/>
      <point x="191" y="-124"/>
      <point x="348" y="-125"/>
      <point x="424" y="-125" type="curve" smooth="yes"/>
      <point x="437" y="-125"/>
      <point x="448" y="-137"/>
      <point x="449" y="-146" type="curve"/>
      <point x="409" y="-170"/>
      <point x="350" y="-182"/>
      <point x="277" y="-182" type="curve" smooth="yes"/>
      <point x="205" y="-182"/>
      <point x="147" y="-170"/>
    </contour>
    <contour>
      <point x="104" y="16" type="line" smooth="yes"/>
      <point x="104" y="41"/>
      <point x="121" y="45"/>
      <point x="163" y="45" type="curve" smooth="yes"/>
      <point x="390" y="45" type="line" smooth="yes"/>
      <point x="426" y="45"/>
      <point x="450" y="32"/>
      <point x="450" y="13" type="curve" smooth="yes"/>
      <point x="450" y="-12" type="line" smooth="yes"/>
      <point x="450" y="-38"/>
      <point x="425" y="-49"/>
      <point x="390" y="-49" type="curve" smooth="yes"/>
      <point x="168" y="-49" type="line" smooth="yes"/>
      <point x="128" y="-49"/>
      <point x="104" y="-34"/>
      <point x="104" y="-12" type="curve" smooth="yes"/>
    </contour>
    <contour>
      <point x="479" y="128" type="line"/>
      <point x="512" y="96"/>
      <point x="529" y="53"/>
      <point x="529" y="-1" type="curve" smooth="yes"/>
      <point x="529" y="-54"/>
      <point x="516" y="-89"/>
      <point x="479" y="-126" type="curve"/>
    </contour>
    <contour>
      <point x="479" y="177" type="line" smooth="yes"/>
      <point x="479" y="185"/>
      <point x="473" y="191"/>
      <point x="465" y="191" type="curve" smooth="yes"/>
      <point x="457" y="191"/>
      <point x="451" y="186"/>
      <point x="450" y="178" type="curve"/>
      <point x="405" y="203"/>
      <point x="345" y="216"/>
      <point x="277" y="216" type="curve" smooth="yes"/>
      <point x="208" y="216"/>
      <point x="150" y="203"/>
      <point x="104" y="178" type="curve"/>
      <point x="103" y="186"/>
      <point x="97" y="191"/>
      <point x="90" y="191" type="curve" smooth="yes"/>
      <point x="82" y="191"/>
      <point x="76" y="185"/>
      <point x="76" y="177" type="curve" smooth="yes"/>
      <point x="76" y="161" type="line"/>
      <point x="24" y="121"/>
      <point x="0" y="64"/>
      <point x="0" y="-1" type="curve" smooth="yes"/>
      <point x="0" y="-71"/>
      <point x="26" y="-123"/>
      <point x="76" y="-158" type="curve"/>
      <point x="76" y="-169" type="line" smooth="yes"/>
      <point x="76" y="-176"/>
      <point x="82" y="-183"/>
      <point x="90" y="-183" type="curve" smooth="yes"/>
      <point x="95" y="-183"/>
      <point x="101" y="-179"/>
      <point x="103" y="-174" type="curve"/>
      <point x="147" y="-195"/>
      <point x="206" y="-207"/>
      <point x="277" y="-207" type="curve" smooth="yes"/>
      <point x="349" y="-207"/>
      <point x="407" y="-195"/>
      <point x="451" y="-174" type="curve"/>
      <point x="454" y="-179"/>
      <point x="458" y="-183"/>
      <point x="465" y="-183" type="curve" smooth="yes"/>
      <point x="473" y="-183"/>
      <point x="479" y="-176"/>
      <point x="479" y="-169" type="curve" smooth="yes"/>
      <point x="479" y="-158" type="line"/>
      <point x="529" y="-123"/>
      <point x="554" y="-71"/>
      <point x="554" y="-1" type="curve" smooth="yes"/>
      <point x="554" y="64"/>
      <point x="530" y="120"/>
      <point x="479" y="161" type="curve"/>
    </contour>
  </outline>
</glyph>
<glyph name="uniE0EC" format="2">
  <advance width="457"/>
  <unicode hex="E0EC"/>
  <outline>
    <contour>
      <point x="228" y="201" type="curve" smooth="yes"/>
      <point x="339" y="201"/>
      <point x="429" y="111"/>
      <point x="429" y="0" type="curve" smooth="yes"/>
      <point x="429" y="-111"/>
      <point x="339" y="-201"/>
      <point x="228" y="-201" type="curve" smooth="yes"/>
      <point x="118" y="-201"/>
      <point x="27" y="-111"/>
      <point x="27" y="0" type="curve" smooth="yes"/>
      <point x="27" y="111"/>
      <point x="118" y="201"/>
    </contour>
    <contour>
      <point x="228" y="-228" type="curve" smooth="yes"/>
      <point x="355" y="-228"/>
      <point x="457" y="-127"/>
      <point x="457" y="0" type="curve" smooth="yes"/>
      <point x="457" y="127"/>
      <point x="355" y="228"/>
      <point x="228" y="228" type="curve" smooth="yes"/>
      <point x="101" y="228"/>
      <point x="0" y="127"/>
      <point x="0" y="0" type="curve" smooth="yes"/>
      <point x="0" y="-127"/>
      <point x="101" y="-228"/>
    </contour>
    <contour>
      <point x="250" y="0" type="line"/>
      <point x="368" y="100" type="line" smooth="yes"/>
      <point x="371" y="103"/>
      <point x="374" y="107"/>
      <point x="374" y="112" type="curve" smooth="yes"/>
      <point x="374" y="119"/>
      <point x="368" y="125"/>
      <point x="361" y="125" type="curve" smooth="yes"/>
      <point x="358" y="125"/>
      <point x="356" y="124"/>
      <point x="354" y="122" type="curve" smooth="yes"/>
      <point x="227" y="18" type="line"/>
      <point x="103" y="122" type="line" smooth="yes"/>
      <point x="101" y="124"/>
      <point x="98" y="125"/>
      <point x="95" y="125" type="curve" smooth="yes"/>
      <point x="92" y="125"/>
      <point x="88" y="123"/>
      <point x="85" y="121" type="curve"/>
      <point x="84" y="118"/>
      <point x="83" y="115"/>
      <point x="83" y="112" type="curve" smooth="yes"/>
      <point x="83" y="108"/>
      <point x="85" y="103"/>
      <point x="88" y="100" type="curve" smooth="yes"/>
      <point x="208" y="0" type="line"/>
      <point x="88" y="-99" type="line"/>
      <point x="85" y="-103"/>
      <point x="83" y="-108"/>
      <point x="83" y="-112" type="curve" smooth="yes"/>
      <point x="83" y="-115"/>
      <point x="84" y="-117"/>
      <point x="85" y="-120" type="curve"/>
      <point x="88" y="-123"/>
      <point x="93" y="-125"/>
      <point x="96" y="-125" type="curve" smooth="yes"/>
      <point x="99" y="-125"/>
      <point x="102" y="-124"/>
      <point x="103" y="-123" type="curve"/>
      <point x="227" y="-18" type="line"/>
      <point x="354" y="-123" type="line" smooth="yes"/>
      <point x="356" y="-124"/>
      <point x="358" y="-125"/>
      <point x="361" y="-125" type="curve" smooth="yes"/>
      <point x="365" y="-125"/>
      <point x="368" y="-123"/>
      <point x="370" y="-120" type="curve" smooth="yes"/>
      <point x="373" y="-117"/>
      <point x="374" y="-114"/>
      <point x="374" y="-111" type="curve" smooth="yes"/>
      <point x="374" y="-107"/>
      <point x="371" y="-102"/>
      <point x="368" y="-99" type="curve" smooth="yes"/>
    </contour>
  </outline>
</glyph>
<glyph name="uniE0ED" format="2">
  <advance width="550"/>
  <unicode hex="E0ED"/>
  <outline>
    <contour>
      <point x="339" y="-39" type="curve" smooth="yes"/>
      <point x="339" y="-52"/>
      <point x="331" y="-80"/>
      <point x="321" y="-80" type="curve" smooth="yes"/>
      <point x="228" y="-80" type="line" smooth="yes"/>
      <point x="217" y="-80"/>
      <point x="210" y="-51"/>
      <point x="210" y="-38" type="curve" smooth="yes"/>
      <point x="210" y="46"/>
      <point x="250" y="121"/>
      <point x="273" y="175" type="curve"/>
      <point x="297" y="121"/>
      <point x="339" y="46"/>
    </contour>
    <contour>
      <point x="11" y="285" type="line" smooth="yes"/>
      <point x="6" y="285"/>
      <point x="0" y="280"/>
      <point x="0" y="274" type="curve" smooth="yes"/>
      <point x="0" y="-146" type="line" smooth="yes"/>
      <point x="0" y="-151"/>
      <point x="6" y="-155"/>
      <point x="11" y="-155" type="curve" smooth="yes"/>
      <point x="25" y="-155" type="line" smooth="yes"/>
      <point x="32" y="-155"/>
      <point x="37" y="-151"/>
      <point x="37" y="-146" type="curve" smooth="yes"/>
      <point x="37" y="274" type="line" smooth="yes"/>
      <point x="37" y="280"/>
      <point x="32" y="285"/>
      <point x="25" y="285" type="curve" smooth="yes"/>
    </contour>
    <contour>
      <point x="491" y="274" type="line" smooth="yes"/>
      <point x="491" y="280"/>
      <point x="486" y="285"/>
      <point x="479" y="285" type="curve" smooth="yes"/>
      <point x="465" y="285" type="line" smooth="yes"/>
      <point x="459" y="285"/>
      <point x="453" y="280"/>
      <point x="453" y="274" type="curve" smooth="yes"/>
      <point x="453" y="-98" type="line"/>
      <point x="284" y="244" type="line" smooth="yes"/>
      <point x="282" y="248"/>
      <point x="278" y="250"/>
      <point x="273" y="250" type="curve" smooth="yes"/>
      <point x="270" y="250"/>
      <point x="266" y="248"/>
      <point x="264" y="244" type="curve" smooth="yes"/>
      <point x="98" y="-98" type="line"/>
      <point x="98" y="274" type="line" smooth="yes"/>
      <point x="98" y="280"/>
      <point x="93" y="285"/>
      <point x="86" y="285" type="curve" smooth="yes"/>
      <point x="71" y="285" type="line" smooth="yes"/>
      <point x="66" y="285"/>
      <point x="60" y="280"/>
      <point x="60" y="274" type="curve" smooth="yes"/>
      <point x="60" y="-146" type="line" smooth="yes"/>
      <point x="60" y="-151"/>
      <point x="66" y="-155"/>
      <point x="71" y="-155" type="curve" smooth="yes"/>
      <point x="86" y="-155" type="line" smooth="yes"/>
      <point x="93" y="-155"/>
      <point x="98" y="-151"/>
      <point x="98" y="-146" type="curve" smooth="yes"/>
      <point x="98" y="-118" type="line"/>
      <point x="100" y="-121"/>
      <point x="103" y="-125"/>
      <point x="106" y="-125" type="curve" smooth="yes"/>
      <point x="445" y="-125" type="line" smooth="yes"/>
      <point x="448" y="-125"/>
      <point x="451" y="-121"/>
      <point x="453" y="-118" type="curve"/>
      <point x="453" y="-146" type="line" smooth="yes"/>
      <point x="453" y="-151"/>
      <point x="459" y="-155"/>
      <point x="465" y="-155" type="curve" smooth="yes"/>
      <point x="479" y="-155" type="line" smooth="yes"/>
      <point x="486" y="-155"/>
      <point x="491" y="-151"/>
      <point x="491" y="-146" type="curve" smooth="yes"/>
    </contour>
    <contour>
      <point x="551" y="274" type="line" smooth="yes"/>
      <point x="551" y="280"/>
      <point x="546" y="285"/>
      <point x="540" y="285" type="curve" smooth="yes"/>
      <point x="524" y="285" type="line" smooth="yes"/>
      <point x="519" y="285"/>
      <point x="513" y="280"/>
      <point x="513" y="274" type="curve" smooth="yes"/>
      <point x="513" y="-146" type="line" smooth="yes"/>
      <point x="513" y="-151"/>
      <point x="519" y="-155"/>
      <point x="524" y="-155" type="curve" smooth="yes"/>
      <point x="540" y="-155" type="line" smooth="yes"/>
      <point x="546" y="-155"/>
      <point x="551" y="-151"/>
      <point x="551" y="-146" type="curve" smooth="yes"/>
    </contour>
  </outline>
</glyph>
<glyph name="uniE900" format="2">
  <advance width="407"/>
  <unicode hex="E900"/>
  <outline>
    <contour>
      <point x="378" y="200" type="curve" smooth="yes"/>
      <point x="391" y="220"/>
      <point x="406" y="628"/>
      <point x="407" y="670" type="curve"/>
      <point x="345" y="668" type="line"/>
      <point x="356" y="629"/>
      <point x="361" y="244"/>
      <point x="339" y="227" type="curve" smooth="yes"/>
      <point x="334" y="223"/>
      <point x="322" y="221"/>
      <point x="300" y="221" type="curve"/>
      <point x="233" y="219"/>
      <point x="172" y="223"/>
      <point x="112" y="181" type="curve" smooth="yes"/>
      <point x="56" y="141"/>
      <point x="29" y="80"/>
      <point x="16" y="15" type="curve" smooth="yes"/>
      <point x="4" y="-46"/>
      <point x="12" y="-97"/>
      <point x="43" y="-137" type="curve" smooth="yes"/>
      <point x="100" y="-211"/>
      <point x="185" y="-244"/>
      <point x="286" y="-185" type="curve" smooth="yes"/>
      <point x="388" y="-125"/>
      <point x="415" y="-21"/>
      <point x="360" y="69" type="curve" smooth="yes"/>
      <point x="344" y="95"/>
      <point x="312" y="120"/>
      <point x="271" y="124" type="curve" smooth="yes"/>
      <point x="233" y="127"/>
      <point x="196" y="105"/>
      <point x="169" y="84" type="curve" smooth="yes"/>
      <point x="142" y="63"/>
      <point x="137" y="31"/>
      <point x="148" y="-4" type="curve"/>
      <point x="152" y="-15"/>
      <point x="157" y="-29"/>
      <point x="168" y="-44" type="curve"/>
      <point x="178" y="-59"/>
      <point x="188" y="-64"/>
      <point x="200" y="-60" type="curve"/>
      <point x="208" y="-56"/>
      <point x="209" y="-34"/>
      <point x="204" y="3" type="curve" smooth="yes"/>
      <point x="199" y="44"/>
      <point x="213" y="73"/>
      <point x="245" y="86" type="curve"/>
      <point x="277" y="98"/>
      <point x="297" y="82"/>
      <point x="307" y="33" type="curve" smooth="yes"/>
      <point x="319" y="-30"/>
      <point x="307" y="-82"/>
      <point x="273" y="-118" type="curve" smooth="yes"/>
      <point x="239" y="-153"/>
      <point x="199" y="-168"/>
      <point x="150" y="-155" type="curve" smooth="yes"/>
      <point x="106" y="-144"/>
      <point x="72" y="-113"/>
      <point x="59" y="-69" type="curve" smooth="yes"/>
      <point x="44" y="-21"/>
      <point x="57" y="33"/>
      <point x="98" y="98" type="curve" smooth="yes"/>
      <point x="130" y="149"/>
      <point x="174" y="175"/>
      <point x="236" y="181" type="curve" smooth="yes"/>
      <point x="304" y="187"/>
      <point x="371" y="189"/>
    </contour>
  </outline>
  <guideline angle="0" x="0" y="-231"/>
</glyph>
<glyph name="uniE901" format="2">
  <advance width="344"/>
  <unicode hex="E901"/>
  <outline>
    <contour>
      <point x="204" y="906" type="curve" smooth="yes"/>
      <point x="261" y="906"/>
      <point x="285" y="857"/>
      <point x="285" y="800" type="curve" smooth="yes"/>
      <point x="285" y="775"/>
      <point x="281" y="754"/>
      <point x="276" y="732" type="curve" smooth="yes" name="hr01"/>
      <point x="263" y="667"/>
      <point x="246" y="602"/>
      <point x="218" y="549" type="curve"/>
      <point x="180" y="617"/>
      <point x="133" y="698"/>
      <point x="133" y="799" type="curve" smooth="yes"/>
      <point x="133" y="857"/>
      <point x="145" y="906"/>
    </contour>
    <contour>
      <point x="309" y="327" type="curve" smooth="yes"/>
      <point x="309" y="416"/>
      <point x="260" y="477"/>
      <point x="226" y="536" type="curve"/>
      <point x="256" y="584"/>
      <point x="277" y="640"/>
      <point x="293" y="701" type="curve" smooth="yes"/>
      <point x="305" y="744"/>
      <point x="318" y="789"/>
      <point x="318" y="841" type="curve" smooth="yes" name="hr02"/>
      <point x="318" y="901"/>
      <point x="294" y="951"/>
      <point x="234" y="951" type="curve" smooth="yes"/>
      <point x="187" y="951"/>
      <point x="160" y="920"/>
      <point x="140" y="890" type="curve" smooth="yes"/>
      <point x="116" y="854"/>
      <point x="99" y="817"/>
      <point x="99" y="762" type="curve" smooth="yes"/>
      <point x="99" y="656"/>
      <point x="147" y="574"/>
      <point x="187" y="503" type="curve"/>
      <point x="148" y="459"/>
      <point x="101" y="424"/>
      <point x="65" y="376" type="curve" smooth="yes"/>
      <point x="38" y="339"/>
      <point x="6" y="292"/>
      <point x="6" y="233" type="curve" smooth="yes"/>
      <point x="6" y="181"/>
      <point x="36" y="141"/>
      <point x="77" y="127" type="curve"/>
      <point x="77" y="127"/>
      <point x="78" y="127"/>
      <point x="78" y="127" type="curve"/>
      <point x="87" y="127"/>
      <point x="109" y="162"/>
      <point x="109" y="171" type="curve"/>
      <point x="109" y="172"/>
      <point x="109" y="173"/>
      <point x="108" y="173" type="curve"/>
      <point x="69" y="186"/>
      <point x="39" y="224"/>
      <point x="39" y="273" type="curve" smooth="yes"/>
      <point x="39" y="290"/>
      <point x="43" y="307"/>
      <point x="49" y="323" type="curve" smooth="yes"/>
      <point x="78" y="396"/>
      <point x="148" y="434"/>
      <point x="194" y="491" type="curve"/>
      <point x="227" y="433"/>
      <point x="276" y="374"/>
      <point x="276" y="287" type="curve" smooth="yes" name="hr03"/>
      <point x="276" y="240"/>
      <point x="258" y="208"/>
      <point x="244" y="172" type="curve"/>
      <point x="264" y="175" type="line"/>
      <point x="282" y="223"/>
      <point x="309" y="265"/>
    </contour>
    <contour>
      <point x="336" y="180" type="curve"/>
      <point x="344" y="192"/>
      <point x="321" y="219"/>
      <point x="301" y="204" type="curve"/>
      <point x="296" y="200"/>
      <point x="285" y="199"/>
      <point x="266" y="199" type="curve"/>
      <point x="205" y="197" name="hr04"/>
      <point x="150" y="201"/>
      <point x="96" y="163" type="curve" smooth="yes"/>
      <point x="46" y="127"/>
      <point x="22" y="72"/>
      <point x="10" y="14" type="curve" smooth="yes"/>
      <point x="-1" y="-41"/>
      <point x="6" y="-87"/>
      <point x="34" y="-123" type="curve" smooth="yes"/>
      <point x="86" y="-190"/>
      <point x="162" y="-220"/>
      <point x="253" y="-166" type="curve" smooth="yes"/>
      <point x="345" y="-112"/>
      <point x="369" y="-19"/>
      <point x="320" y="62" type="curve" smooth="yes"/>
      <point x="305" y="86"/>
      <point x="276" y="109"/>
      <point x="240" y="112" type="curve" smooth="yes"/>
      <point x="205" y="115" name="hr05"/>
      <point x="172" y="95"/>
      <point x="148" y="76" type="curve" smooth="yes"/>
      <point x="123" y="57"/>
      <point x="119" y="28"/>
      <point x="129" y="-4" type="curve" smooth="yes"/>
      <point x="132" y="-13"/>
      <point x="137" y="-26"/>
      <point x="147" y="-40" type="curve" smooth="yes"/>
      <point x="156" y="-53"/>
      <point x="165" y="-58"/>
      <point x="176" y="-54" type="curve"/>
      <point x="183" y="-50"/>
      <point x="183" y="-31"/>
      <point x="179" y="3" type="curve" smooth="yes"/>
      <point x="174" y="40"/>
      <point x="187" y="67"/>
      <point x="216" y="78" type="curve" smooth="yes"/>
      <point x="245" y="89"/>
      <point x="263" y="74"/>
      <point x="272" y="30" type="curve" smooth="yes"/>
      <point x="283" y="-27"/>
      <point x="272" y="-74"/>
      <point x="241" y="-106" type="curve" smooth="yes"/>
      <point x="211" y="-138"/>
      <point x="175" y="-150"/>
      <point x="131" y="-139" type="curve" smooth="yes"/>
      <point x="91" y="-129"/>
      <point x="61" y="-102"/>
      <point x="49" y="-62" type="curve" smooth="yes"/>
      <point x="36" y="-19"/>
      <point x="47" y="30"/>
      <point x="84" y="88" type="curve" smooth="yes"/>
      <point x="113" y="134"/>
      <point x="152" y="158"/>
      <point x="208" y="163" type="curve" smooth="yes"/>
      <point x="269" y="168"/>
      <point x="330" y="170"/>
    </contour>
  </outline>
</glyph>
<glyph name="uniE902" format="2">
  <advance width="262"/>
  <unicode hex="E902"/>
  <outline>
    <contour>
      <point x="7" y="-62" type="curve"/>
      <point x="8" y="-62" type="line"/>
      <point x="22" y="-54"/>
      <point x="38" y="-50"/>
      <point x="54" y="-50" type="curve" smooth="yes"/>
      <point x="76" y="-50"/>
      <point x="94" y="-57"/>
      <point x="110" y="-69" type="curve"/>
      <point x="110" y="-367" type="line" smooth="yes"/>
      <point x="110" y="-371"/>
      <point x="113" y="-375"/>
      <point x="117" y="-375" type="curve" smooth="yes"/>
      <point x="121" y="-375"/>
      <point x="125" y="-371"/>
      <point x="125" y="-367" type="curve" smooth="yes"/>
      <point x="125" y="-12" type="line" smooth="yes"/>
      <point x="125" y="5"/>
      <point x="124" y="20"/>
      <point x="123" y="32" type="curve"/>
      <point x="119" y="65"/>
      <point x="84" y="75"/>
      <point x="54" y="75" type="curve" smooth="yes"/>
      <point x="37" y="75"/>
      <point x="21" y="71"/>
      <point x="7" y="62" type="curve" smooth="yes"/>
      <point x="1" y="58"/>
      <point x="0" y="32"/>
      <point x="0" y="12" type="curve" smooth="yes"/>
      <point x="0" y="8"/>
      <point x="0" y="3"/>
      <point x="0" y="0" type="curve" smooth="yes"/>
      <point x="0" y="-14"/>
      <point x="0" y="-62"/>
    </contour>
    <contour>
      <point x="213" y="50" type="curve" smooth="yes"/>
      <point x="228" y="50"/>
      <point x="242" y="45"/>
      <point x="254" y="36" type="curve"/>
      <point x="255" y="36" type="line"/>
      <point x="262" y="36"/>
      <point x="262" y="95"/>
      <point x="262" y="111" type="curve" smooth="yes"/>
      <point x="262" y="119"/>
      <point x="262" y="131"/>
      <point x="262" y="144" type="curve" smooth="yes"/>
      <point x="262" y="163"/>
      <point x="261" y="182"/>
      <point x="256" y="186" type="curve"/>
      <point x="244" y="195"/>
      <point x="229" y="200"/>
      <point x="214" y="200" type="curve" smooth="yes"/>
      <point x="147" y="200"/>
      <point x="137" y="136"/>
      <point x="137" y="69" type="curve" smooth="yes"/>
      <point x="137" y="-69" type="line" smooth="yes"/>
      <point x="137" y="-136"/>
      <point x="147" y="-200"/>
      <point x="214" y="-200" type="curve" smooth="yes"/>
      <point x="229" y="-200"/>
      <point x="244" y="-195"/>
      <point x="256" y="-186" type="curve"/>
      <point x="261" y="-182"/>
      <point x="262" y="-163"/>
      <point x="262" y="-144" type="curve" smooth="yes"/>
      <point x="262" y="-132"/>
      <point x="262" y="-119"/>
      <point x="262" y="-111" type="curve" smooth="yes"/>
      <point x="262" y="-95"/>
      <point x="262" y="-36"/>
      <point x="255" y="-36" type="curve"/>
      <point x="254" y="-36" type="line"/>
      <point x="242" y="-45"/>
      <point x="228" y="-50"/>
      <point x="213" y="-50" type="curve" smooth="yes"/>
      <point x="180" y="-50"/>
      <point x="152" y="-29"/>
      <point x="152" y="0" type="curve" smooth="yes"/>
      <point x="152" y="29"/>
      <point x="180" y="50"/>
    </contour>
  </outline>
</glyph>
<glyph name="uniE903" format="2">
  <advance width="299"/>
  <unicode hex="E903"/>
  <outline>
    <contour>
      <point x="0" y="-162" type="curve" smooth="yes"/>
      <point x="0" y="-170"/>
      <point x="4" y="-175"/>
      <point x="12" y="-175" type="curve" smooth="yes"/>
      <point x="111" y="-175"/>
      <point x="199" y="-87"/>
      <point x="199" y="12" type="curve" smooth="yes"/>
      <point x="199" y="101"/>
      <point x="126" y="175"/>
      <point x="37" y="175" type="curve" smooth="yes"/>
      <point x="20" y="175"/>
      <point x="0" y="155"/>
      <point x="0" y="138" type="curve" smooth="yes"/>
      <point x="0" y="130"/>
      <point x="4" y="125"/>
      <point x="12" y="125" type="curve" smooth="yes"/>
      <point x="87" y="125"/>
      <point x="150" y="63"/>
      <point x="150" y="-12" type="curve" smooth="yes"/>
      <point x="150" y="-76"/>
      <point x="101" y="-125"/>
      <point x="37" y="-125" type="curve" smooth="yes"/>
      <point x="20" y="-125"/>
      <point x="0" y="-145"/>
    </contour>
    <contour>
      <point x="272" y="147" type="line" smooth="yes"/>
      <point x="269" y="150"/>
      <point x="266" y="151"/>
      <point x="262" y="151" type="curve" smooth="yes" name="hr01"/>
      <point x="247" y="151"/>
      <point x="225" y="129"/>
      <point x="225" y="113" type="curve" smooth="yes"/>
      <point x="225" y="110"/>
      <point x="227" y="106"/>
      <point x="229" y="104" type="curve" smooth="yes"/>
      <point x="254" y="79" type="line" smooth="yes"/>
      <point x="257" y="76"/>
      <point x="261" y="75"/>
      <point x="264" y="75" type="curve" smooth="yes"/>
      <point x="281" y="75"/>
      <point x="300" y="101"/>
      <point x="300" y="113" type="curve" smooth="yes"/>
      <point x="300" y="117"/>
      <point x="299" y="120"/>
      <point x="297" y="122" type="curve" smooth="yes"/>
    </contour>
    <contour>
      <point x="272" y="-79" type="line" smooth="yes"/>
      <point x="269" y="-76"/>
      <point x="266" y="-75"/>
      <point x="262" y="-75" type="curve" smooth="yes"/>
      <point x="247" y="-75"/>
      <point x="225" y="-97"/>
      <point x="225" y="-113" type="curve" smooth="yes"/>
      <point x="225" y="-116"/>
      <point x="227" y="-120"/>
      <point x="229" y="-122" type="curve" smooth="yes"/>
      <point x="254" y="-147" type="line" smooth="yes"/>
      <point x="257" y="-150"/>
      <point x="261" y="-151"/>
      <point x="264" y="-151" type="curve" smooth="yes"/>
      <point x="281" y="-151"/>
      <point x="300" y="-125"/>
      <point x="300" y="-113" type="curve" smooth="yes" name="hr02"/>
      <point x="300" y="-109"/>
      <point x="299" y="-106"/>
      <point x="297" y="-104" type="curve" smooth="yes"/>
    </contour>
  </outline>
</glyph>
<glyph name="uniE904" format="2">
  <advance width="486"/>
  <unicode hex="E904"/>
  <outline>
    <contour>
      <point x="398" y="-49" type="curve"/>
      <point x="453" y="-144" type="line"/>
      <point x="411" y="-216" type="line"/>
      <point x="347" y="-106" type="line"/>
      <point x="376" y="-56" type="line"/>
      <point x="383" y="-57"/>
      <point x="393" y="-52"/>
    </contour>
    <contour>
      <point x="250" y="-1000" type="curve" smooth="yes"/>
      <point x="250" y="175" type="line" smooth="yes"/>
      <point x="250" y="187"/>
      <point x="241" y="193"/>
      <point x="232" y="193" type="curve" smooth="yes"/>
      <point x="223" y="193"/>
      <point x="215" y="187"/>
      <point x="215" y="175" type="curve" smooth="yes"/>
      <point x="215" y="156"/>
      <point x="207" y="138"/>
      <point x="190" y="138" type="curve" smooth="yes"/>
      <point x="60" y="138" type="line" smooth="yes"/>
      <point x="43" y="138"/>
      <point x="35" y="156"/>
      <point x="35" y="175" type="curve" smooth="yes"/>
      <point x="35" y="187"/>
      <point x="27" y="193"/>
      <point x="18" y="193" type="curve" smooth="yes"/>
      <point x="9" y="193"/>
      <point x="0" y="187"/>
      <point x="0" y="175" type="curve" smooth="yes"/>
      <point x="0" y="-175" type="line" smooth="yes"/>
      <point x="0" y="-187"/>
      <point x="9" y="-193"/>
      <point x="18" y="-193" type="curve" smooth="yes"/>
      <point x="27" y="-193"/>
      <point x="35" y="-187"/>
      <point x="35" y="-175" type="curve" smooth="yes"/>
      <point x="35" y="-156"/>
      <point x="43" y="-138"/>
      <point x="60" y="-138" type="curve" smooth="yes"/>
      <point x="190" y="-138" type="line" smooth="yes"/>
      <point x="207" y="-138"/>
      <point x="215" y="-156"/>
      <point x="215" y="-175" type="curve" smooth="yes"/>
      <point x="215" y="-1000" type="line" smooth="yes"/>
      <point x="215" y="-1007"/>
      <point x="225" y="-1010"/>
      <point x="232" y="-1010" type="curve" smooth="yes"/>
      <point x="239" y="-1010"/>
      <point x="250" y="-1007"/>
    </contour>
    <contour>
      <point x="35" y="-25" type="curve" smooth="yes"/>
      <point x="35" y="25" type="line" smooth="yes"/>
      <point x="35" y="39"/>
      <point x="46" y="50"/>
      <point x="60" y="50" type="curve" smooth="yes"/>
      <point x="190" y="50" type="line" smooth="yes"/>
      <point x="204" y="50"/>
      <point x="215" y="39"/>
      <point x="215" y="25" type="curve" smooth="yes"/>
      <point x="215" y="-25" type="line" smooth="yes"/>
      <point x="215" y="-39"/>
      <point x="204" y="-50"/>
      <point x="190" y="-50" type="curve" smooth="yes"/>
      <point x="60" y="-50" type="line" smooth="yes"/>
      <point x="46" y="-50"/>
      <point x="35" y="-39"/>
    </contour>
    <contour>
      <point x="402" y="49" type="curve"/>
      <point x="347" y="144" type="line"/>
      <point x="389" y="216" type="line"/>
      <point x="453" y="106" type="line"/>
      <point x="424" y="56" type="line"/>
      <point x="417" y="57"/>
      <point x="407" y="52"/>
    </contour>
    <contour>
      <point x="400" y="-1115" type="curve" smooth="yes"/>
      <point x="400" y="-298" type="line"/>
      <point x="410" y="-291"/>
      <point x="419" y="-281"/>
      <point x="425" y="-271" type="curve" smooth="yes"/>
      <point x="512" y="-121" type="line"/>
      <point x="515" y="-117"/>
      <point x="517" y="-110"/>
      <point x="517" y="-104" type="curve"/>
      <point x="517" y="-102"/>
      <point x="517" y="-100"/>
      <point x="516" y="-98" type="curve"/>
      <point x="448" y="19" type="line"/>
      <point x="512" y="129" type="line"/>
      <point x="515" y="133"/>
      <point x="517" y="140"/>
      <point x="517" y="146" type="curve"/>
      <point x="517" y="148"/>
      <point x="517" y="150"/>
      <point x="516" y="152" type="curve"/>
      <point x="435" y="292" type="line"/>
      <point x="435" y="615" type="line" smooth="yes"/>
      <point x="435" y="622"/>
      <point x="425" y="625"/>
      <point x="418" y="625" type="curve" smooth="yes"/>
      <point x="411" y="625"/>
      <point x="400" y="622"/>
      <point x="400" y="615" type="curve" smooth="yes"/>
      <point x="400" y="298" type="line"/>
      <point x="390" y="291"/>
      <point x="381" y="281"/>
      <point x="375" y="271" type="curve" smooth="yes"/>
      <point x="288" y="121" type="line" smooth="yes"/>
      <point x="285" y="116"/>
      <point x="281" y="104"/>
      <point x="284" y="98" type="curve"/>
      <point x="352" y="-19" type="line"/>
      <point x="288" y="-129" type="line" smooth="yes"/>
      <point x="285" y="-134"/>
      <point x="281" y="-146"/>
      <point x="284" y="-152" type="curve"/>
      <point x="365" y="-292" type="line"/>
      <point x="365" y="-1115" type="line" smooth="yes"/>
      <point x="365" y="-1122"/>
      <point x="376" y="-1125"/>
      <point x="383" y="-1125" type="curve" smooth="yes"/>
      <point x="390" y="-1125"/>
      <point x="400" y="-1122"/>
    </contour>
  </outline>
</glyph>
<glyph name="uniE905" format="2">
  <advance width="650"/>
  <unicode hex="E905"/>
  <outline>
    <contour>
      <point x="110" y="-25" type="curve" smooth="yes"/>
      <point x="110" y="25" type="line" smooth="yes"/>
      <point x="110" y="39"/>
      <point x="121" y="50"/>
      <point x="135" y="50" type="curve" smooth="yes"/>
      <point x="515" y="50" type="line" smooth="yes"/>
      <point x="529" y="50"/>
      <point x="540" y="39"/>
      <point x="540" y="25" type="curve" smooth="yes"/>
      <point x="540" y="-25" type="line" smooth="yes"/>
      <point x="540" y="-39"/>
      <point x="529" y="-50"/>
      <point x="515" y="-50" type="curve" smooth="yes"/>
      <point x="135" y="-50" type="line" smooth="yes"/>
      <point x="121" y="-50"/>
      <point x="110" y="-39"/>
    </contour>
    <contour>
      <point x="35" y="-490" type="curve" smooth="yes"/>
      <point x="35" y="490" type="line" smooth="yes"/>
      <point x="35" y="497"/>
      <point x="25" y="500"/>
      <point x="18" y="500" type="curve" smooth="yes"/>
      <point x="11" y="500"/>
      <point x="0" y="497"/>
      <point x="0" y="490" type="curve" smooth="yes"/>
      <point x="0" y="-490" type="line" smooth="yes"/>
      <point x="0" y="-497"/>
      <point x="11" y="-500"/>
      <point x="18" y="-500" type="curve" smooth="yes"/>
      <point x="25" y="-500"/>
      <point x="35" y="-497"/>
    </contour>
    <contour>
      <point x="650" y="-490" type="curve" smooth="yes"/>
      <point x="650" y="490" type="line" smooth="yes"/>
      <point x="650" y="497"/>
      <point x="640" y="500"/>
      <point x="633" y="500" type="curve" smooth="yes"/>
      <point x="626" y="500"/>
      <point x="615" y="497"/>
      <point x="615" y="490" type="curve" smooth="yes"/>
      <point x="615" y="-490" type="line" smooth="yes"/>
      <point x="615" y="-497"/>
      <point x="626" y="-500"/>
      <point x="633" y="-500" type="curve" smooth="yes"/>
      <point x="640" y="-500"/>
      <point x="650" y="-497"/>
    </contour>
    <contour>
      <point x="110" y="-490" type="curve" smooth="yes"/>
      <point x="110" y="-175" type="line" smooth="yes"/>
      <point x="110" y="-156"/>
      <point x="118" y="-138"/>
      <point x="135" y="-138" type="curve" smooth="yes"/>
      <point x="515" y="-138" type="line" smooth="yes"/>
      <point x="532" y="-138"/>
      <point x="540" y="-156"/>
      <point x="540" y="-175" type="curve" smooth="yes"/>
      <point x="540" y="-490" type="line" smooth="yes"/>
      <point x="540" y="-497"/>
      <point x="551" y="-500"/>
      <point x="558" y="-500" type="curve" smooth="yes"/>
      <point x="565" y="-500"/>
      <point x="575" y="-497"/>
      <point x="575" y="-490" type="curve" smooth="yes"/>
      <point x="575" y="490" type="line" smooth="yes"/>
      <point x="575" y="497"/>
      <point x="565" y="500"/>
      <point x="558" y="500" type="curve" smooth="yes"/>
      <point x="551" y="500"/>
      <point x="540" y="497"/>
      <point x="540" y="490" type="curve" smooth="yes"/>
      <point x="540" y="175" type="line" smooth="yes"/>
      <point x="540" y="156"/>
      <point x="532" y="138"/>
      <point x="515" y="138" type="curve" smooth="yes"/>
      <point x="135" y="138" type="line" smooth="yes"/>
      <point x="118" y="138"/>
      <point x="110" y="156"/>
      <point x="110" y="175" type="curve" smooth="yes"/>
      <point x="110" y="490" type="line" smooth="yes"/>
      <point x="110" y="497"/>
      <point x="100" y="500"/>
      <point x="93" y="500" type="curve" smooth="yes"/>
      <point x="86" y="500"/>
      <point x="75" y="497"/>
      <point x="75" y="490" type="curve" smooth="yes"/>
      <point x="75" y="-490" type="line" smooth="yes"/>
      <point x="75" y="-497"/>
      <point x="86" y="-500"/>
      <point x="93" y="-500" type="curve" smooth="yes"/>
      <point x="100" y="-500"/>
      <point x="110" y="-497"/>
    </contour>
  </outline>
</glyph>
<glyph name="uniE906" format="2">
  <advance width="125"/>
  <unicode hex="E906"/>
  <outline>
    <contour>
      <point x="76" y="50" type="curve" smooth="yes"/>
      <point x="91" y="50"/>
      <point x="105" y="45"/>
      <point x="117" y="36" type="curve"/>
      <point x="118" y="36" type="line"/>
      <point x="125" y="36"/>
      <point x="125" y="95"/>
      <point x="125" y="111" type="curve" smooth="yes"/>
      <point x="125" y="117"/>
      <point x="125" y="126"/>
      <point x="125" y="135" type="curve" smooth="yes"/>
      <point x="125" y="157"/>
      <point x="124" y="181"/>
      <point x="118" y="186" type="curve"/>
      <point x="106" y="195"/>
      <point x="91" y="200"/>
      <point x="76" y="200" type="curve" smooth="yes"/>
      <point x="9" y="200"/>
      <point x="0" y="136"/>
      <point x="0" y="69" type="curve" smooth="yes"/>
      <point x="0" y="-69" type="line" smooth="yes"/>
      <point x="0" y="-136"/>
      <point x="9" y="-200"/>
      <point x="76" y="-200" type="curve" smooth="yes"/>
      <point x="91" y="-200"/>
      <point x="106" y="-195"/>
      <point x="118" y="-186" type="curve"/>
      <point x="124" y="-181"/>
      <point x="125" y="-157"/>
      <point x="125" y="-136" type="curve" smooth="yes"/>
      <point x="125" y="-126"/>
      <point x="125" y="-117"/>
      <point x="125" y="-111" type="curve" smooth="yes"/>
      <point x="125" y="-95"/>
      <point x="125" y="-36"/>
      <point x="118" y="-36" type="curve"/>
      <point x="117" y="-36" type="line"/>
      <point x="105" y="-45"/>
      <point x="91" y="-50"/>
      <point x="76" y="-50" type="curve" smooth="yes"/>
      <point x="43" y="-50"/>
      <point x="15" y="-29"/>
      <point x="15" y="0" type="curve" smooth="yes"/>
      <point x="15" y="29"/>
      <point x="43" y="50"/>
    </contour>
  </outline>
</glyph>
<glyph name="uniE907" format="2">
  <advance width="250"/>
  <unicode hex="E907"/>
  <outline>
    <contour>
      <point x="215" y="550" type="curve" smooth="yes"/>
      <point x="215" y="300" type="line" smooth="yes"/>
      <point x="215" y="281"/>
      <point x="207" y="263"/>
      <point x="190" y="263" type="curve" smooth="yes"/>
      <point x="60" y="263" type="line" smooth="yes"/>
      <point x="43" y="263"/>
      <point x="35" y="281"/>
      <point x="35" y="300" type="curve" smooth="yes"/>
      <point x="35" y="790" type="line" smooth="yes"/>
      <point x="35" y="797"/>
      <point x="25" y="800"/>
      <point x="18" y="800" type="curve" smooth="yes"/>
      <point x="11" y="800"/>
      <point x="0" y="797"/>
      <point x="0" y="790" type="curve" smooth="yes"/>
      <point x="0" y="-340" type="line" smooth="yes"/>
      <point x="0" y="-347"/>
      <point x="11" y="-350"/>
      <point x="18" y="-350" type="curve" smooth="yes"/>
      <point x="25" y="-350"/>
      <point x="35" y="-347"/>
      <point x="35" y="-340" type="curve" smooth="yes"/>
      <point x="35" y="-300" type="line" smooth="yes"/>
      <point x="35" y="-281"/>
      <point x="43" y="-263"/>
      <point x="60" y="-263" type="curve" smooth="yes"/>
      <point x="190" y="-263" type="line" smooth="yes"/>
      <point x="207" y="-263"/>
      <point x="215" y="-281"/>
      <point x="215" y="-300" type="curve" smooth="yes"/>
      <point x="215" y="-312"/>
      <point x="223" y="-318"/>
      <point x="232" y="-318" type="curve" smooth="yes"/>
      <point x="241" y="-318"/>
      <point x="250" y="-312"/>
      <point x="250" y="-300" type="curve" smooth="yes"/>
      <point x="250" y="550" type="line" smooth="yes"/>
      <point x="250" y="557"/>
      <point x="239" y="560"/>
      <point x="232" y="560" type="curve" smooth="yes"/>
      <point x="225" y="560"/>
      <point x="215" y="557"/>
    </contour>
    <contour>
      <point x="35" y="100" type="curve" smooth="yes"/>
      <point x="35" y="150" type="line" smooth="yes"/>
      <point x="35" y="164"/>
      <point x="46" y="175"/>
      <point x="60" y="175" type="curve" smooth="yes"/>
      <point x="190" y="175" type="line" smooth="yes"/>
      <point x="204" y="175"/>
      <point x="215" y="164"/>
      <point x="215" y="150" type="curve" smooth="yes"/>
      <point x="215" y="100" type="line" smooth="yes"/>
      <point x="215" y="86"/>
      <point x="204" y="75"/>
      <point x="190" y="75" type="curve" smooth="yes"/>
      <point x="60" y="75" type="line" smooth="yes"/>
      <point x="46" y="75"/>
      <point x="35" y="86"/>
    </contour>
    <contour>
      <point x="35" y="-150" type="curve" smooth="yes"/>
      <point x="35" y="-100" type="line" smooth="yes"/>
      <point x="35" y="-86"/>
      <point x="46" y="-75"/>
      <point x="60" y="-75" type="curve" smooth="yes"/>
      <point x="190" y="-75" type="line" smooth="yes"/>
      <point x="204" y="-75"/>
      <point x="215" y="-86"/>
      <point x="215" y="-100" type="curve" smooth="yes"/>
      <point x="215" y="-150" type="line" smooth="yes"/>
      <point x="215" y="-164"/>
      <point x="204" y="-175"/>
      <point x="190" y="-175" type="curve" smooth="yes"/>
      <point x="60" y="-175" type="line" smooth="yes"/>
      <point x="46" y="-175"/>
      <point x="35" y="-164"/>
    </contour>
  </outline>
</glyph>
<glyph name="uniE908" format="2">
  <advance width="250"/>
  <unicode hex="E908"/>
  <outline>
    <contour>
      <point x="250" y="-540" type="curve" smooth="yes"/>
      <point x="250" y="550" type="line" smooth="yes"/>
      <point x="250" y="557"/>
      <point x="239" y="560"/>
      <point x="232" y="560" type="curve" smooth="yes"/>
      <point x="225" y="560"/>
      <point x="215" y="557"/>
      <point x="215" y="550" type="curve" smooth="yes"/>
      <point x="215" y="300" type="line" smooth="yes"/>
      <point x="215" y="281"/>
      <point x="207" y="263"/>
      <point x="190" y="263" type="curve" smooth="yes"/>
      <point x="60" y="263" type="line" smooth="yes"/>
      <point x="43" y="263"/>
      <point x="35" y="281"/>
      <point x="35" y="300" type="curve" smooth="yes"/>
      <point x="35" y="790" type="line" smooth="yes"/>
      <point x="35" y="797"/>
      <point x="25" y="800"/>
      <point x="18" y="800" type="curve" smooth="yes"/>
      <point x="11" y="800"/>
      <point x="0" y="797"/>
      <point x="0" y="790" type="curve" smooth="yes"/>
      <point x="0" y="-590" type="line" smooth="yes"/>
      <point x="0" y="-597"/>
      <point x="11" y="-600"/>
      <point x="18" y="-600" type="curve" smooth="yes"/>
      <point x="25" y="-600"/>
      <point x="35" y="-597"/>
      <point x="35" y="-590" type="curve" smooth="yes"/>
      <point x="35" y="-300" type="line" smooth="yes"/>
      <point x="35" y="-281"/>
      <point x="43" y="-263"/>
      <point x="60" y="-263" type="curve" smooth="yes"/>
      <point x="190" y="-263" type="line" smooth="yes"/>
      <point x="207" y="-263"/>
      <point x="215" y="-281"/>
      <point x="215" y="-300" type="curve" smooth="yes"/>
      <point x="215" y="-540" type="line" smooth="yes"/>
      <point x="215" y="-547"/>
      <point x="225" y="-550"/>
      <point x="232" y="-550" type="curve" smooth="yes"/>
      <point x="239" y="-550"/>
      <point x="250" y="-547"/>
    </contour>
    <contour>
      <point x="35" y="100" type="curve" smooth="yes"/>
      <point x="35" y="150" type="line" smooth="yes"/>
      <point x="35" y="164"/>
      <point x="46" y="175"/>
      <point x="60" y="175" type="curve" smooth="yes"/>
      <point x="190" y="175" type="line" smooth="yes"/>
      <point x="204" y="175"/>
      <point x="215" y="164"/>
      <point x="215" y="150" type="curve" smooth="yes"/>
      <point x="215" y="100" type="line" smooth="yes"/>
      <point x="215" y="86"/>
      <point x="204" y="75"/>
      <point x="190" y="75" type="curve" smooth="yes"/>
      <point x="60" y="75" type="line" smooth="yes"/>
      <point x="46" y="75"/>
      <point x="35" y="86"/>
    </contour>
    <contour>
      <point x="35" y="-150" type="curve" smooth="yes"/>
      <point x="35" y="-100" type="line" smooth="yes"/>
      <point x="35" y="-86"/>
      <point x="46" y="-75"/>
      <point x="60" y="-75" type="curve" smooth="yes"/>
      <point x="190" y="-75" type="line" smooth="yes"/>
      <point x="204" y="-75"/>
      <point x="215" y="-86"/>
      <point x="215" y="-100" type="curve" smooth="yes"/>
      <point x="215" y="-150" type="line" smooth="yes"/>
      <point x="215" y="-164"/>
      <point x="204" y="-175"/>
      <point x="190" y="-175" type="curve" smooth="yes"/>
      <point x="60" y="-175" type="line" smooth="yes"/>
      <point x="46" y="-175"/>
      <point x="35" y="-164"/>
    </contour>
  </outline>
</glyph>
<glyph name="uniE909" format="2">
  <advance width="250"/>
  <unicode hex="E909"/>
  <outline>
    <contour>
      <point x="250" y="-550" type="curve" smooth="yes"/>
      <point x="250" y="550" type="line" smooth="yes"/>
      <point x="250" y="557"/>
      <point x="239" y="560"/>
      <point x="232" y="560" type="curve" smooth="yes"/>
      <point x="225" y="560"/>
      <point x="215" y="557"/>
      <point x="215" y="550" type="curve" smooth="yes"/>
      <point x="215" y="300" type="line" smooth="yes"/>
      <point x="215" y="281"/>
      <point x="207" y="263"/>
      <point x="190" y="263" type="curve" smooth="yes"/>
      <point x="60" y="263" type="line" smooth="yes"/>
      <point x="43" y="263"/>
      <point x="35" y="281"/>
      <point x="35" y="300" type="curve" smooth="yes"/>
      <point x="35" y="790" type="line" smooth="yes"/>
      <point x="35" y="797"/>
      <point x="25" y="800"/>
      <point x="18" y="800" type="curve" smooth="yes"/>
      <point x="11" y="800"/>
      <point x="0" y="797"/>
      <point x="0" y="790" type="curve" smooth="yes"/>
      <point x="0" y="-790" type="line" smooth="yes"/>
      <point x="0" y="-797"/>
      <point x="11" y="-800"/>
      <point x="18" y="-800" type="curve" smooth="yes"/>
      <point x="25" y="-800"/>
      <point x="35" y="-797"/>
      <point x="35" y="-790" type="curve" smooth="yes"/>
      <point x="35" y="-300" type="line" smooth="yes"/>
      <point x="35" y="-281"/>
      <point x="43" y="-263"/>
      <point x="60" y="-263" type="curve" smooth="yes"/>
      <point x="190" y="-263" type="line" smooth="yes"/>
      <point x="207" y="-263"/>
      <point x="215" y="-281"/>
      <point x="215" y="-300" type="curve" smooth="yes"/>
      <point x="215" y="-550" type="line" smooth="yes"/>
      <point x="215" y="-557"/>
      <point x="225" y="-560"/>
      <point x="232" y="-560" type="curve" smooth="yes"/>
      <point x="239" y="-560"/>
      <point x="250" y="-557"/>
    </contour>
    <contour>
      <point x="35" y="100" type="curve" smooth="yes"/>
      <point x="35" y="150" type="line" smooth="yes"/>
      <point x="35" y="164"/>
      <point x="46" y="175"/>
      <point x="60" y="175" type="curve" smooth="yes"/>
      <point x="190" y="175" type="line" smooth="yes"/>
      <point x="204" y="175"/>
      <point x="215" y="164"/>
      <point x="215" y="150" type="curve" smooth="yes"/>
      <point x="215" y="100" type="line" smooth="yes"/>
      <point x="215" y="86"/>
      <point x="204" y="75"/>
      <point x="190" y="75" type="curve" smooth="yes"/>
      <point x="60" y="75" type="line" smooth="yes"/>
      <point x="46" y="75"/>
      <point x="35" y="86"/>
    </contour>
    <contour>
      <point x="35" y="-150" type="curve" smooth="yes"/>
      <point x="35" y="-100" type="line" smooth="yes"/>
      <point x="35" y="-86"/>
      <point x="46" y="-75"/>
      <point x="60" y="-75" type="curve" smooth="yes"/>
      <point x="190" y="-75" type="line" smooth="yes"/>
      <point x="204" y="-75"/>
      <point x="215" y="-86"/>
      <point x="215" y="-100" type="curve" smooth="yes"/>
      <point x="215" y="-150" type="line" smooth="yes"/>
      <point x="215" y="-164"/>
      <point x="204" y="-175"/>
      <point x="190" y="-175" type="curve" smooth="yes"/>
      <point x="60" y="-175" type="line" smooth="yes"/>
      <point x="46" y="-175"/>
      <point x="35" y="-164"/>
    </contour>
  </outline>
</glyph>
<glyph name="uniE90A" format="2">
  <advance width="250"/>
  <unicode hex="E90A"/>
  <outline>
    <contour>
      <point x="250" y="-550" type="curve" smooth="yes"/>
      <point x="250" y="540" type="line" smooth="yes"/>
      <point x="250" y="547"/>
      <point x="239" y="550"/>
      <point x="232" y="550" type="curve" smooth="yes"/>
      <point x="225" y="550"/>
      <point x="215" y="547"/>
      <point x="215" y="540" type="curve" smooth="yes"/>
      <point x="215" y="300" type="line" smooth="yes"/>
      <point x="215" y="281"/>
      <point x="207" y="263"/>
      <point x="190" y="263" type="curve" smooth="yes"/>
      <point x="60" y="263" type="line" smooth="yes"/>
      <point x="43" y="263"/>
      <point x="35" y="281"/>
      <point x="35" y="300" type="curve" smooth="yes"/>
      <point x="35" y="590" type="line" smooth="yes"/>
      <point x="35" y="597"/>
      <point x="25" y="600"/>
      <point x="18" y="600" type="curve" smooth="yes"/>
      <point x="11" y="600"/>
      <point x="0" y="597"/>
      <point x="0" y="590" type="curve" smooth="yes"/>
      <point x="0" y="-790" type="line" smooth="yes"/>
      <point x="0" y="-797"/>
      <point x="11" y="-800"/>
      <point x="18" y="-800" type="curve" smooth="yes"/>
      <point x="25" y="-800"/>
      <point x="35" y="-797"/>
      <point x="35" y="-790" type="curve" smooth="yes"/>
      <point x="35" y="-300" type="line" smooth="yes"/>
      <point x="35" y="-281"/>
      <point x="43" y="-263"/>
      <point x="60" y="-263" type="curve" smooth="yes"/>
      <point x="190" y="-263" type="line" smooth="yes"/>
      <point x="207" y="-263"/>
      <point x="215" y="-281"/>
      <point x="215" y="-300" type="curve" smooth="yes"/>
      <point x="215" y="-550" type="line" smooth="yes"/>
      <point x="215" y="-557"/>
      <point x="225" y="-560"/>
      <point x="232" y="-560" type="curve" smooth="yes"/>
      <point x="239" y="-560"/>
      <point x="250" y="-557"/>
    </contour>
    <contour>
      <point x="35" y="100" type="curve" smooth="yes"/>
      <point x="35" y="150" type="line" smooth="yes"/>
      <point x="35" y="164"/>
      <point x="46" y="175"/>
      <point x="60" y="175" type="curve" smooth="yes"/>
      <point x="190" y="175" type="line" smooth="yes"/>
      <point x="204" y="175"/>
      <point x="215" y="164"/>
      <point x="215" y="150" type="curve" smooth="yes"/>
      <point x="215" y="100" type="line" smooth="yes"/>
      <point x="215" y="86"/>
      <point x="204" y="75"/>
      <point x="190" y="75" type="curve" smooth="yes"/>
      <point x="60" y="75" type="line" smooth="yes"/>
      <point x="46" y="75"/>
      <point x="35" y="86"/>
    </contour>
    <contour>
      <point x="35" y="-150" type="curve" smooth="yes"/>
      <point x="35" y="-100" type="line" smooth="yes"/>
      <point x="35" y="-86"/>
      <point x="46" y="-75"/>
      <point x="60" y="-75" type="curve" smooth="yes"/>
      <point x="190" y="-75" type="line" smooth="yes"/>
      <point x="204" y="-75"/>
      <point x="215" y="-86"/>
      <point x="215" y="-100" type="curve" smooth="yes"/>
      <point x="215" y="-150" type="line" smooth="yes"/>
      <point x="215" y="-164"/>
      <point x="204" y="-175"/>
      <point x="190" y="-175" type="curve" smooth="yes"/>
      <point x="60" y="-175" type="line" smooth="yes"/>
      <point x="46" y="-175"/>
      <point x="35" y="-164"/>
    </contour>
  </outline>
</glyph>
<glyph name="uniE90B" format="2">
  <advance width="250"/>
  <unicode hex="E90B"/>
  <outline>
    <contour>
      <point x="250" y="-550" type="curve" smooth="yes"/>
      <point x="250" y="300" type="line" smooth="yes"/>
      <point x="250" y="312"/>
      <point x="241" y="318"/>
      <point x="232" y="318" type="curve" smooth="yes"/>
      <point x="223" y="318"/>
      <point x="215" y="312"/>
      <point x="215" y="300" type="curve" smooth="yes"/>
      <point x="215" y="281"/>
      <point x="207" y="263"/>
      <point x="190" y="263" type="curve" smooth="yes"/>
      <point x="60" y="263" type="line" smooth="yes"/>
      <point x="43" y="263"/>
      <point x="35" y="281"/>
      <point x="35" y="300" type="curve" smooth="yes"/>
      <point x="35" y="340" type="line" smooth="yes"/>
      <point x="35" y="347"/>
      <point x="25" y="350"/>
      <point x="18" y="350" type="curve" smooth="yes"/>
      <point x="11" y="350"/>
      <point x="0" y="347"/>
      <point x="0" y="340" type="curve" smooth="yes"/>
      <point x="0" y="-790" type="line" smooth="yes"/>
      <point x="0" y="-797"/>
      <point x="11" y="-800"/>
      <point x="18" y="-800" type="curve" smooth="yes"/>
      <point x="25" y="-800"/>
      <point x="35" y="-797"/>
      <point x="35" y="-790" type="curve" smooth="yes"/>
      <point x="35" y="-300" type="line" smooth="yes"/>
      <point x="35" y="-281"/>
      <point x="43" y="-263"/>
      <point x="60" y="-263" type="curve" smooth="yes"/>
      <point x="190" y="-263" type="line" smooth="yes"/>
      <point x="207" y="-263"/>
      <point x="215" y="-281"/>
      <point x="215" y="-300" type="curve" smooth="yes"/>
      <point x="215" y="-550" type="line" smooth="yes"/>
      <point x="215" y="-557"/>
      <point x="225" y="-560"/>
      <point x="232" y="-560" type="curve" smooth="yes"/>
      <point x="239" y="-560"/>
      <point x="250" y="-557"/>
    </contour>
    <contour>
      <point x="35" y="100" type="curve" smooth="yes"/>
      <point x="35" y="150" type="line" smooth="yes"/>
      <point x="35" y="164"/>
      <point x="46" y="175"/>
      <point x="60" y="175" type="curve" smooth="yes"/>
      <point x="190" y="175" type="line" smooth="yes"/>
      <point x="204" y="175"/>
      <point x="215" y="164"/>
      <point x="215" y="150" type="curve" smooth="yes"/>
      <point x="215" y="100" type="line" smooth="yes"/>
      <point x="215" y="86"/>
      <point x="204" y="75"/>
      <point x="190" y="75" type="curve" smooth="yes"/>
      <point x="60" y="75" type="line" smooth="yes"/>
      <point x="46" y="75"/>
      <point x="35" y="86"/>
    </contour>
    <contour>
      <point x="35" y="-150" type="curve" smooth="yes"/>
      <point x="35" y="-100" type="line" smooth="yes"/>
      <point x="35" y="-86"/>
      <point x="46" y="-75"/>
      <point x="60" y="-75" type="curve" smooth="yes"/>
      <point x="190" y="-75" type="line" smooth="yes"/>
      <point x="204" y="-75"/>
      <point x="215" y="-86"/>
      <point x="215" y="-100" type="curve" smooth="yes"/>
      <point x="215" y="-150" type="line" smooth="yes"/>
      <point x="215" y="-164"/>
      <point x="204" y="-175"/>
      <point x="190" y="-175" type="curve" smooth="yes"/>
      <point x="60" y="-175" type="line" smooth="yes"/>
      <point x="46" y="-175"/>
      <point x="35" y="-164"/>
    </contour>
  </outline>
</glyph>
<glyph name="uniE910" format="2">
  <advance width="432"/>
  <unicode hex="E910"/>
  <outline>
    <contour>
      <point x="216" y="198" type="curve" smooth="yes"/>
      <point x="102" y="198"/>
      <point x="0" y="118"/>
      <point x="0" y="0" type="curve" smooth="yes"/>
      <point x="0" y="-118"/>
      <point x="102" y="-198"/>
      <point x="216" y="-198" type="curve" smooth="yes"/>
      <point x="330" y="-198"/>
      <point x="433" y="-119"/>
      <point x="433" y="-2" type="curve" smooth="yes"/>
      <point x="433" y="2" type="line" smooth="yes"/>
      <point x="433" y="119"/>
      <point x="330" y="198"/>
    </contour>
    <contour>
      <point x="217" y="-166" type="curve" smooth="yes"/>
      <point x="134" y="-166"/>
      <point x="68" y="-81"/>
      <point x="68" y="0" type="curve" smooth="yes"/>
      <point x="68" y="81"/>
      <point x="134" y="166"/>
      <point x="217" y="166" type="curve" smooth="yes"/>
      <point x="299" y="166"/>
      <point x="365" y="80"/>
      <point x="365" y="0" type="curve" smooth="yes"/>
      <point x="365" y="-80"/>
      <point x="299" y="-166"/>
    </contour>
    <contour>
      <point x="162" y="0" type="curve" smooth="yes"/>
      <point x="162" y="-28"/>
      <point x="185" y="-50"/>
      <point x="213" y="-50" type="curve" smooth="yes"/>
      <point x="241" y="-50"/>
      <point x="263" y="-28"/>
      <point x="263" y="0" type="curve" smooth="yes"/>
      <point x="263" y="28"/>
      <point x="241" y="50"/>
      <point x="213" y="50" type="curve" smooth="yes"/>
      <point x="185" y="50"/>
      <point x="162" y="28"/>
    </contour>
  </outline>
</glyph>
<glyph name="uniE911" format="2">
  <advance width="432"/>
  <unicode hex="E911"/>
  <outline>
    <contour>
      <point x="216" y="198" type="curve" smooth="yes"/>
      <point x="102" y="198"/>
      <point x="0" y="118"/>
      <point x="0" y="0" type="curve" smooth="yes"/>
      <point x="0" y="-118"/>
      <point x="102" y="-198"/>
      <point x="216" y="-198" type="curve" smooth="yes"/>
      <point x="330" y="-198"/>
      <point x="433" y="-119"/>
      <point x="433" y="-2" type="curve" smooth="yes"/>
      <point x="433" y="2" type="line" smooth="yes"/>
      <point x="433" y="119"/>
      <point x="330" y="198"/>
    </contour>
    <contour>
      <point x="217" y="-166" type="curve" smooth="yes"/>
      <point x="134" y="-166"/>
      <point x="68" y="-81"/>
      <point x="68" y="0" type="curve" smooth="yes"/>
      <point x="68" y="81"/>
      <point x="134" y="166"/>
      <point x="217" y="166" type="curve" smooth="yes"/>
      <point x="299" y="166"/>
      <point x="365" y="80"/>
      <point x="365" y="0" type="curve" smooth="yes"/>
      <point x="365" y="-80"/>
      <point x="299" y="-166"/>
    </contour>
  </outline>
</glyph>
<glyph name="uniE912" format="2">
  <advance width="425"/>
  <unicode hex="E912"/>
  <outline>
    <contour>
      <point x="238" y="-196.981" type="line"/>
      <point x="342.914" y="-187.563"/>
      <point x="433" y="-111.415"/>
      <point x="433" y="-2" type="curve" smooth="yes"/>
      <point x="433" y="2" type="line" smooth="yes"/>
      <point x="433" y="111.415"/>
      <point x="342.914" y="187.563"/>
      <point x="238" y="196.981" type="curve"/>
      <point x="238" y="299" type="line" smooth="yes"/>
      <point x="238" y="330"/>
      <point x="265" y="357"/>
      <point x="265" y="386" type="curve" smooth="yes"/>
      <point x="265" y="395"/>
      <point x="262" y="409"/>
      <point x="253" y="409" type="curve" smooth="yes"/>
      <point x="172" y="409" type="line" smooth="yes"/>
      <point x="163" y="409"/>
      <point x="160" y="395"/>
      <point x="160" y="386" type="curve" smooth="yes"/>
      <point x="160" y="357"/>
      <point x="188" y="330"/>
      <point x="188" y="299" type="curve" smooth="yes"/>
      <point x="188" y="196.349" type="line"/>
      <point x="85.0704" y="184.379"/>
      <point x="0" y="107.509"/>
      <point x="0" y="0" type="curve" smooth="yes"/>
      <point x="0" y="-107.511"/>
      <point x="85.0671" y="-184.379"/>
      <point x="188" y="-196.349" type="curve"/>
      <point x="188" y="-399" type="line" smooth="yes"/>
      <point x="188" y="-404"/>
      <point x="192" y="-409"/>
      <point x="197" y="-409" type="curve" smooth="yes"/>
      <point x="228" y="-409" type="line" smooth="yes"/>
      <point x="233" y="-409"/>
      <point x="238" y="-404"/>
      <point x="238" y="-399" type="curve" smooth="yes"/>
    </contour>
    <contour>
      <point x="238" y="164.055" type="line"/>
      <point x="309.381" y="150.981"/>
      <point x="365" y="73"/>
      <point x="365" y="0" type="curve" smooth="yes"/>
      <point x="365" y="-73"/>
      <point x="309.381" y="-150.981"/>
      <point x="238" y="-164.055" type="curve"/>
    </contour>
    <contour>
      <point x="188" y="-162.472" type="line"/>
      <point x="119.144" y="-145.673"/>
      <point x="68" y="-71.2986"/>
      <point x="68" y="0" type="curve" smooth="yes"/>
      <point x="68" y="71.2986"/>
      <point x="119.144" y="145.673"/>
      <point x="188" y="162.472" type="curve"/>
    </contour>
  </outline>
</glyph>
<glyph name="uniE913" format="2">
  <advance width="425"/>
  <unicode hex="E913"/>
  <outline>
    <contour>
      <point x="238" y="-196.981" type="line"/>
      <point x="342.914" y="-187.563"/>
      <point x="433" y="-111"/>
      <point x="433" y="-2" type="curve" smooth="yes"/>
      <point x="433" y="2" type="line" smooth="yes"/>
      <point x="433" y="111"/>
      <point x="342.914" y="187.563"/>
      <point x="238" y="196.981" type="curve"/>
      <point x="238" y="299" type="line" smooth="yes"/>
      <point x="238" y="330"/>
      <point x="265" y="357"/>
      <point x="265" y="386" type="curve" smooth="yes"/>
      <point x="265" y="395"/>
      <point x="262" y="409"/>
      <point x="253" y="409" type="curve" smooth="yes"/>
      <point x="172" y="409" type="line" smooth="yes"/>
      <point x="163" y="409"/>
      <point x="160" y="395"/>
      <point x="160" y="386" type="curve" smooth="yes"/>
      <point x="160" y="357"/>
      <point x="188" y="330"/>
      <point x="188" y="299" type="curve" smooth="yes"/>
      <point x="188" y="196.349" type="line"/>
      <point x="85.0704" y="184.379"/>
      <point x="0" y="108"/>
      <point x="0" y="0" type="curve" smooth="yes"/>
      <point x="0" y="-108"/>
      <point x="85.0671" y="-184.379"/>
      <point x="188" y="-196.349" type="curve"/>
      <point x="188" y="-399" type="line" smooth="yes"/>
      <point x="188" y="-404"/>
      <point x="192" y="-409"/>
      <point x="197" y="-409" type="curve" smooth="yes"/>
      <point x="228" y="-409" type="line" smooth="yes"/>
      <point x="233" y="-409"/>
      <point x="238" y="-404"/>
      <point x="238" y="-399" type="curve" smooth="yes"/>
    </contour>
    <contour>
      <point x="238" y="-47" type="line"/>
      <point x="253" y="-38"/>
      <point x="267" y="-19"/>
      <point x="267" y="0" type="curve" smooth="yes"/>
      <point x="267" y="19"/>
      <point x="253" y="38"/>
      <point x="238" y="47" type="curve"/>
      <point x="238" y="164.055" type="line"/>
      <point x="309.381" y="150.981"/>
      <point x="365" y="73"/>
      <point x="365" y="0" type="curve" smooth="yes"/>
      <point x="365" y="-73"/>
      <point x="309.381" y="-150.981"/>
      <point x="238" y="-164.055" type="curve"/>
    </contour>
    <contour>
      <point x="188" y="-162.472" type="line"/>
      <point x="119.144" y="-145.673"/>
      <point x="68" y="-71"/>
      <point x="68" y="0" type="curve" smooth="yes"/>
      <point x="68" y="71"/>
      <point x="119.144" y="145.673"/>
      <point x="188" y="162.472" type="curve"/>
      <point x="188" y="47" type="line"/>
      <point x="173" y="38"/>
      <point x="158" y="19"/>
      <point x="158" y="0" type="curve" smooth="yes"/>
      <point x="158" y="-19"/>
      <point x="173" y="-38"/>
      <point x="188" y="-47" type="curve"/>
    </contour>
  </outline>
</glyph>
<glyph name="uniE914" format="2">
  <advance width="425"/>
  <unicode hex="E914"/>
  <outline>
    <contour>
      <point x="162" y="0" type="curve" smooth="yes"/>
      <point x="162" y="-28"/>
      <point x="185" y="-50"/>
      <point x="213" y="-50" type="curve" smooth="yes"/>
      <point x="241" y="-50"/>
      <point x="263" y="-28"/>
      <point x="263" y="0" type="curve" smooth="yes"/>
      <point x="263" y="28"/>
      <point x="241" y="50"/>
      <point x="213" y="50" type="curve" smooth="yes"/>
      <point x="185" y="50"/>
      <point x="162" y="28"/>
    </contour>
    <contour>
      <point x="379" y="129" type="curve" smooth="yes"/>
      <point x="379" y="135"/>
      <point x="377" y="138"/>
      <point x="374" y="139" type="curve"/>
      <point x="333" y="179"/>
      <point x="274" y="198"/>
      <point x="217" y="198" type="curve" smooth="yes"/>
      <point x="102" y="198"/>
      <point x="0" y="119"/>
      <point x="0" y="0" type="curve" smooth="yes"/>
      <point x="0" y="-119"/>
      <point x="102" y="-198"/>
      <point x="217" y="-198" type="curve" smooth="yes"/>
      <point x="274" y="-198"/>
      <point x="333" y="-179"/>
      <point x="374" y="-139" type="curve"/>
      <point x="374" y="-139"/>
      <point x="379" y="-135"/>
      <point x="379" y="-129" type="curve" smooth="yes"/>
      <point x="379" y="-118"/>
      <point x="355" y="-113"/>
      <point x="345" y="-113" type="curve" smooth="yes"/>
      <point x="334" y="-113"/>
      <point x="321" y="-114"/>
      <point x="315" y="-120" type="curve"/>
      <point x="288" y="-147"/>
      <point x="254" y="-166"/>
      <point x="216" y="-166" type="curve" smooth="yes"/>
      <point x="134" y="-166"/>
      <point x="68" y="-81"/>
      <point x="68" y="0" type="curve" smooth="yes"/>
      <point x="68" y="81"/>
      <point x="134" y="166"/>
      <point x="216" y="166" type="curve" smooth="yes"/>
      <point x="254" y="166"/>
      <point x="288" y="147"/>
      <point x="315" y="120" type="curve"/>
      <point x="321" y="114"/>
      <point x="334" y="113"/>
      <point x="345" y="113" type="curve" smooth="yes"/>
      <point x="355" y="113"/>
      <point x="379" y="118"/>
    </contour>
  </outline>
</glyph>
<glyph name="uniE915" format="2">
  <advance width="434"/>
  <unicode hex="E915"/>
  <outline>
    <contour>
      <point x="379" y="129" type="curve" smooth="yes"/>
      <point x="379" y="135"/>
      <point x="377" y="138"/>
      <point x="374" y="139" type="curve"/>
      <point x="333" y="179"/>
      <point x="274" y="198"/>
      <point x="217" y="198" type="curve" smooth="yes"/>
      <point x="102" y="198"/>
      <point x="0" y="119"/>
      <point x="0" y="0" type="curve" smooth="yes"/>
      <point x="0" y="-119"/>
      <point x="102" y="-198"/>
      <point x="217" y="-198" type="curve" smooth="yes"/>
      <point x="274" y="-198"/>
      <point x="333" y="-179"/>
      <point x="374" y="-139" type="curve"/>
      <point x="374" y="-139"/>
      <point x="379" y="-135"/>
      <point x="379" y="-129" type="curve" smooth="yes"/>
      <point x="379" y="-118"/>
      <point x="355" y="-113"/>
      <point x="345" y="-113" type="curve" smooth="yes"/>
      <point x="334" y="-113"/>
      <point x="321" y="-114"/>
      <point x="315" y="-120" type="curve"/>
      <point x="288" y="-147"/>
      <point x="254" y="-166"/>
      <point x="216" y="-166" type="curve" smooth="yes"/>
      <point x="134" y="-166"/>
      <point x="68" y="-81"/>
      <point x="68" y="0" type="curve" smooth="yes"/>
      <point x="68" y="81"/>
      <point x="134" y="166"/>
      <point x="216" y="166" type="curve" smooth="yes"/>
      <point x="254" y="166"/>
      <point x="288" y="147"/>
      <point x="315" y="120" type="curve"/>
      <point x="321" y="114"/>
      <point x="334" y="113"/>
      <point x="345" y="113" type="curve" smooth="yes"/>
      <point x="355" y="113"/>
      <point x="379" y="118"/>
    </contour>
  </outline>
</glyph>
<glyph name="uniE916" format="2">
  <advance width="379"/>
  <unicode hex="E916"/>
  <outline>
    <contour>
      <point x="0" y="129" type="curve" smooth="yes"/>
      <point x="0" y="118"/>
      <point x="24" y="113"/>
      <point x="34" y="113" type="curve" smooth="yes"/>
      <point x="45" y="113"/>
      <point x="58" y="114"/>
      <point x="64" y="120" type="curve"/>
      <point x="91" y="147"/>
      <point x="125" y="166"/>
      <point x="163" y="166" type="curve" smooth="yes"/>
      <point x="245" y="166"/>
      <point x="311" y="81"/>
      <point x="311" y="0" type="curve" smooth="yes"/>
      <point x="311" y="-81"/>
      <point x="245" y="-166"/>
      <point x="163" y="-166" type="curve" smooth="yes"/>
      <point x="125" y="-166"/>
      <point x="91" y="-147"/>
      <point x="64" y="-120" type="curve"/>
      <point x="58" y="-114"/>
      <point x="45" y="-113"/>
      <point x="34" y="-113" type="curve" smooth="yes"/>
      <point x="24" y="-113"/>
      <point x="0" y="-118"/>
      <point x="0" y="-129" type="curve" smooth="yes"/>
      <point x="0" y="-135"/>
      <point x="5" y="-139"/>
      <point x="5" y="-139" type="curve"/>
      <point x="46" y="-179"/>
      <point x="105" y="-198"/>
      <point x="162" y="-198" type="curve" smooth="yes"/>
      <point x="277" y="-198"/>
      <point x="379" y="-119"/>
      <point x="379" y="0" type="curve" smooth="yes"/>
      <point x="379" y="119"/>
      <point x="277" y="198"/>
      <point x="162" y="198" type="curve" smooth="yes"/>
      <point x="105" y="198"/>
      <point x="46" y="179"/>
      <point x="5" y="139" type="curve"/>
      <point x="2" y="138"/>
      <point x="0" y="135"/>
    </contour>
  </outline>
</glyph>
<glyph name="uniE917" format="2">
  <advance width="425"/>
  <unicode hex="E917"/>
  <outline>
    <contour>
      <point x="379" y="129" type="curve" smooth="yes"/>
      <point x="379" y="135"/>
      <point x="377" y="138"/>
      <point x="374" y="139" type="curve"/>
      <point x="338" y="174"/>
      <point x="288" y="193"/>
      <point x="238" y="197" type="curve"/>
      <point x="238" y="299" type="line" smooth="yes"/>
      <point x="238" y="330"/>
      <point x="265" y="357"/>
      <point x="265" y="386" type="curve" smooth="yes"/>
      <point x="265" y="395"/>
      <point x="262" y="409"/>
      <point x="253" y="409" type="curve" smooth="yes"/>
      <point x="172" y="409" type="line" smooth="yes"/>
      <point x="163" y="409"/>
      <point x="160" y="395" name="hr01"/>
      <point x="160" y="386" type="curve" smooth="yes"/>
      <point x="160" y="357"/>
      <point x="188" y="330" name="hr02"/>
      <point x="188" y="299" type="curve" smooth="yes"/>
      <point x="188" y="196" type="line"/>
      <point x="85" y="184"/>
      <point x="0" y="108"/>
      <point x="0" y="0" type="curve" smooth="yes"/>
      <point x="0" y="-108"/>
      <point x="85" y="-184"/>
      <point x="188" y="-196" type="curve"/>
      <point x="188" y="-399" type="line" smooth="yes"/>
      <point x="188" y="-404"/>
      <point x="192" y="-409"/>
      <point x="197" y="-409" type="curve" smooth="yes"/>
      <point x="228" y="-409" type="line" smooth="yes"/>
      <point x="233" y="-409"/>
      <point x="238" y="-404"/>
      <point x="238" y="-399" type="curve" smooth="yes"/>
      <point x="238" y="-197" type="line"/>
      <point x="288" y="-193"/>
      <point x="338" y="-174"/>
      <point x="374" y="-139" type="curve"/>
      <point x="374" y="-139"/>
      <point x="379" y="-135"/>
      <point x="379" y="-129" type="curve" smooth="yes"/>
      <point x="379" y="-118"/>
      <point x="355" y="-113"/>
      <point x="345" y="-113" type="curve" smooth="yes"/>
      <point x="334" y="-113"/>
      <point x="321" y="-114"/>
      <point x="315" y="-120" type="curve" smooth="yes"/>
      <point x="293" y="-142"/>
      <point x="267" y="-158"/>
      <point x="238" y="-164" type="curve"/>
      <point x="238" y="-48" type="line"/>
      <point x="253" y="-39"/>
      <point x="269" y="-19"/>
      <point x="269" y="0" type="curve" smooth="yes"/>
      <point x="269" y="19"/>
      <point x="253" y="38"/>
      <point x="238" y="47" type="curve"/>
      <point x="238" y="164" type="line"/>
      <point x="267" y="158"/>
      <point x="293" y="142"/>
      <point x="315" y="120" type="curve" smooth="yes"/>
      <point x="321" y="114"/>
      <point x="334" y="113"/>
      <point x="345" y="113" type="curve" smooth="yes"/>
      <point x="355" y="113"/>
      <point x="379" y="118"/>
    </contour>
    <contour>
      <point x="188" y="-163" type="line"/>
      <point x="119" y="-147"/>
      <point x="68" y="-72"/>
      <point x="68" y="0" type="curve" smooth="yes"/>
      <point x="68" y="72"/>
      <point x="119" y="147"/>
      <point x="188" y="163" type="curve"/>
      <point x="188" y="47" type="line"/>
      <point x="173" y="38"/>
      <point x="157" y="19"/>
      <point x="157" y="0" type="curve" smooth="yes"/>
      <point x="157" y="-19"/>
      <point x="173" y="-39"/>
      <point x="188" y="-48" type="curve"/>
    </contour>
  </outline>
</glyph>
<glyph name="uniE918" format="2">
  <advance width="425"/>
  <unicode hex="E918"/>
  <outline>
    <contour>
      <point x="379" y="129" type="curve" smooth="yes"/>
      <point x="379" y="135"/>
      <point x="377" y="138"/>
      <point x="374" y="139" type="curve"/>
      <point x="333" y="179"/>
      <point x="278" y="198"/>
      <point x="221" y="198" type="curve"/>
      <point x="220" y="198"/>
      <point x="218" y="198"/>
      <point x="217" y="198" type="curve"/>
      <point x="217" y="299" type="line" smooth="yes"/>
      <point x="217" y="330"/>
      <point x="244" y="357"/>
      <point x="244" y="386" type="curve" smooth="yes"/>
      <point x="244" y="395"/>
      <point x="241" y="409"/>
      <point x="232" y="409" type="curve" smooth="yes"/>
      <point x="150" y="409" type="line" smooth="yes"/>
      <point x="141" y="409"/>
      <point x="138" y="395"/>
      <point x="138" y="386" type="curve" smooth="yes"/>
      <point x="138" y="357"/>
      <point x="165" y="330"/>
      <point x="165" y="299" type="curve" smooth="yes"/>
      <point x="165" y="195" type="line"/>
      <point x="72" y="174"/>
      <point x="0" y="97"/>
      <point x="0" y="0" type="curve" smooth="yes"/>
      <point x="0" y="-98"/>
      <point x="72" y="-174"/>
      <point x="165" y="-195" type="curve"/>
      <point x="165" y="-399" type="line" smooth="yes"/>
      <point x="165" y="-404"/>
      <point x="170" y="-409"/>
      <point x="175" y="-409" type="curve" smooth="yes"/>
      <point x="207" y="-409" type="line" smooth="yes"/>
      <point x="212" y="-409"/>
      <point x="217" y="-404"/>
      <point x="217" y="-399" type="curve" smooth="yes"/>
      <point x="217" y="-198" type="line"/>
      <point x="218" y="-198"/>
      <point x="220" y="-198"/>
      <point x="221" y="-198" type="curve"/>
      <point x="278" y="-198"/>
      <point x="333" y="-179"/>
      <point x="374" y="-139" type="curve"/>
      <point x="374" y="-139"/>
      <point x="379" y="-135"/>
      <point x="379" y="-129" type="curve" smooth="yes"/>
      <point x="379" y="-118"/>
      <point x="355" y="-113"/>
      <point x="345" y="-113" type="curve" smooth="yes"/>
      <point x="334" y="-113"/>
      <point x="321" y="-114"/>
      <point x="315" y="-120" type="curve" smooth="yes"/>
      <point x="288" y="-147"/>
      <point x="258" y="-166"/>
      <point x="220" y="-166" type="curve"/>
      <point x="219" y="-166"/>
      <point x="218" y="-166"/>
      <point x="217" y="-166" type="curve"/>
      <point x="217" y="166" type="line"/>
      <point x="218" y="166"/>
      <point x="219" y="166"/>
      <point x="220" y="166" type="curve"/>
      <point x="258" y="166"/>
      <point x="288" y="147"/>
      <point x="315" y="120" type="curve" smooth="yes"/>
      <point x="321" y="114"/>
      <point x="334" y="113"/>
      <point x="345" y="113" type="curve" smooth="yes"/>
      <point x="355" y="113"/>
      <point x="379" y="118"/>
    </contour>
    <contour>
      <point x="165" y="-157" type="line"/>
      <point x="110" y="-131"/>
      <point x="68" y="-62"/>
      <point x="68" y="0" type="curve" smooth="yes"/>
      <point x="68" y="62"/>
      <point x="110" y="130"/>
      <point x="165" y="156" type="curve"/>
    </contour>
  </outline>
</glyph>
<glyph name="uniE919" format="2">
  <advance width="425"/>
  <unicode hex="E919"/>
  <outline>
    <contour>
      <point x="425" y="0" type="curve" smooth="yes"/>
      <point x="425" y="97.6252"/>
      <point x="355.703" y="170.571"/>
      <point x="263" y="191.793" type="curve"/>
      <point x="263" y="299" type="line" smooth="yes"/>
      <point x="263" y="330"/>
      <point x="290" y="357"/>
      <point x="290" y="386" type="curve" smooth="yes"/>
      <point x="290" y="395"/>
      <point x="287" y="409"/>
      <point x="278" y="409" type="curve" smooth="yes"/>
      <point x="197" y="409" type="line" smooth="yes"/>
      <point x="188" y="409"/>
      <point x="185" y="395"/>
      <point x="185" y="386" type="curve" smooth="yes"/>
      <point x="185" y="357"/>
      <point x="213" y="330"/>
      <point x="213" y="299" type="curve" smooth="yes"/>
      <point x="213" y="197.914" type="line"/>
      <point x="211.334" y="197.948"/>
      <point x="209.672" y="198"/>
      <point x="208" y="198" type="curve" smooth="yes"/>
      <point x="151" y="198"/>
      <point x="92" y="179"/>
      <point x="51" y="139" type="curve"/>
      <point x="48" y="138"/>
      <point x="46" y="135"/>
      <point x="46" y="129" type="curve" smooth="yes"/>
      <point x="46" y="118"/>
      <point x="70" y="113"/>
      <point x="80" y="113" type="curve" smooth="yes"/>
      <point x="91" y="113"/>
      <point x="104" y="114"/>
      <point x="110" y="120" type="curve" smooth="yes"/>
      <point x="137" y="147"/>
      <point x="171" y="166"/>
      <point x="209" y="166" type="curve" smooth="yes"/>
      <point x="210.338" y="166"/>
      <point x="211.67" y="165.969"/>
      <point x="213" y="165.924" type="curve"/>
      <point x="213" y="-165.924" type="line"/>
      <point x="211.671" y="-165.969"/>
      <point x="210.338" y="-166"/>
      <point x="209" y="-166" type="curve" smooth="yes"/>
      <point x="171" y="-166"/>
      <point x="137" y="-147"/>
      <point x="110" y="-120" type="curve" smooth="yes"/>
      <point x="104" y="-114"/>
      <point x="91" y="-113"/>
      <point x="80" y="-113" type="curve" smooth="yes"/>
      <point x="70" y="-113"/>
      <point x="46" y="-118"/>
      <point x="46" y="-129" type="curve" smooth="yes"/>
      <point x="46" y="-134.958"/>
      <point x="50.9299" y="-138.944"/>
      <point x="51" y="-139" type="curve"/>
      <point x="92" y="-179"/>
      <point x="151" y="-198"/>
      <point x="208" y="-198" type="curve" smooth="yes"/>
      <point x="209.672" y="-198"/>
      <point x="211.334" y="-197.948"/>
      <point x="213" y="-197.914" type="curve"/>
      <point x="213" y="-399" type="line" smooth="yes"/>
      <point x="213" y="-404"/>
      <point x="217" y="-409"/>
      <point x="222" y="-409" type="curve" smooth="yes"/>
      <point x="253" y="-409" type="line" smooth="yes"/>
      <point x="258" y="-409"/>
      <point x="263" y="-404"/>
      <point x="263" y="-399" type="curve" smooth="yes"/>
      <point x="263" y="-191.793" type="line"/>
      <point x="355.538" y="-170.609"/>
      <point x="425" y="-97.4835"/>
    </contour>
    <contour>
      <point x="263" y="153.29" type="line"/>
      <point x="318.13" y="126.635"/>
      <point x="357" y="62.1528"/>
      <point x="357" y="0" type="curve" smooth="yes"/>
      <point x="357" y="-62.1528"/>
      <point x="318.13" y="-126.635"/>
      <point x="263" y="-153.29" type="curve"/>
    </contour>
  </outline>
</glyph>
<glyph name="uniE91A" format="2">
  <advance width="425"/>
  <unicode hex="E91A"/>
  <outline>
    <contour>
      <point x="46" y="129" type="curve" smooth="yes"/>
      <point x="46" y="118"/>
      <point x="70" y="113"/>
      <point x="80" y="113" type="curve" smooth="yes"/>
      <point x="91" y="113"/>
      <point x="104" y="114"/>
      <point x="110" y="120" type="curve" smooth="yes"/>
      <point x="137" y="147"/>
      <point x="171" y="166"/>
      <point x="209" y="166" type="curve" smooth="yes"/>
      <point x="291" y="166"/>
      <point x="357" y="81"/>
      <point x="357" y="0" type="curve" smooth="yes"/>
      <point x="357" y="-81"/>
      <point x="291" y="-166"/>
      <point x="209" y="-166" type="curve" smooth="yes"/>
      <point x="171" y="-166"/>
      <point x="137" y="-147"/>
      <point x="110" y="-120" type="curve" smooth="yes"/>
      <point x="104" y="-114"/>
      <point x="91" y="-113"/>
      <point x="80" y="-113" type="curve" smooth="yes"/>
      <point x="70" y="-113"/>
      <point x="46" y="-118"/>
      <point x="46" y="-129" type="curve" smooth="yes"/>
      <point x="46" y="-135"/>
      <point x="51" y="-139"/>
      <point x="51" y="-139" type="curve"/>
      <point x="92" y="-179"/>
      <point x="151" y="-198"/>
      <point x="208" y="-198" type="curve" smooth="yes"/>
      <point x="323" y="-198"/>
      <point x="425" y="-119"/>
      <point x="425" y="0" type="curve" smooth="yes"/>
      <point x="425" y="119"/>
      <point x="323" y="198"/>
      <point x="208" y="198" type="curve" smooth="yes"/>
      <point x="151" y="198"/>
      <point x="92" y="179"/>
      <point x="51" y="139" type="curve"/>
      <point x="48" y="138"/>
      <point x="46" y="135"/>
    </contour>
    <contour>
      <point x="162" y="0" type="curve" smooth="yes"/>
      <point x="162" y="-28"/>
      <point x="185" y="-50"/>
      <point x="213" y="-50" type="curve" smooth="yes"/>
      <point x="241" y="-50"/>
      <point x="263" y="-28"/>
      <point x="263" y="0" type="curve" smooth="yes"/>
      <point x="263" y="28"/>
      <point x="241" y="50"/>
      <point x="213" y="50" type="curve" smooth="yes"/>
      <point x="185" y="50"/>
      <point x="162" y="28"/>
    </contour>
  </outline>
</glyph>
<glyph name="uniE91B" format="2">
  <advance width="440"/>
  <unicode hex="E91B"/>
  <outline>
    <contour>
      <point x="440" y="213" type="curve" smooth="yes"/>
      <point x="440" y="223"/>
      <point x="430" y="232"/>
      <point x="420" y="232" type="curve" smooth="yes"/>
      <point x="413" y="232"/>
      <point x="411" y="232"/>
      <point x="406" y="227" type="curve" smooth="yes"/>
      <point x="6" y="-173" type="line" smooth="yes"/>
      <point x="4" y="-175"/>
      <point x="0" y="-183"/>
      <point x="0" y="-186" type="curve" smooth="yes"/>
      <point x="0" y="-197"/>
      <point x="8" y="-206"/>
      <point x="19" y="-206" type="curve" smooth="yes"/>
      <point x="22" y="-206"/>
      <point x="31" y="-203"/>
      <point x="33" y="-201" type="curve" smooth="yes"/>
      <point x="433" y="198" type="line" smooth="yes"/>
      <point x="436" y="201"/>
      <point x="440" y="208"/>
    </contour>
    <contour>
      <point x="221" y="-166" type="curve" smooth="yes"/>
      <point x="138" y="-166"/>
      <point x="72" y="-81"/>
      <point x="72" y="0" type="curve" smooth="yes"/>
      <point x="72" y="81"/>
      <point x="138" y="166"/>
      <point x="221" y="166" type="curve" smooth="yes"/>
      <point x="303" y="166"/>
      <point x="369" y="80"/>
      <point x="369" y="0" type="curve" smooth="yes"/>
      <point x="369" y="-80"/>
      <point x="303" y="-166"/>
    </contour>
    <contour>
      <point x="220" y="208" type="curve" smooth="yes"/>
      <point x="106" y="208"/>
      <point x="14" y="118"/>
      <point x="14" y="0" type="curve" smooth="yes"/>
      <point x="14" y="-118"/>
      <point x="106" y="-208"/>
      <point x="220" y="-208" type="curve" smooth="yes"/>
      <point x="334" y="-208"/>
      <point x="427" y="-119"/>
      <point x="427" y="-2" type="curve" smooth="yes"/>
      <point x="427" y="2" type="line" smooth="yes"/>
      <point x="427" y="119"/>
      <point x="334" y="208"/>
    </contour>
  </outline>
</glyph>
<glyph name="uniE91C" format="2">
  <advance width="605"/>
  <unicode hex="E91C"/>
  <outline>
    <contour>
      <point x="587" y="19" type="curve" smooth="yes"/>
      <point x="518" y="19" type="line"/>
      <point x="87" y="19" type="line"/>
      <point x="19" y="19" type="line" smooth="yes"/>
      <point x="9" y="19"/>
      <point x="0" y="11"/>
      <point x="0" y="0" type="curve" smooth="yes"/>
      <point x="0" y="-11"/>
      <point x="9" y="-20"/>
      <point x="19" y="-20" type="curve" smooth="yes"/>
      <point x="87" y="-20" type="line"/>
      <point x="518" y="-20" type="line"/>
      <point x="587" y="-20" type="line" smooth="yes"/>
      <point x="596" y="-20"/>
      <point x="605" y="-11"/>
      <point x="605" y="0" type="curve" smooth="yes"/>
      <point x="605" y="11"/>
      <point x="596" y="19"/>
    </contour>
    <contour>
      <point x="479" y="19" type="line"/>
      <point x="127" y="19" type="line"/>
    </contour>
    <contour>
      <point x="127" y="-20" type="line"/>
      <point x="479" y="-20" type="line"/>
    </contour>
    <contour>
      <point x="303" y="-166" type="curve" smooth="yes"/>
      <point x="220" y="-166"/>
      <point x="154" y="-81"/>
      <point x="154" y="0" type="curve" smooth="yes"/>
      <point x="154" y="81"/>
      <point x="220" y="166"/>
      <point x="303" y="166" type="curve" smooth="yes"/>
      <point x="385" y="166"/>
      <point x="451" y="80"/>
      <point x="451" y="0" type="curve" smooth="yes"/>
      <point x="451" y="-80"/>
      <point x="385" y="-166"/>
    </contour>
    <contour>
      <point x="302" y="208" type="curve" smooth="yes"/>
      <point x="188" y="208"/>
      <point x="96" y="118"/>
      <point x="96" y="0" type="curve" smooth="yes"/>
      <point x="96" y="-118"/>
      <point x="188" y="-208"/>
      <point x="302" y="-208" type="curve" smooth="yes"/>
      <point x="416" y="-208"/>
      <point x="509" y="-119"/>
      <point x="509" y="-2" type="curve" smooth="yes"/>
      <point x="509" y="2" type="line" smooth="yes"/>
      <point x="509" y="119"/>
      <point x="416" y="208"/>
    </contour>
  </outline>
</glyph>
<glyph name="uniE91D" format="2">
  <advance width="440"/>
  <unicode hex="E91D"/>
  <outline>
    <contour>
      <point x="434" y="214" type="curve" smooth="yes"/>
      <point x="429" y="219"/>
      <point x="423" y="219"/>
      <point x="421" y="219" type="curve"/>
      <point x="415" y="219"/>
      <point x="408" y="218"/>
      <point x="405" y="214" type="curve"/>
      <point x="365" y="172" type="line"/>
      <point x="327" y="201"/>
      <point x="282" y="216"/>
      <point x="234" y="216" type="curve" smooth="yes"/>
      <point x="115" y="216"/>
      <point x="18" y="118"/>
      <point x="18" y="0" type="curve" smooth="yes"/>
      <point x="18" y="-48"/>
      <point x="33" y="-93"/>
      <point x="61" y="-130" type="curve"/>
      <point x="6" y="-187" type="line"/>
      <point x="2" y="-192"/>
      <point x="0" y="-195"/>
      <point x="0" y="-200" type="curve" smooth="yes"/>
      <point x="0" y="-206"/>
      <point x="2" y="-211"/>
      <point x="6" y="-214" type="curve" smooth="yes"/>
      <point x="10" y="-217"/>
      <point x="15" y="-220"/>
      <point x="20" y="-220" type="curve" smooth="yes"/>
      <point x="24" y="-220"/>
      <point x="29" y="-217"/>
      <point x="33" y="-214" type="curve"/>
      <point x="88" y="-159" type="line"/>
      <point x="129" y="-195"/>
      <point x="179" y="-216" name="hr01"/>
      <point x="234" y="-216" type="curve" smooth="yes"/>
      <point x="310" y="-216"/>
      <point x="377" y="-177"/>
      <point x="419" y="-115" type="curve"/>
      <point x="421" y="-111"/>
      <point x="422" y="-108"/>
      <point x="422" y="-104" type="curve" smooth="yes"/>
      <point x="422" y="-94"/>
      <point x="411" y="-85"/>
      <point x="402" y="-85" type="curve" smooth="yes"/>
      <point x="394" y="-85"/>
      <point x="388" y="-89"/>
      <point x="385" y="-94" type="curve" smooth="yes"/>
      <point x="354" y="-146"/>
      <point x="295" y="-177"/>
      <point x="234" y="-177" type="curve" smooth="yes"/>
      <point x="190" y="-177"/>
      <point x="148" y="-160"/>
      <point x="115" y="-132" type="curve"/>
      <point x="366" y="117" type="line"/>
      <point x="371" y="112"/>
      <point x="378" y="105"/>
      <point x="383" y="97" type="curve"/>
      <point x="387" y="91"/>
      <point x="392" y="88"/>
      <point x="400" y="88" type="curve" smooth="yes"/>
      <point x="403" y="88"/>
      <point x="406" y="89"/>
      <point x="409" y="91" type="curve"/>
      <point x="416" y="94"/>
      <point x="420" y="101"/>
      <point x="420" y="108" type="curve" smooth="yes"/>
      <point x="420" y="117"/>
      <point x="402" y="138"/>
      <point x="393" y="147" type="curve"/>
      <point x="434" y="185" type="line"/>
      <point x="438" y="189"/>
      <point x="440" y="195"/>
      <point x="440" y="200" type="curve" smooth="yes"/>
      <point x="440" y="204"/>
      <point x="439" y="209"/>
    </contour>
    <contour>
      <point x="58" y="0" type="curve" smooth="yes"/>
      <point x="58" y="97"/>
      <point x="137" y="177"/>
      <point x="234" y="177" type="curve" smooth="yes"/>
      <point x="271" y="177"/>
      <point x="308" y="167"/>
      <point x="336" y="145" type="curve"/>
      <point x="90" y="-103" type="line"/>
      <point x="68" y="-73"/>
      <point x="58" y="-38"/>
    </contour>
  </outline>
</glyph>
<glyph name="uniE91E" format="2">
  <advance width="440"/>
  <unicode hex="E91E"/>
  <outline>
    <contour>
      <point x="434" y="215" type="curve"/>
      <point x="429" y="218"/>
      <point x="423" y="220"/>
      <point x="421" y="220" type="curve" smooth="yes"/>
      <point x="415" y="220"/>
      <point x="408" y="218"/>
      <point x="405" y="215" type="curve"/>
      <point x="365" y="172" type="line"/>
      <point x="327" y="202"/>
      <point x="282" y="217"/>
      <point x="233" y="217" type="curve" smooth="yes"/>
      <point x="115" y="217"/>
      <point x="18" y="118"/>
      <point x="18" y="0" type="curve" smooth="yes"/>
      <point x="18" y="-47"/>
      <point x="33" y="-93"/>
      <point x="61" y="-129" type="curve"/>
      <point x="6" y="-186" type="line"/>
      <point x="2" y="-191"/>
      <point x="0" y="-194"/>
      <point x="0" y="-199" type="curve" smooth="yes"/>
      <point x="0" y="-205"/>
      <point x="2" y="-211"/>
      <point x="6" y="-213" type="curve"/>
      <point x="9" y="-217"/>
      <point x="15" y="-219"/>
      <point x="20" y="-219" type="curve" smooth="yes"/>
      <point x="24" y="-219"/>
      <point x="29" y="-217"/>
      <point x="33" y="-213" type="curve" smooth="yes"/>
      <point x="88" y="-158" type="line"/>
      <point x="129" y="-194"/>
      <point x="179" y="-215"/>
      <point x="233" y="-215" type="curve" smooth="yes"/>
      <point x="310" y="-215"/>
      <point x="376" y="-176"/>
      <point x="419" y="-114" type="curve"/>
      <point x="422" y="-110"/>
      <point x="422" y="-107"/>
      <point x="422" y="-104" type="curve" smooth="yes"/>
      <point x="422" y="-98"/>
      <point x="418" y="-91"/>
      <point x="411" y="-87" type="curve"/>
      <point x="407" y="-85"/>
      <point x="404" y="-84"/>
      <point x="402" y="-84" type="curve" smooth="yes"/>
      <point x="394" y="-84"/>
      <point x="389" y="-88"/>
      <point x="385" y="-94" type="curve"/>
      <point x="353" y="-145"/>
      <point x="295" y="-176"/>
      <point x="233" y="-176" type="curve" smooth="yes"/>
      <point x="190" y="-176"/>
      <point x="148" y="-159"/>
      <point x="115" y="-131" type="curve"/>
      <point x="199" y="-46" type="line"/>
      <point x="206" y="-49"/>
      <point x="213" y="-50"/>
      <point x="219" y="-50" type="curve" smooth="yes"/>
      <point x="248" y="-50"/>
      <point x="270" y="-28"/>
      <point x="270" y="0" type="curve" smooth="yes"/>
      <point x="270" y="7"/>
      <point x="269" y="14"/>
      <point x="267" y="20" type="curve"/>
      <point x="366" y="118" type="line"/>
      <point x="371" y="113"/>
      <point x="378" y="106"/>
      <point x="383" y="98" type="curve"/>
      <point x="387" y="92"/>
      <point x="392" y="89"/>
      <point x="399" y="89" type="curve" smooth="yes"/>
      <point x="403" y="89"/>
      <point x="405" y="90"/>
      <point x="408" y="92" type="curve"/>
      <point x="415" y="95"/>
      <point x="419" y="102"/>
      <point x="419" y="109" type="curve" smooth="yes"/>
      <point x="419" y="113"/>
      <point x="418" y="115"/>
      <point x="415" y="118" type="curve"/>
      <point x="406" y="130"/>
      <point x="402" y="138"/>
      <point x="393" y="148" type="curve"/>
      <point x="434" y="186" type="line"/>
      <point x="438" y="189"/>
      <point x="440" y="196"/>
      <point x="440" y="201" type="curve" smooth="yes"/>
      <point x="440" y="205"/>
      <point x="438" y="210"/>
    </contour>
    <contour>
      <point x="58" y="0" type="curve" smooth="yes"/>
      <point x="58" y="97"/>
      <point x="136" y="178"/>
      <point x="233" y="178" type="curve" smooth="yes"/>
      <point x="271" y="178"/>
      <point x="308" y="168"/>
      <point x="336" y="146" type="curve"/>
      <point x="239" y="47" type="line"/>
      <point x="233" y="50"/>
      <point x="227" y="52"/>
      <point x="219" y="52" type="curve" smooth="yes"/>
      <point x="192" y="52"/>
      <point x="169" y="29"/>
      <point x="169" y="0" type="curve" smooth="yes"/>
      <point x="169" y="-6"/>
      <point x="169" y="-13"/>
      <point x="172" y="-19" type="curve"/>
      <point x="90" y="-102" type="line"/>
      <point x="68" y="-73"/>
      <point x="58" y="-37"/>
    </contour>
  </outline>
</glyph>
<glyph name="uniE91F" format="2">
  <advance width="442"/>
  <unicode hex="E91F"/>
  <outline>
    <contour>
      <point x="422" y="219" type="curve" smooth="yes"/>
      <point x="416" y="219"/>
      <point x="410" y="218"/>
      <point x="406" y="214" type="curve" smooth="yes"/>
      <point x="352" y="159" type="line"/>
      <point x="312" y="196"/>
      <point x="261" y="216"/>
      <point x="207" y="216" type="curve" smooth="yes"/>
      <point x="133" y="216"/>
      <point x="67" y="180"/>
      <point x="26" y="117" type="curve"/>
      <point x="24" y="115"/>
      <point x="23" y="111"/>
      <point x="23" y="108" type="curve" smooth="yes"/>
      <point x="23" y="101"/>
      <point x="26" y="94"/>
      <point x="31" y="91" type="curve"/>
      <point x="34" y="89"/>
      <point x="39" y="88"/>
      <point x="43" y="88" type="curve" smooth="yes"/>
      <point x="48" y="88"/>
      <point x="55" y="91"/>
      <point x="59" y="97" type="curve"/>
      <point x="91" y="148"/>
      <point x="147" y="177"/>
      <point x="207" y="177" type="curve" smooth="yes"/>
      <point x="251" y="177"/>
      <point x="292" y="161"/>
      <point x="325" y="131" type="curve"/>
      <point x="75" y="-119" type="line"/>
      <point x="67" y="-110"/>
      <point x="63" y="-103"/>
      <point x="56" y="-94" type="curve"/>
      <point x="52" y="-88"/>
      <point x="46" y="-85"/>
      <point x="40" y="-85" type="curve" smooth="yes"/>
      <point x="29" y="-85"/>
      <point x="20" y="-94"/>
      <point x="20" y="-104" type="curve" smooth="yes"/>
      <point x="20" y="-107"/>
      <point x="21" y="-111"/>
      <point x="23" y="-115" type="curve"/>
      <point x="29" y="-126"/>
      <point x="38" y="-137"/>
      <point x="46" y="-146" type="curve"/>
      <point x="7" y="-187" type="line"/>
      <point x="3" y="-192"/>
      <point x="1" y="-194"/>
      <point x="1" y="-200" type="curve" smooth="yes"/>
      <point x="1" y="-211"/>
      <point x="10" y="-220"/>
      <point x="21" y="-220" type="curve" smooth="yes"/>
      <point x="26" y="-220"/>
      <point x="31" y="-218"/>
      <point x="34" y="-213" type="curve"/>
      <point x="77" y="-174" type="line"/>
      <point x="82" y="-177"/>
      <point x="92" y="-185"/>
      <point x="99" y="-189" type="curve" smooth="yes"/>
      <point x="133" y="-209"/>
      <point x="169" y="-216"/>
      <point x="207" y="-216" type="curve" smooth="yes"/>
      <point x="326" y="-216"/>
      <point x="424" y="-119"/>
      <point x="424" y="0" type="curve" smooth="yes"/>
      <point x="424" y="47"/>
      <point x="406" y="93"/>
      <point x="379" y="130" type="curve"/>
      <point x="435" y="185" type="line"/>
      <point x="440" y="189"/>
      <point x="442" y="195"/>
      <point x="442" y="200" type="curve" smooth="yes"/>
      <point x="442" y="210"/>
      <point x="431" y="219"/>
    </contour>
    <contour>
      <point x="384" y="0" type="curve" smooth="yes"/>
      <point x="384" y="-97"/>
      <point x="304" y="-176"/>
      <point x="207" y="-176" type="curve" smooth="yes"/>
      <point x="176" y="-176"/>
      <point x="146" y="-170"/>
      <point x="119" y="-156" type="curve"/>
      <point x="103" y="-144" type="line"/>
      <point x="351" y="101" type="line"/>
      <point x="372" y="72"/>
      <point x="384" y="36"/>
    </contour>
  </outline>
</glyph>
<glyph name="uniE920" format="2">
  <advance width="101"/>
  <unicode hex="E920"/>
  <outline>
    <contour>
      <point x="0" y="0" type="curve" smooth="yes"/>
      <point x="0" y="-28"/>
      <point x="23" y="-50"/>
      <point x="51" y="-50" type="curve" smooth="yes"/>
      <point x="79" y="-50"/>
      <point x="101" y="-28"/>
      <point x="101" y="0" type="curve" smooth="yes"/>
      <point x="101" y="28"/>
      <point x="79" y="50"/>
      <point x="51" y="50" type="curve" smooth="yes"/>
      <point x="23" y="50"/>
      <point x="0" y="28"/>
    </contour>
  </outline>
</glyph>
<glyph name="uniE930" format="2">
  <advance width="500"/>
  <unicode hex="E930"/>
  <outline>
    <contour>
      <point x="447" y="-138" type="line" smooth="yes"/>
      <point x="464" y="-138"/>
      <point x="467" y="-159"/>
      <point x="467" y="-179" type="curve" smooth="yes"/>
      <point x="467" y="-190"/>
      <point x="476" y="-195"/>
      <point x="484" y="-195" type="curve" smooth="yes"/>
      <point x="492" y="-195"/>
      <point x="500" y="-190"/>
      <point x="500" y="-179" type="curve" smooth="yes"/>
      <point x="500" y="179" type="line" smooth="yes"/>
      <point x="500" y="190"/>
      <point x="492" y="195"/>
      <point x="484" y="195" type="curve" smooth="yes"/>
      <point x="476" y="195"/>
      <point x="467" y="190"/>
      <point x="467" y="179" type="curve" smooth="yes"/>
      <point x="467" y="159"/>
      <point x="464" y="138"/>
      <point x="447" y="138" type="curve" smooth="yes"/>
      <point x="53" y="138" type="line" smooth="yes"/>
      <point x="36" y="138"/>
      <point x="33" y="159"/>
      <point x="33" y="179" type="curve" smooth="yes"/>
      <point x="33" y="190"/>
      <point x="24" y="195"/>
      <point x="16" y="195" type="curve" smooth="yes"/>
      <point x="8" y="195"/>
      <point x="0" y="190"/>
      <point x="0" y="179" type="curve" smooth="yes"/>
      <point x="0" y="-179" type="line" smooth="yes"/>
      <point x="0" y="-190"/>
      <point x="8" y="-195"/>
      <point x="16" y="-195" type="curve" smooth="yes"/>
      <point x="24" y="-195"/>
      <point x="33" y="-190"/>
      <point x="33" y="-179" type="curve" smooth="yes"/>
      <point x="33" y="-159"/>
      <point x="36" y="-138"/>
      <point x="53" y="-138" type="curve" smooth="yes"/>
    </contour>
  </outline>
</glyph>
<glyph name="uniE932" format="2">
  <advance width="500"/>
  <unicode hex="E932"/>
  <outline>
    <contour>
      <point x="447" y="-138" type="line" smooth="yes"/>
      <point x="464" y="-138"/>
      <point x="467" y="-159"/>
      <point x="467" y="-179" type="curve" smooth="yes"/>
      <point x="467" y="-190"/>
      <point x="476" y="-195"/>
      <point x="484" y="-195" type="curve" smooth="yes"/>
      <point x="492" y="-195"/>
      <point x="500" y="-190"/>
      <point x="500" y="-179" type="curve" smooth="yes"/>
      <point x="500" y="179" type="line" smooth="yes"/>
      <point x="500" y="190"/>
      <point x="492" y="195"/>
      <point x="484" y="195" type="curve" smooth="yes"/>
      <point x="476" y="195"/>
      <point x="467" y="190"/>
      <point x="467" y="179" type="curve" smooth="yes"/>
      <point x="467" y="159"/>
      <point x="464" y="138"/>
      <point x="447" y="138" type="curve" smooth="yes"/>
      <point x="53" y="138" type="line" smooth="yes"/>
      <point x="36" y="138"/>
      <point x="33" y="159"/>
      <point x="33" y="179" type="curve" smooth="yes"/>
      <point x="33" y="190"/>
      <point x="24" y="195"/>
      <point x="16" y="195" type="curve" smooth="yes"/>
      <point x="8" y="195"/>
      <point x="0" y="190"/>
      <point x="0" y="179" type="curve" smooth="yes"/>
      <point x="0" y="-179" type="line" smooth="yes"/>
      <point x="0" y="-190"/>
      <point x="8" y="-195"/>
      <point x="16" y="-195" type="curve" smooth="yes"/>
      <point x="24" y="-195"/>
      <point x="33" y="-190"/>
      <point x="33" y="-179" type="curve" smooth="yes"/>
      <point x="33" y="-159"/>
      <point x="36" y="-138"/>
      <point x="53" y="-138" type="curve" smooth="yes"/>
    </contour>
    <contour>
      <point x="250" y="-50" type="line"/>
      <point x="53" y="-50" type="line" smooth="yes"/>
      <point x="42" y="-50"/>
      <point x="33" y="-41"/>
      <point x="33" y="-30" type="curve" smooth="yes"/>
      <point x="33" y="30" type="line" smooth="yes"/>
      <point x="33" y="41"/>
      <point x="42" y="50"/>
      <point x="53" y="50" type="curve" smooth="yes"/>
      <point x="250" y="50" type="line"/>
    </contour>
  </outline>
</glyph>
<glyph name="uniE936" format="2">
  <advance width="250"/>
  <unicode hex="E936"/>
  <outline>
    <contour>
      <point x="197" y="-138" type="line" smooth="yes"/>
      <point x="214" y="-138"/>
      <point x="217" y="-159"/>
      <point x="217" y="-179" type="curve" smooth="yes"/>
      <point x="217" y="-190"/>
      <point x="226" y="-195"/>
      <point x="234" y="-195" type="curve" smooth="yes"/>
      <point x="242" y="-195"/>
      <point x="250" y="-190"/>
      <point x="250" y="-179" type="curve" smooth="yes"/>
      <point x="250" y="179" type="line" smooth="yes"/>
      <point x="250" y="190"/>
      <point x="242" y="195"/>
      <point x="234" y="195" type="curve" smooth="yes"/>
      <point x="226" y="195"/>
      <point x="217" y="190"/>
      <point x="217" y="179" type="curve" smooth="yes"/>
      <point x="217" y="159"/>
      <point x="214" y="138"/>
      <point x="197" y="138" type="curve" smooth="yes"/>
      <point x="53" y="138" type="line" smooth="yes"/>
      <point x="36" y="138"/>
      <point x="33" y="159"/>
      <point x="33" y="179" type="curve" smooth="yes"/>
      <point x="33" y="190"/>
      <point x="24" y="195"/>
      <point x="16" y="195" type="curve" smooth="yes"/>
      <point x="8" y="195"/>
      <point x="0" y="190"/>
      <point x="0" y="179" type="curve" smooth="yes"/>
      <point x="0" y="-179" type="line" smooth="yes"/>
      <point x="0" y="-190"/>
      <point x="8" y="-195"/>
      <point x="16" y="-195" type="curve" smooth="yes"/>
      <point x="24" y="-195"/>
      <point x="33" y="-190"/>
      <point x="33" y="-179" type="curve" smooth="yes"/>
      <point x="33" y="-159"/>
      <point x="36" y="-138"/>
      <point x="53" y="-138" type="curve" smooth="yes"/>
    </contour>
    <contour>
      <point x="125" y="-50" type="line"/>
      <point x="53" y="-50" type="line" smooth="yes"/>
      <point x="42" y="-50"/>
      <point x="33" y="-41"/>
      <point x="33" y="-30" type="curve" smooth="yes"/>
      <point x="33" y="30" type="line" smooth="yes"/>
      <point x="33" y="41"/>
      <point x="42" y="50"/>
      <point x="53" y="50" type="curve" smooth="yes"/>
      <point x="125" y="50" type="line"/>
    </contour>
  </outline>
</glyph>
<glyph name="uniE939" format="2">
  <advance width="277"/>
  <unicode hex="E939"/>
  <outline>
    <contour>
      <point x="139" y="-192" type="curve" smooth="yes"/>
      <point x="153" y="-192"/>
      <point x="277" y="-3"/>
      <point x="277" y="0" type="curve" smooth="yes"/>
      <point x="277" y="3"/>
      <point x="153" y="192"/>
      <point x="139" y="192" type="curve" smooth="yes"/>
      <point x="122" y="192"/>
      <point x="0" y="2"/>
      <point x="0" y="0" type="curve" smooth="yes"/>
      <point x="0" y="-2"/>
      <point x="122" y="-192"/>
    </contour>
    <contour>
      <point x="39" y="-5" type="line"/>
      <point x="38" y="-3"/>
      <point x="36" y="-2"/>
      <point x="36" y="0" type="curve" smooth="yes"/>
      <point x="36" y="2"/>
      <point x="38" y="3"/>
      <point x="39" y="5" type="curve"/>
      <point x="132" y="136" type="line"/>
      <point x="139" y="139" type="line"/>
      <point x="145" y="136" type="line"/>
      <point x="238" y="5" type="line"/>
      <point x="239" y="3"/>
      <point x="241" y="2"/>
      <point x="241" y="0" type="curve" smooth="yes"/>
      <point x="241" y="-2"/>
      <point x="239" y="-3"/>
      <point x="238" y="-5" type="curve"/>
      <point x="145" y="-136" type="line"/>
      <point x="139" y="-139" type="line"/>
      <point x="132" y="-136" type="line"/>
    </contour>
  </outline>
</glyph>
<glyph name="uniE950" format="2">
  <advance width="500"/>
  <unicode hex="E950"/>
  <outline>
    <contour>
      <point x="447" y="-138" type="line" smooth="yes"/>
      <point x="464" y="-138"/>
      <point x="467" y="-159"/>
      <point x="467" y="-179" type="curve"/>
      <point x="459" y="-616" type="line"/>
      <point x="463" y="-626"/>
      <point x="473" y="-633"/>
      <point x="484" y="-633" type="curve" smooth="yes"/>
      <point x="495" y="-633"/>
      <point x="504" y="-626"/>
      <point x="508" y="-616" type="curve"/>
      <point x="500" y="-179" type="line"/>
      <point x="500" y="179" type="line" smooth="yes"/>
      <point x="500" y="190"/>
      <point x="492" y="195"/>
      <point x="484" y="195" type="curve" smooth="yes"/>
      <point x="476" y="195"/>
      <point x="467" y="190"/>
      <point x="467" y="179" type="curve" smooth="yes"/>
      <point x="467" y="159"/>
      <point x="464" y="138"/>
      <point x="447" y="138" type="curve" smooth="yes"/>
      <point x="53" y="138" type="line" smooth="yes"/>
      <point x="36" y="138"/>
      <point x="33" y="159"/>
      <point x="33" y="179" type="curve" smooth="yes"/>
      <point x="33" y="190"/>
      <point x="24" y="195"/>
      <point x="16" y="195" type="curve" smooth="yes"/>
      <point x="8" y="195"/>
      <point x="0" y="190"/>
      <point x="0" y="179" type="curve" smooth="yes"/>
      <point x="0" y="-179" type="line" smooth="yes"/>
      <point x="0" y="-190"/>
      <point x="8" y="-195"/>
      <point x="16" y="-195" type="curve" smooth="yes"/>
      <point x="24" y="-195"/>
      <point x="33" y="-190"/>
      <point x="33" y="-179" type="curve" smooth="yes"/>
      <point x="33" y="-159"/>
      <point x="36" y="-138"/>
      <point x="53" y="-138" type="curve" smooth="yes"/>
    </contour>
  </outline>
</glyph>
<glyph name="uniE951" format="2">
  <advance width="250"/>
  <unicode hex="E951"/>
  <outline>
    <contour>
      <point x="197" y="-138" type="line" smooth="yes"/>
      <point x="214" y="-138"/>
      <point x="217" y="-159"/>
      <point x="217" y="-179" type="curve"/>
      <point x="209" y="-616" type="line"/>
      <point x="213" y="-626"/>
      <point x="223" y="-633"/>
      <point x="234" y="-633" type="curve" smooth="yes"/>
      <point x="245" y="-633"/>
      <point x="254" y="-626"/>
      <point x="258" y="-616" type="curve"/>
      <point x="250" y="-179" type="line"/>
      <point x="250" y="179" type="line" smooth="yes"/>
      <point x="250" y="190"/>
      <point x="242" y="195"/>
      <point x="234" y="195" type="curve" smooth="yes"/>
      <point x="226" y="195"/>
      <point x="217" y="190"/>
      <point x="217" y="179" type="curve" smooth="yes"/>
      <point x="217" y="159"/>
      <point x="214" y="138"/>
      <point x="197" y="138" type="curve" smooth="yes"/>
      <point x="53" y="138" type="line" smooth="yes"/>
      <point x="36" y="138"/>
      <point x="33" y="159"/>
      <point x="33" y="179" type="curve" smooth="yes"/>
      <point x="33" y="190"/>
      <point x="24" y="195"/>
      <point x="16" y="195" type="curve" smooth="yes"/>
      <point x="8" y="195"/>
      <point x="0" y="190"/>
      <point x="0" y="179" type="curve" smooth="yes"/>
      <point x="0" y="-179" type="line" smooth="yes"/>
      <point x="0" y="-190"/>
      <point x="8" y="-195"/>
      <point x="16" y="-195" type="curve" smooth="yes"/>
      <point x="24" y="-195"/>
      <point x="33" y="-190"/>
      <point x="33" y="-179" type="curve" smooth="yes"/>
      <point x="33" y="-159"/>
      <point x="36" y="-138"/>
      <point x="53" y="-138" type="curve" smooth="yes"/>
    </contour>
  </outline>
</glyph>
<glyph name="uniE952" format="2">
  <advance width="250"/>
  <unicode hex="E952"/>
  <outline>
    <contour>
      <point x="197" y="-138" type="line" smooth="yes"/>
      <point x="214" y="-138"/>
      <point x="217" y="-159"/>
      <point x="217" y="-179" type="curve" smooth="yes"/>
      <point x="217" y="-190"/>
      <point x="226" y="-195"/>
      <point x="234" y="-195" type="curve" smooth="yes"/>
      <point x="242" y="-195"/>
      <point x="250" y="-190"/>
      <point x="250" y="-179" type="curve" smooth="yes"/>
      <point x="250" y="179" type="line" smooth="yes"/>
      <point x="250" y="190"/>
      <point x="242" y="195"/>
      <point x="234" y="195" type="curve" smooth="yes"/>
      <point x="226" y="195"/>
      <point x="217" y="190"/>
      <point x="217" y="179" type="curve" smooth="yes"/>
      <point x="217" y="159"/>
      <point x="214" y="138"/>
      <point x="197" y="138" type="curve" smooth="yes"/>
      <point x="53" y="138" type="line" smooth="yes"/>
      <point x="36" y="138"/>
      <point x="33" y="159"/>
      <point x="33" y="179" type="curve" smooth="yes"/>
      <point x="33" y="190"/>
      <point x="24" y="195"/>
      <point x="16" y="195" type="curve" smooth="yes"/>
      <point x="8" y="195"/>
      <point x="0" y="190"/>
      <point x="0" y="179" type="curve" smooth="yes"/>
      <point x="0" y="-179" type="line" smooth="yes"/>
      <point x="0" y="-190"/>
      <point x="8" y="-195"/>
      <point x="16" y="-195" type="curve" smooth="yes"/>
      <point x="24" y="-195"/>
      <point x="33" y="-190"/>
      <point x="33" y="-179" type="curve" smooth="yes"/>
      <point x="33" y="-159"/>
      <point x="36" y="-138"/>
      <point x="53" y="-138" type="curve" smooth="yes"/>
    </contour>
  </outline>
</glyph>
<glyph name="uniE953" format="2">
  <advance width="277"/>
  <unicode hex="E953"/>
  <outline>
    <contour>
      <point x="2" y="-6" type="curve"/>
      <point x="130" y="-188" type="line" smooth="yes"/>
      <point x="132" y="-191"/>
      <point x="136" y="-192"/>
      <point x="139" y="-192" type="curve" smooth="yes"/>
      <point x="142" y="-192"/>
      <point x="145" y="-191"/>
      <point x="147" y="-188" type="curve" smooth="yes"/>
      <point x="275" y="-6" type="line"/>
      <point x="276" y="-4"/>
      <point x="277" y="-2"/>
      <point x="277" y="0" type="curve"/>
      <point x="277" y="2"/>
      <point x="276" y="4"/>
      <point x="275" y="6" type="curve"/>
      <point x="147" y="188" type="line" smooth="yes"/>
      <point x="145" y="191"/>
      <point x="142" y="192"/>
      <point x="139" y="192" type="curve" smooth="yes"/>
      <point x="136" y="192"/>
      <point x="132" y="191"/>
      <point x="130" y="188" type="curve" smooth="yes"/>
      <point x="2" y="6" type="line"/>
      <point x="1" y="4"/>
      <point x="0" y="2"/>
      <point x="0" y="0" type="curve"/>
      <point x="0" y="-2"/>
      <point x="1" y="-4"/>
    </contour>
  </outline>
</glyph>
<glyph name="uniE957" format="2">
  <advance width="420"/>
  <unicode hex="E957"/>
  <outline>
    <contour>
      <point x="92" y="40" type="line"/>
      <point x="165" y="105" type="line"/>
      <point x="330" y="-41" type="line"/>
      <point x="257" y="-106" type="line"/>
    </contour>
    <contour>
      <point x="2" y="-5" type="curve"/>
      <point x="204" y="-184" type="line"/>
      <point x="205" y="-185"/>
      <point x="209" y="-186"/>
      <point x="210" y="-186" type="curve"/>
      <point x="211" y="-186"/>
      <point x="215" y="-185"/>
      <point x="218" y="-184" type="curve"/>
      <point x="419" y="-5" type="line"/>
      <point x="420" y="-4"/>
      <point x="420" y="-3"/>
      <point x="420" y="0" type="curve"/>
      <point x="420" y="2"/>
      <point x="420" y="3"/>
      <point x="419" y="4" type="curve"/>
      <point x="218" y="183" type="line"/>
      <point x="215" y="184"/>
      <point x="211" y="185"/>
      <point x="210" y="185" type="curve"/>
      <point x="209" y="185"/>
      <point x="205" y="184"/>
      <point x="204" y="183" type="curve"/>
      <point x="2" y="4" type="line"/>
      <point x="1" y="3"/>
      <point x="0" y="2"/>
      <point x="0" y="0" type="curve"/>
      <point x="0" y="-3"/>
      <point x="1" y="-4"/>
    </contour>
  </outline>
</glyph>
<glyph name="uniE95C" format="2">
  <advance width="500"/>
  <unicode hex="E95C"/>
  <outline>
    <contour>
      <point x="447" y="-138" type="line" smooth="yes"/>
      <point x="464" y="-138"/>
      <point x="467" y="-159"/>
      <point x="467" y="-179" type="curve"/>
      <point x="459" y="-616" type="line"/>
      <point x="463" y="-626"/>
      <point x="473" y="-632"/>
      <point x="484" y="-632" type="curve" smooth="yes"/>
      <point x="495" y="-632"/>
      <point x="504" y="-626"/>
      <point x="508" y="-616" type="curve"/>
      <point x="500" y="-179" type="line"/>
      <point x="500" y="179" type="line" smooth="yes"/>
      <point x="500" y="190"/>
      <point x="492" y="195"/>
      <point x="484" y="195" type="curve" smooth="yes"/>
      <point x="476" y="195"/>
      <point x="467" y="190"/>
      <point x="467" y="179" type="curve" smooth="yes"/>
      <point x="467" y="159"/>
      <point x="464" y="138"/>
      <point x="447" y="138" type="curve" smooth="yes"/>
      <point x="53" y="138" type="line" smooth="yes"/>
      <point x="36" y="138"/>
      <point x="33" y="159"/>
      <point x="33" y="179" type="curve" smooth="yes"/>
      <point x="33" y="190"/>
      <point x="24" y="195"/>
      <point x="16" y="195" type="curve" smooth="yes"/>
      <point x="8" y="195"/>
      <point x="0" y="190"/>
      <point x="0" y="179" type="curve" smooth="yes"/>
      <point x="0" y="-179" type="line" smooth="yes"/>
      <point x="0" y="-190"/>
      <point x="8" y="-195"/>
      <point x="16" y="-195" type="curve" smooth="yes"/>
      <point x="24" y="-195"/>
      <point x="33" y="-190"/>
      <point x="33" y="-179" type="curve" smooth="yes"/>
      <point x="33" y="-159"/>
      <point x="36" y="-138"/>
      <point x="53" y="-138" type="curve" smooth="yes"/>
    </contour>
    <contour>
      <point x="53" y="-50" type="line" smooth="yes"/>
      <point x="42" y="-50"/>
      <point x="33" y="-41"/>
      <point x="33" y="-30" type="curve" smooth="yes"/>
      <point x="33" y="30" type="line" smooth="yes"/>
      <point x="33" y="41"/>
      <point x="42" y="50"/>
      <point x="53" y="50" type="curve" smooth="yes"/>
      <point x="447" y="50" type="line" smooth="yes"/>
      <point x="458" y="50"/>
      <point x="467" y="41"/>
      <point x="467" y="30" type="curve" smooth="yes"/>
      <point x="467" y="-30" type="line" smooth="yes"/>
      <point x="467" y="-41"/>
      <point x="458" y="-50"/>
      <point x="447" y="-50" type="curve" smooth="yes"/>
    </contour>
  </outline>
</glyph>
<glyph name="uniE95D" format="2">
  <advance width="250"/>
  <unicode hex="E95D"/>
  <outline>
    <contour>
      <point x="197" y="-138" type="line" smooth="yes"/>
      <point x="214" y="-138"/>
      <point x="217" y="-159"/>
      <point x="217" y="-179" type="curve"/>
      <point x="209" y="-616" type="line" name="hr01"/>
      <point x="213" y="-626"/>
      <point x="223" y="-632"/>
      <point x="234" y="-632" type="curve" smooth="yes"/>
      <point x="245" y="-632"/>
      <point x="254" y="-626"/>
      <point x="258" y="-616" type="curve"/>
      <point x="250" y="-179" type="line" name="hr02"/>
      <point x="250" y="179" type="line" smooth="yes"/>
      <point x="250" y="190"/>
      <point x="242" y="195"/>
      <point x="234" y="195" type="curve" smooth="yes"/>
      <point x="226" y="195"/>
      <point x="217" y="190"/>
      <point x="217" y="179" type="curve" smooth="yes"/>
      <point x="217" y="159"/>
      <point x="214" y="138"/>
      <point x="197" y="138" type="curve" smooth="yes"/>
      <point x="53" y="138" type="line" smooth="yes"/>
      <point x="36" y="138"/>
      <point x="33" y="159"/>
      <point x="33" y="179" type="curve" smooth="yes"/>
      <point x="33" y="190"/>
      <point x="24" y="195"/>
      <point x="16" y="195" type="curve" smooth="yes"/>
      <point x="8" y="195"/>
      <point x="0" y="190"/>
      <point x="0" y="179" type="curve" smooth="yes"/>
      <point x="0" y="-179" type="line" smooth="yes"/>
      <point x="0" y="-190"/>
      <point x="8" y="-195"/>
      <point x="16" y="-195" type="curve" smooth="yes"/>
      <point x="24" y="-195"/>
      <point x="33" y="-190"/>
      <point x="33" y="-179" type="curve" smooth="yes"/>
      <point x="33" y="-159"/>
      <point x="36" y="-138"/>
      <point x="53" y="-138" type="curve" smooth="yes"/>
    </contour>
    <contour>
      <point x="53" y="-50" type="line" smooth="yes"/>
      <point x="42" y="-50"/>
      <point x="33" y="-41"/>
      <point x="33" y="-30" type="curve" smooth="yes"/>
      <point x="33" y="30" type="line" smooth="yes"/>
      <point x="33" y="41"/>
      <point x="42" y="50"/>
      <point x="53" y="50" type="curve" smooth="yes"/>
      <point x="197" y="50" type="line" smooth="yes"/>
      <point x="208" y="50"/>
      <point x="217" y="41"/>
      <point x="217" y="30" type="curve" smooth="yes"/>
      <point x="217" y="-30" type="line" smooth="yes"/>
      <point x="217" y="-41"/>
      <point x="208" y="-50"/>
      <point x="197" y="-50" type="curve" smooth="yes"/>
    </contour>
  </outline>
</glyph>
